<?xml version="1.0" encoding="utf-8"?>
<!-- Generator: Adobe Illustrator 22.0.1, SVG Export Plug-In . SVG Version: 6.00 Build 0)  -->
<svg version="1.1" id="Capa_1" xmlns="http://www.w3.org/2000/svg" xmlns:xlink="http://www.w3.org/1999/xlink" x="0px" y="0px"
	 viewBox="0 0 424.2 424.2" style="enable-background:new 0 0 424.2 424.2;" xml:space="preserve">
<style type="text/css">
	.st0{fill:url(#SVGID_1_);}
	.st1{fill:url(#SVGID_2_);}
	.st2{fill:url(#SVGID_3_);}
	.st3{fill:url(#SVGID_4_);stroke:url(#SVGID_5_);stroke-miterlimit:10;}
	.st4{fill:url(#SVGID_6_);}
	.st5{fill:url(#SVGID_7_);}
	.st6{fill:url(#SVGID_8_);}
	.st7{fill:url(#SVGID_9_);}
	.st8{fill:url(#SVGID_10_);}
	.st9{fill:url(#SVGID_11_);}
	.st10{fill:url(#SVGID_12_);}
	.st11{fill:url(#SVGID_13_);}
	.st12{fill:url(#SVGID_14_);}
	.st13{fill:url(#SVGID_15_);}
</style>
<g>
	
		<linearGradient id="SVGID_1_" gradientUnits="userSpaceOnUse" x1="-1402.675" y1="857.3875" x2="-1450.6686" y2="857.3875" gradientTransform="matrix(1 0 0 -1 0 424)">
		<stop  offset="0" style="stop-color:#8EF5B6"/>
		<stop  offset="0.1499" style="stop-color:#89F1B3"/>
		<stop  offset="0.326" style="stop-color:#7BE6A9"/>
		<stop  offset="0.5152" style="stop-color:#63D499"/>
		<stop  offset="0.7137" style="stop-color:#42BB83"/>
		<stop  offset="0.9175" style="stop-color:#189B67"/>
		<stop  offset="1" style="stop-color:#058C5A"/>
	</linearGradient>
	<path class="st0" d="M-1426.7-428.7c3.9,0,7.6,1.5,10.3,4.3c1.6,1.6,3.6,2.3,5.7,2.3c2,0,4.1-0.8,5.7-2.3c3.1-3.1,3.1-8.2,0-11.3
		c-5.8-5.8-13.5-9-21.7-9s-15.9,3.2-21.7,9c-3.1,3.1-3.1,8.2,0,11.3s8.2,3.1,11.3,0C-1434.2-427.2-1430.6-428.7-1426.7-428.7z"/>
	
		<linearGradient id="SVGID_2_" gradientUnits="userSpaceOnUse" x1="-1236.9751" y1="857.3875" x2="-1284.9696" y2="857.3875" gradientTransform="matrix(1 0 0 -1 0 424)">
		<stop  offset="0" style="stop-color:#8EF5B6"/>
		<stop  offset="0.1499" style="stop-color:#89F1B3"/>
		<stop  offset="0.326" style="stop-color:#7BE6A9"/>
		<stop  offset="0.5152" style="stop-color:#63D499"/>
		<stop  offset="0.7137" style="stop-color:#42BB83"/>
		<stop  offset="0.9175" style="stop-color:#189B67"/>
		<stop  offset="1" style="stop-color:#058C5A"/>
	</linearGradient>
	<path class="st1" d="M-1282.7-435.7c-3.1,3.1-3.1,8.2,0,11.3c3.1,3.1,8.2,3.1,11.3,0c5.7-5.7,15-5.7,20.7,0
		c1.6,1.6,3.6,2.3,5.7,2.3c2,0,4.1-0.8,5.7-2.3c3.1-3.1,3.1-8.2,0-11.3C-1251.3-447.7-1270.7-447.7-1282.7-435.7z"/>
	
		<linearGradient id="SVGID_3_" gradientUnits="userSpaceOnUse" x1="-1247.3751" y1="756.8625" x2="-1440.225" y2="756.8625" gradientTransform="matrix(1 0 0 -1 0 424)">
		<stop  offset="0" style="stop-color:#8EF5B6"/>
		<stop  offset="0.1499" style="stop-color:#89F1B3"/>
		<stop  offset="0.326" style="stop-color:#7BE6A9"/>
		<stop  offset="0.5152" style="stop-color:#63D499"/>
		<stop  offset="0.7137" style="stop-color:#42BB83"/>
		<stop  offset="0.9175" style="stop-color:#189B67"/>
		<stop  offset="1" style="stop-color:#058C5A"/>
	</linearGradient>
	<path class="st2" d="M-1261-356.8c-45.7,45.6-119.9,45.6-165.6,0c-3.1-3.1-8.2-3.1-11.3,0c-3.1,3.1-3.1,8.2,0,11.3
		c25.9,25.9,60,38.9,94.1,38.9s68.2-13,94.1-38.9c3.1-3.1,3.1-8.2,0-11.3C-1252.9-359.9-1257.9-359.9-1261-356.8z"/>
	
		<linearGradient id="SVGID_4_" gradientUnits="userSpaceOnUse" x1="-1155.1" y1="886.1537" x2="-1532.7" y2="886.1537" gradientTransform="matrix(1 0 0 -1 0 424)">
		<stop  offset="0" style="stop-color:#8EF5B6"/>
		<stop  offset="0.1499" style="stop-color:#89F1B3"/>
		<stop  offset="0.326" style="stop-color:#7BE6A9"/>
		<stop  offset="0.5152" style="stop-color:#63D499"/>
		<stop  offset="0.7137" style="stop-color:#42BB83"/>
		<stop  offset="0.9175" style="stop-color:#189B67"/>
		<stop  offset="1" style="stop-color:#058C5A"/>
	</linearGradient>
	
		<linearGradient id="SVGID_5_" gradientUnits="userSpaceOnUse" x1="-1154.6" y1="886.1537" x2="-1533.2" y2="886.1537" gradientTransform="matrix(1 0 0 -1 0 424)">
		<stop  offset="0" style="stop-color:#8EF5B6"/>
		<stop  offset="0.1499" style="stop-color:#89F1B3"/>
		<stop  offset="0.326" style="stop-color:#7BE6A9"/>
		<stop  offset="0.5152" style="stop-color:#63D499"/>
		<stop  offset="0.7137" style="stop-color:#42BB83"/>
		<stop  offset="0.9175" style="stop-color:#189B67"/>
		<stop  offset="1" style="stop-color:#058C5A"/>
	</linearGradient>
	<path class="st3" d="M-1155.1-420.1c0-21.7-15.7-39.9-36.4-43.6v-133.8c0-17.4-8.6-33.5-23.1-43.1c-13.6-9-30.5-11.1-45.7-5.7
		l-50.2-17c-38.6-13.1-79.2-14.4-117.5-3.9c-50.1,13.8-78.8,43-83.2,84.6c-3.9,5.2-7,11-9.2,17.3l-3.9,11.5
		c-2.1,6.2,0.2,12.7,5.7,16.2s12.4,2.8,17.1-1.8c1.6-1.6,3.4-2.9,5.2-4v79.7c-20.7,3.8-36.4,21.9-36.4,43.6c0,22.6,17,41.3,38.9,44
		c5.5,30.3,19.9,58.3,42,80.7c28.8,29.2,67.1,45.3,107.9,45.3l0,0c40.7,0,79-15.9,107.7-44.6c22.5-22.5,37.1-50.7,42.4-81.4
		C-1171.9-378.9-1155.1-397.5-1155.1-420.1z M-1223.4-627.2c10.1,6.7,16,17.6,16,29.7v104.7c-24.8-3.9-43.9-25.4-43.9-51.3l-0.7-88
		C-1242.2-634.6-1232-633-1223.4-627.2z M-1506.8-555.6l1.6-4.6c4.1-12.1,13.1-21.8,24.8-26.8c11.7-5,25-4.8,36.6,0.6
		c24.2,11.3,53.5,5.2,71.2-14.8l2-2.2c2.9-3.3,2.6-8.4-0.7-11.3c-3.3-2.9-8.4-2.6-11.3,0.7l-2,2.2c-13,14.8-34.6,19.2-52.5,10.9
		c-15.7-7.3-33.7-7.6-49.6-0.8c-1.4,0.6-2.8,1.3-4.2,2c9.3-24.8,31.8-42.2,67.2-52c35.2-9.7,72.5-8.5,108.1,3.6l47.6,16.2l0.6,41.3
		c-21.2,28.8-52.1,48.3-87.4,55.1c-36.1,6.9-72.9-0.4-103.7-20.5C-1473.4-565.9-1492.4-565.5-1506.8-555.6z M-1516.6-420.1
		c0-12.9,8.6-23.7,20.4-27.2v43.4c0,3.7,0.1,7.5,0.4,11.2C-1507.8-396.1-1516.6-407.1-1516.6-420.1z M-1247.4-305.9
		c-25.8,25.8-60,39.9-96.4,39.9l0,0c-36.4,0-70.7-14.4-96.5-40.6c-25.7-26.1-39.9-60.7-39.9-97.3v-143.2c4.5,0.3,9,1.8,13.1,4.4
		c34.2,22.3,75.2,30.4,115.4,22.8c32.6-6.2,61.9-22.3,84.4-45.9v21.7c0,34.7,26.2,63.4,59.9,67.4v74.3
		C-1207.4-366-1221.6-331.7-1247.4-305.9z M-1191.8-392.8c0.2-3.2,0.3-6.4,0.3-9.6v-44.9c11.8,3.5,20.4,14.3,20.4,27.2
		C-1171.1-407.1-1179.8-396.1-1191.8-392.8z"/>
</g>
<path d="M-955.8-974.6l2.9,3.7l1.3,1.6L-955.8-974.6z"/>
<linearGradient id="SVGID_6_" gradientUnits="userSpaceOnUse" x1="-895.7" y1="1414.8" x2="-945.8" y2="1414.8" gradientTransform="matrix(1 0 0 -1 0 424)">
	<stop  offset="0" style="stop-color:#8EF5B6"/>
	<stop  offset="0.1499" style="stop-color:#89F1B3"/>
	<stop  offset="0.326" style="stop-color:#7BE6A9"/>
	<stop  offset="0.5152" style="stop-color:#63D499"/>
	<stop  offset="0.7137" style="stop-color:#42BB83"/>
	<stop  offset="0.9175" style="stop-color:#189B67"/>
	<stop  offset="1" style="stop-color:#058C5A"/>
</linearGradient>
<path class="st4" d="M-895.7-989.7v-13.7c-17.5,0-34.9,4.6-50.1,13.3l6.8,11.9C-925.8-985.7-910.8-989.7-895.7-989.7z"/>
<linearGradient id="SVGID_7_" gradientUnits="userSpaceOnUse" x1="-711.5" y1="1268.9999" x2="-1066.5" y2="1268.9999" gradientTransform="matrix(1 0 0 -1 0 424)">
	<stop  offset="0" style="stop-color:#8EF5B6"/>
	<stop  offset="0.1499" style="stop-color:#89F1B3"/>
	<stop  offset="0.326" style="stop-color:#7BE6A9"/>
	<stop  offset="0.5152" style="stop-color:#63D499"/>
	<stop  offset="0.7137" style="stop-color:#42BB83"/>
	<stop  offset="0.9175" style="stop-color:#189B67"/>
	<stop  offset="1" style="stop-color:#058C5A"/>
</linearGradient>
<path class="st5" d="M-750.1-762.6l-98.1-19.6v-12.3c20.8-12.1,35.8-33.1,39.8-57.8c16.1-2.7,28.5-16.7,28.5-33.6v-74.3
	c0-18.6-11.9-34.9-29.4-40.7l-0.3-0.6c-17-34-51.1-55.1-89.1-55.1c-54.9,0-99.6,44.7-99.6,99.6v71c0,16.9,12.3,30.8,28.5,33.6
	c4,24.7,19,45.7,39.8,57.8v12.3l-98.1,19.6c-22.3,4.4-38.4,24.2-38.4,46.8v82.5h355v-82.5C-711.7-738.4-727.9-758.1-750.1-762.6z
	 M-842.3-767.1l-10.2,40.9l-26-17.3l25.7-25.7L-842.3-767.1z M-904-665.1l31.9,10.6l1.7,7.6H-908L-904-665.1z M-901-678.5l3.6-16.2
	h16.3l5.5,24.7L-901-678.5z M-880.9-708.3h-16.6l-4.4-17.5l12.7-8.5l12.7,8.5L-880.9-708.3z M-807.3-866.6V-905
	c7.9,2.8,13.7,10.3,13.7,19.2C-793.6-876.9-799.4-869.4-807.3-866.6z M-984.8-885.8c0-8.9,5.7-16.4,13.7-19.2v38.5
	C-979.1-869.4-984.8-876.9-984.8-885.8z M-971.1-957.1v1.4c0,0.5,0,1.1,0,1.6v34.8c-5.1,1-9.7,3.3-13.7,6.3v-43.9
	c0-47.4,38.6-86,86-86c32.8,0,62.2,18.2,76.9,47.5l3.1,6.1l3,0.8c13,3.3,22.1,14.9,22.1,28.3v47.1c-4-3-8.6-5.3-13.7-6.3v-7.5
	c0-10.3-3.4-20.5-9.6-28.7c-9-12-23.3-19.1-38.2-19.1c-10,0-20,2.4-28.9,6.8l-51.4,25.7c-2.1,1-4.5,1.6-6.8,1.6
	c-8.4,0-15.3-6.8-15.3-15.3v-1.4c0-4.7,2.1-9,5.9-12.1l-1.3-1.7l-7.4-8.9C-967.2-974.2-971.1-966-971.1-957.1z M-957.5-865.4v-65.8
	c8,5,19.2,5.8,28.2,1.3l51.4-25.7c7-3.5,14.9-5.4,22.8-5.4c10.7,0,20.9,5.1,27.3,13.7c4.4,5.9,6.8,13.1,6.8,20.5v61.4
	c0,37.6-30.6,68.3-68.3,68.3C-926.9-797.1-957.5-827.7-957.5-865.4z M-889.2-783.4c9.6,0,18.8-1.7,27.3-4.8v8.8l-27.3,27.3
	l-27.3-27.3v-8.8C-908-785.2-898.8-783.4-889.2-783.4z M-925.6-769.2l25.7,25.7l-26,17.3l-10.2-40.9L-925.6-769.2z M-1053-715.7
	c0-16.2,11.5-30.3,27.4-33.5l76.1-15.2l15.1,60.3l20.5-13.7l4.1,16.3l-12.1,54.5h-62.8v-68.3h-13.7v68.3h-54.6V-715.7z
	 M-725.4-646.9H-780v-68.3h-13.7v68.3h-62.8l-12.1-54.5l4.1-16.3L-844-704l15.1-60.3l76.1,15.2c15.9,3.2,27.4,17.3,27.4,33.5V-646.9
	z"/>
<linearGradient id="SVGID_8_" gradientUnits="userSpaceOnUse" x1="-841.4277" y1="1330.3" x2="-855.0806" y2="1330.3" gradientTransform="matrix(1 0 0 -1 0 424)">
	<stop  offset="0" style="stop-color:#8EF5B6"/>
	<stop  offset="0.1499" style="stop-color:#89F1B3"/>
	<stop  offset="0.326" style="stop-color:#7BE6A9"/>
	<stop  offset="0.5152" style="stop-color:#63D499"/>
	<stop  offset="0.7137" style="stop-color:#42BB83"/>
	<stop  offset="0.9175" style="stop-color:#189B67"/>
	<stop  offset="1" style="stop-color:#058C5A"/>
</linearGradient>
<path class="st6" d="M-841.4-906.3c0,3.8-3.1,6.8-6.8,6.8s-6.8-3.1-6.8-6.8c0-3.8,3.1-6.8,6.8-6.8S-841.4-910.1-841.4-906.3z"/>
<linearGradient id="SVGID_9_" gradientUnits="userSpaceOnUse" x1="-923.345" y1="1330.3" x2="-936.9978" y2="1330.3" gradientTransform="matrix(1 0 0 -1 0 424)">
	<stop  offset="0" style="stop-color:#8EF5B6"/>
	<stop  offset="0.1499" style="stop-color:#89F1B3"/>
	<stop  offset="0.326" style="stop-color:#7BE6A9"/>
	<stop  offset="0.5152" style="stop-color:#63D499"/>
	<stop  offset="0.7137" style="stop-color:#42BB83"/>
	<stop  offset="0.9175" style="stop-color:#189B67"/>
	<stop  offset="1" style="stop-color:#058C5A"/>
</linearGradient>
<path class="st7" d="M-923.3-906.3c0,3.8-3.1,6.8-6.8,6.8c-3.8,0-6.8-3.1-6.8-6.8c0-3.8,3.1-6.8,6.8-6.8
	C-926.4-913.1-923.3-910.1-923.3-906.3z"/>
<linearGradient id="SVGID_10_" gradientUnits="userSpaceOnUse" x1="-855.1" y1="1265.45" x2="-923.3643" y2="1265.45" gradientTransform="matrix(1 0 0 -1 0 424)">
	<stop  offset="0" style="stop-color:#8EF5B6"/>
	<stop  offset="0.1499" style="stop-color:#89F1B3"/>
	<stop  offset="0.326" style="stop-color:#7BE6A9"/>
	<stop  offset="0.5152" style="stop-color:#63D499"/>
	<stop  offset="0.7137" style="stop-color:#42BB83"/>
	<stop  offset="0.9175" style="stop-color:#189B67"/>
	<stop  offset="1" style="stop-color:#058C5A"/>
</linearGradient>
<path class="st8" d="M-855.1-858.5h-13.7c0,11.3-9.2,20.5-20.5,20.5s-20.5-9.2-20.5-20.5h-13.7c0,18.8,15.3,34.1,34.1,34.1
	C-870.4-824.4-855.1-839.7-855.1-858.5z"/>
<linearGradient id="SVGID_11_" gradientUnits="userSpaceOnUse" x1="421.1" y1="212.3" x2="3.4" y2="212.3" gradientTransform="matrix(1 0 0 -1 0 424)">
	<stop  offset="0" style="stop-color:#8EF5B6"/>
	<stop  offset="0.1499" style="stop-color:#89F1B3"/>
	<stop  offset="0.326" style="stop-color:#7BE6A9"/>
	<stop  offset="0.5152" style="stop-color:#63D499"/>
	<stop  offset="0.7137" style="stop-color:#42BB83"/>
	<stop  offset="0.9175" style="stop-color:#189B67"/>
	<stop  offset="1" style="stop-color:#058C5A"/>
</linearGradient>
<path class="st9" d="M404.7,257.3l-45.6-18.2c-2.7-1.1-4.4-3.7-4.4-6.6v-22c12.2-10.9,19.9-26.7,19.9-44.3v-53.5
	c4.1-4.6,6.6-10.7,6.6-17.4V75.5c0-3.4-2.8-6.2-6.2-6.2h-79.7c-11.2,0-20.8,7.1-24.5,17.1c-16.4-14.7-38.1-23.7-61.8-23.7
	c-24.2,0-46.2,9.3-62.7,24.6C132.1,75.6,114.4,69.2,96,69.2c-43.7,0-79.3,35.6-79.3,79.3v79.7c0,3,2.1,5.6,5.1,6.1l40.7,7.4
	c-0.7,1.4-1.9,2.6-3.4,3.3l-40.5,18.7C9.4,268,3.4,277.4,3.4,287.5v33.8c0,3.4,2.8,6.2,6.2,6.2s6.2-2.8,6.2-6.2v-33.8
	c0-5.3,3.1-10.2,8-12.4l32.9-15.2l26,24.2c3.7,3.5,8.5,5.2,13.3,5.2s9.6-1.7,13.3-5.2l16.4-15.3l29.5,8.4l-39.5,18
	c-11.7,5.3-19.2,17-19.2,29.9v29.4c0,3.4,2.8,6.2,6.2,6.2c3.4,0,6.2-2.8,6.2-6.2v-29.4c0-8,4.7-15.2,11.9-18.5l26.3-11.9l44.5,27.8
	c5.3,3.3,11.3,5,17.4,5c6.1,0,12.1-1.7,17.4-5l44.5-27.8l26.3,11.9c7.2,3.3,11.9,10.6,11.9,18.5v29.4c0,3.4,2.8,6.2,6.2,6.2
	c3.4,0,6.2-2.8,6.2-6.2v-29.4c0-12.8-7.5-24.5-19.2-29.9l-39.5-18l28.3-8.1c7.4,3.4,15.8,5.2,24.2,5.2c18.2,0,35.1-8.3,44.6-21.5
	l40.2,16.1c5.2,2.1,8.6,7.1,8.6,12.7v39.7c0,3.4,2.8,6.2,6.2,6.2c3.4,0,6.2-2.8,6.2-6.2v-39.7C421.1,270.9,414.7,261.3,404.7,257.3z
	 M295.3,81.7h73.5v13.7c0,7.6-6.1,13.7-13.7,13.7h-39.9c-3.4,0-6.2,2.8-6.2,6.2c0,3.4,2.8,6.2,6.2,6.2h39.9c2.4,0,4.8-0.3,7.1-1
	v45.7c0,25.9-21.1,46.9-46.9,46.9c-4.7,0-9.3-0.7-13.7-2V189c4.2,2.4,8.9,3.7,13.7,3.7c6.2,0,12.1-2.1,17.1-6c2.7-2.1,3.2-6,1.1-8.7
	s-6-3.2-8.7-1.1c-2.8,2.2-6.1,3.4-9.4,3.4c-3.4,0-6.6-1.2-9.5-3.4c-1.3-1-2.8-1.4-4.3-1.3v-20.4c0-21.6-7.5-41.5-19.9-57.3
	c0-1.4,0-2.4,0-2.5C281.6,87.8,287.8,81.7,295.3,81.7z M209,75c44.2,0,80.1,36,80.1,80.1v101.6L249.8,268c-0.9-1.9-1.4-3.9-1.4-6.1
	v-12.5c20-13,33.2-35.5,33.2-61v-21c0-6.1-4.3-11.4-10.3-12.6c-8.5-1.7-24.9-5.9-39.3-14.4c-3-1.7-6.8-0.8-8.5,2.2s-0.8,6.8,2.2,8.5
	c15.9,9.4,33.8,14,43.1,15.9c0.2,0,0.4,0.2,0.4,0.4v21c0,33.2-27,60.2-60.2,60.2s-60.2-27-60.2-60.2v-21c0-0.2,0.2-0.4,0.4-0.4
	c13.8-2.8,47.8-11.9,64.8-34.6c2.1-2.8,1.5-6.6-1.2-8.7s-6.6-1.5-8.7,1.2c-4.8,6.4-20.1,22.2-57.4,29.9c-6,1.2-10.3,6.5-10.3,12.6
	v21c0,25.5,13.2,48.1,33.2,61v12.5c0,2.1-0.5,4.2-1.4,6.1l-39.3-11.2V155.2C128.8,111,164.8,75,209,75z M29.2,148.5
	c0-36.9,30-66.9,66.9-66.9c15.2,0,29.8,5.1,41.6,14.5c-8.9,10.8-15.5,23.7-18.8,37.7c-12.2-4.6-27.3-11.9-38.3-23
	c-2.4-2.4-6.4-2.4-8.8,0s-2.4,6.4,0,8.8c11,11,26.1,20,45.1,26.7c-0.3,2.9-0.4,5.8-0.4,8.7v55.6c-6.3,3-13.3,4.6-20.4,4.6
	c-25.9,0-46.9-21.1-46.9-46.9V154c0-1.9,0.7-3.7,2.1-5l9.4-9.4c2.4-2.4,2.4-6.4,0-8.8c-2.4-2.4-6.4-2.4-8.8,0l-9.4,9.4
	c-3.7,3.7-5.7,8.6-5.7,13.8v14.4c0,20.6,10.6,38.8,26.6,49.5v11.3L29.3,223v-74.5H29.2z M100.8,275c-2.7,2.5-6.9,2.5-9.6,0
	l-22.7-21.2c4.5-3.7,7.2-9.2,7.2-15.1v-14.4c6.4,2.3,13.2,3.6,20.4,3.6c7,0,13.9-1.2,20.4-3.6v36.3L100.8,275z M219.8,311.9
	c-6.6,4.1-15,4.1-21.6,0l-37.5-23.4l5.9-2.7c9.3-4.2,15.3-13.6,15.3-23.8v-6.1c8.3,3.4,17.5,5.2,27,5.2s18.6-1.9,27-5.2v6.1
	c0,10.2,6,19.6,15.3,23.8l5.9,2.7L219.8,311.9z M315.3,261.9c-4.7,0-9.3-0.7-13.7-2V224c4.5,1.1,9,1.6,13.7,1.6
	c9.7,0,18.9-2.4,27-6.5v13.4c0,5.7,2.4,10.8,6.4,14.5C341.2,256.2,328.7,261.9,315.3,261.9z"/>
<linearGradient id="SVGID_12_" gradientUnits="userSpaceOnUse" x1="115.5306" y1="233.6153" x2="76.5119" y2="233.6153" gradientTransform="matrix(1 0 0 -1 0 424)">
	<stop  offset="0" style="stop-color:#8EF5B6"/>
	<stop  offset="0.1499" style="stop-color:#89F1B3"/>
	<stop  offset="0.326" style="stop-color:#7BE6A9"/>
	<stop  offset="0.5152" style="stop-color:#63D499"/>
	<stop  offset="0.7137" style="stop-color:#42BB83"/>
	<stop  offset="0.9175" style="stop-color:#189B67"/>
	<stop  offset="1" style="stop-color:#058C5A"/>
</linearGradient>
<path class="st10" d="M79.3,193.6c4.9,3.2,10.7,5,16.7,5s11.8-1.7,16.7-5c2.9-1.9,3.7-5.7,1.8-8.6c-1.9-2.9-5.7-3.7-8.6-1.8
	s-6.3,2.9-9.9,2.9c-3.5,0-7-1-9.9-2.9s-6.7-1.1-8.6,1.8C75.6,187.9,76.4,191.7,79.3,193.6z"/>
<linearGradient id="SVGID_13_" gradientUnits="userSpaceOnUse" x1="228.7298" y1="205.75" x2="189.1671" y2="205.75" gradientTransform="matrix(1 0 0 -1 0 424)">
	<stop  offset="0" style="stop-color:#8EF5B6"/>
	<stop  offset="0.1499" style="stop-color:#89F1B3"/>
	<stop  offset="0.326" style="stop-color:#7BE6A9"/>
	<stop  offset="0.5152" style="stop-color:#63D499"/>
	<stop  offset="0.7137" style="stop-color:#42BB83"/>
	<stop  offset="0.9175" style="stop-color:#189B67"/>
	<stop  offset="1" style="stop-color:#058C5A"/>
</linearGradient>
<path class="st11" d="M189.8,210.1c-0.7,1-0.8,2.4-0.4,3.5c3.5,8.8,11.2,14.4,19.5,14.4c8.3,0,16-5.7,19.5-14.4
	c0.5-1.1,0.3-2.5-0.4-3.5c-0.7-1-1.9-1.6-3.1-1.6h-32.1C191.6,208.5,190.5,209.1,189.8,210.1z M218.4,216c-2.5,2.9-5.9,4.5-9.4,4.5
	c-3.6,0-6.9-1.6-9.4-4.5H218.4z"/>
<linearGradient id="SVGID_14_" gradientUnits="userSpaceOnUse" x1="195.2524" y1="252.25" x2="162.8556" y2="252.25" gradientTransform="matrix(1 0 0 -1 0 424)">
	<stop  offset="0" style="stop-color:#8EF5B6"/>
	<stop  offset="0.1499" style="stop-color:#89F1B3"/>
	<stop  offset="0.326" style="stop-color:#7BE6A9"/>
	<stop  offset="0.5152" style="stop-color:#63D499"/>
	<stop  offset="0.7137" style="stop-color:#42BB83"/>
	<stop  offset="0.9175" style="stop-color:#189B67"/>
	<stop  offset="1" style="stop-color:#058C5A"/>
</linearGradient>
<path class="st12" d="M183.2,177.3c0.9,2.5,3.3,4,5.8,4c0.7,0,1.5-0.1,2.2-0.4c3.2-1.2,4.8-4.8,3.6-8c-2.4-6.4-8.8-10.7-15.8-10.7
	s-13.4,4.3-15.8,10.7c-1.2,3.2,0.4,6.8,3.6,8c3.2,1.2,6.8-0.4,8-3.6c0.5-1.3,2-2.6,4.1-2.6C181.2,174.7,182.7,176,183.2,177.3z"/>
<linearGradient id="SVGID_15_" gradientUnits="userSpaceOnUse" x1="255.0435" y1="252.25" x2="222.6674" y2="252.25" gradientTransform="matrix(1 0 0 -1 0 424)">
	<stop  offset="0" style="stop-color:#8EF5B6"/>
	<stop  offset="0.1499" style="stop-color:#89F1B3"/>
	<stop  offset="0.326" style="stop-color:#7BE6A9"/>
	<stop  offset="0.5152" style="stop-color:#63D499"/>
	<stop  offset="0.7137" style="stop-color:#42BB83"/>
	<stop  offset="0.9175" style="stop-color:#189B67"/>
	<stop  offset="1" style="stop-color:#058C5A"/>
</linearGradient>
<path class="st13" d="M226.7,180.9c3.2,1.2,6.8-0.4,8-3.6c0.5-1.3,2-2.6,4.1-2.6c2.2,0,3.7,1.3,4.1,2.6c0.9,2.5,3.3,4,5.8,4
	c0.7,0,1.5-0.1,2.2-0.4c3.2-1.2,4.8-4.8,3.6-8c-2.4-6.4-8.8-10.7-15.8-10.7s-13.4,4.3-15.8,10.7
	C221.9,176.1,223.5,179.7,226.7,180.9z"/>
</svg>
