<?xml version="1.0" encoding="utf-8"?>
<!-- Generator: Adobe Illustrator 23.0.3, SVG Export Plug-In . SVG Version: 6.00 Build 0)  -->
<svg version="1.1" id="Layer_1" xmlns="http://www.w3.org/2000/svg" xmlns:xlink="http://www.w3.org/1999/xlink" x="0px" y="0px"
	 viewBox="0 0 28.8 28.9" style="enable-background:new 0 0 28.8 28.9;" xml:space="preserve">
<style type="text/css">
	.st0{fill:url(#SVGID_1_);}
	.st1{fill:url(#SVGID_2_);}
</style>
<g>
	<linearGradient id="SVGID_1_" gradientUnits="userSpaceOnUse" x1="0.3771" y1="23.9463" x2="28.3771" y2="23.9463">
		<stop  offset="0" style="stop-color:#1D976C"/>
		<stop  offset="1" style="stop-color:#93F9B9"/>
	</linearGradient>
	<path class="st0" d="M27.4,19.4c-0.6,0-1,0.4-1,1v5c0,0.6-0.4,1-1,1h-22c-0.6,0-1-0.4-1-1v-5c0-0.6-0.4-1-1-1s-1,0.4-1,1v5
		c0,1.7,1.3,3,3,3h22c1.7,0,3-1.3,3-3v-5C28.4,19.9,27.9,19.4,27.4,19.4z"/>
	<linearGradient id="SVGID_2_" gradientUnits="userSpaceOnUse" x1="6.4367" y1="11.9467" x2="22.3176" y2="11.9467">
		<stop  offset="0" style="stop-color:#1D976C"/>
		<stop  offset="1" style="stop-color:#93F9B9"/>
	</linearGradient>
	<path class="st1" d="M13.7,23.2c0.4,0.4,1,0.4,1.4,0l7-7c0.4-0.4,0.3-1.1-0.1-1.4c-0.4-0.3-0.9-0.3-1.3,0L15.4,20V1.4
		c0-0.6-0.4-1-1-1s-1,0.4-1,1V20l-5.3-5.3c-0.4-0.4-1.1-0.3-1.4,0.1c-0.3,0.4-0.3,0.9,0,1.3L13.7,23.2z"/>
</g>
</svg>
