<?xml version="1.0" encoding="utf-8"?>
<!-- Generator: Adobe Illustrator 23.0.3, SVG Export Plug-In . SVG Version: 6.00 Build 0)  -->
<svg version="1.1" id="Layer_1" xmlns="http://www.w3.org/2000/svg" xmlns:xlink="http://www.w3.org/1999/xlink" x="0px" y="0px"
	 viewBox="0 0 50 50" style="enable-background:new 0 0 50 50;" xml:space="preserve">
<style type="text/css">
	.st0{fill:url(#SVGID_1_);}
	.st1{fill:#FFFFFF;}
</style>
<linearGradient id="SVGID_1_" gradientUnits="userSpaceOnUse" x1="-1.774823e-06" y1="25" x2="66.5004" y2="25">
	<stop  offset="0" style="stop-color:#1D976C"/>
	<stop  offset="1" style="stop-color:#93F9B9"/>
</linearGradient>
<rect x="0" y="0" class="st0" width="50" height="50"/>
<g>
	<polygon class="st1" points="41.6,37.7 44.8,43.8 48,37.7 48,11.5 41.6,11.5 	"/>
	<path class="st1" d="M24.9,9.8V2H2.9C2.4,2,2,2.4,2,2.9v44.1C2,47.6,2.4,48,2.9,48h31.7c0.5,0,0.9-0.4,0.9-0.9V12.7h-7.8
		C26.2,12.7,24.9,11.4,24.9,9.8z"/>
	<path class="st1" d="M27.8,10.7h6.4l-7.3-7.3v6.4C26.9,10.3,27.3,10.7,27.8,10.7z"/>
	<path class="st1" d="M46.8,5.1h-4.1c-0.6,0-1.2,0.5-1.2,1.2v3.2H48V6.2C48,5.6,47.5,5.1,46.8,5.1z"/>
	<path class="st1" d="M0,0v50h50V0H0z M37.6,47.1c0,1.6-1.3,2.9-2.9,2.9H2.9C1.3,50,0,48.7,0,47.1V2.9C0,1.3,1.3,0,2.9,0h22.9
		c0,0,0,0,0.1,0c0.1,0,0.2,0,0.3,0.1c0,0,0.1,0,0.1,0c0.1,0,0.2,0.1,0.3,0.2c0,0,0,0,0,0L37.3,11c0,0,0,0,0,0
		c0.1,0.1,0.1,0.2,0.2,0.3c0,0,0,0.1,0,0.1c0,0.1,0,0.2,0.1,0.3c0,0,0,0,0,0.1V47.1z M50,38c0,0.2,0,0.3-0.1,0.5l-4.2,8
		c-0.2,0.3-0.5,0.5-0.9,0.5s-0.7-0.2-0.9-0.5l-4.2-8c-0.1-0.1-0.1-0.3-0.1-0.5V6.2c0-1.7,1.4-3.2,3.2-3.2h4.1c1.7,0,3.2,1.4,3.2,3.2
		V38z"/>
</g>
</svg>
