<?xml version="1.0" encoding="utf-8"?>
<!-- Generator: Adobe Illustrator 16.0.4, SVG Export Plug-In . SVG Version: 6.00 Build 0)  -->
<!DOCTYPE svg PUBLIC "-//W3C//DTD SVG 1.1//EN" "http://www.w3.org/Graphics/SVG/1.1/DTD/svg11.dtd">
<svg version="1.1" id="Layer_1" xmlns="http://www.w3.org/2000/svg" xmlns:xlink="http://www.w3.org/1999/xlink" x="0px" y="0px"
	 width="81.999px" height="90px" viewBox="0 0 81.999 90" enable-background="new 0 0 81.999 90" xml:space="preserve">
<g>
	<defs>
		<rect id="SVGID_1_" width="81.999" height="90"/>
	</defs>
	<clipPath id="SVGID_2_">
		<use xlink:href="#SVGID_1_"  overflow="visible"/>
	</clipPath>
	<path clip-path="url(#SVGID_2_)" fill="#D6D6D6" d="M71.999,0h-40c-5.51,0-10,4.49-10,10v2h-20c-0.78,0-1.48,0.45-1.81,1.15
		c-0.33,0.7-0.22,1.53,0.27,2.13l9.54,11.44V80c0,5.51,4.49,10,10,10h40c5.51,0,10-4.49,10-10v-2h2c5.51,0,10-4.49,10-10V10
		C81.999,4.49,77.509,0,71.999,0"/>
	<path clip-path="url(#SVGID_2_)" fill="#FFFFFF" d="M65.999,80c0,3.31-2.69,6-6,6h-40c-3.31,0-6-2.69-6-6V26
		c0-0.47-0.16-0.92-0.46-1.28L6.269,16h53.73c3.31,0,6,2.69,6,6V80z"/>
	<path clip-path="url(#SVGID_2_)" fill="#FFFFFF" d="M77.999,68c0,3.31-2.69,6-6,6h-2V22c0-5.51-4.49-10-10-10h-34v-2
		c0-3.31,2.69-6,6-6h40c3.31,0,6,2.69,6,6V68z"/>
	<path clip-path="url(#SVGID_2_)" fill="#95D29D" d="M57.999,41c0,1.1-0.9,2-2,2h-32c-1.1,0-2-0.9-2-2s0.9-2,2-2h32
		C57.099,39,57.999,39.9,57.999,41 M21.999,51c0-1.1,0.9-2,2-2h24c1.1,0,2,0.9,2,2s-0.9,2-2,2h-24C22.899,53,21.999,52.1,21.999,51
		 M53.999,61c0,1.1-0.9,2-2,2h-28c-1.1,0-2-0.9-2-2s0.9-2,2-2h28C53.099,59,53.999,59.9,53.999,61"/>
</g>
</svg>
