<?xml version="1.0" encoding="utf-8"?>
<!-- Generator: Adobe Illustrator 16.0.4, SVG Export Plug-In . SVG Version: 6.00 Build 0)  -->
<!DOCTYPE svg PUBLIC "-//W3C//DTD SVG 1.1//EN" "http://www.w3.org/Graphics/SVG/1.1/DTD/svg11.dtd">
<svg version="1.1" id="Layer_1" xmlns="http://www.w3.org/2000/svg" xmlns:xlink="http://www.w3.org/1999/xlink" x="0px" y="0px"
	 width="19.25px" height="19.25px" viewBox="0 0 19.25 19.25" enable-background="new 0 0 19.25 19.25" xml:space="preserve">
<g>
	<defs>
		<rect id="SVGID_1_" y="0" width="19.25" height="19.25"/>
	</defs>
	<clipPath id="SVGID_2_">
		<use xlink:href="#SVGID_1_"  overflow="visible"/>
	</clipPath>
	<path clip-path="url(#SVGID_2_)" fill="#699A73" d="M9.625,7C8.178,7,7,8.177,7,9.625c0,1.447,1.178,2.625,2.625,2.625
		c1.447,0,2.625-1.178,2.625-2.625C12.25,8.177,11.072,7,9.625,7 M9.625,11C8.867,11,8.25,10.383,8.25,9.625
		c0-0.759,0.617-1.375,1.375-1.375S11,8.866,11,9.625C11,10.383,10.383,11,9.625,11"/>
	<path clip-path="url(#SVGID_2_)" fill="#699A73" d="M0.625,9C0.28,9,0,9.28,0,9.625C0,9.97,0.28,10.25,0.625,10.25h1.4l0.042,0.328
		c0.437,3.452,3.154,6.168,6.605,6.605L9,17.225v1.399c0,0.345,0.28,0.625,0.625,0.625s0.625-0.28,0.625-0.625v-1.399l0.328-0.042
		c3.451-0.438,6.167-3.153,6.604-6.605l0.042-0.328h1.4c0.345,0,0.625-0.28,0.625-0.625C19.25,9.28,18.97,9,18.625,9h-1.4
		l-0.042-0.328c-0.438-3.451-3.153-6.168-6.604-6.605L10.25,2.025v-1.4C10.25,0.28,9.97,0,9.625,0S9,0.28,9,0.625v1.4L8.672,2.067
		C5.221,2.504,2.504,5.221,2.067,8.672L2.025,9H0.625z M10.25,15.979v-1.354C10.25,14.28,9.97,14,9.625,14S9,14.28,9,14.625v1.354
		l-0.438-0.074c-2.667-0.453-4.764-2.55-5.217-5.217L3.271,10.25h1.354c0.345,0,0.625-0.28,0.625-0.625C5.25,9.28,4.97,9,4.625,9
		H3.271l0.074-0.438c0.453-2.667,2.55-4.764,5.217-5.217L9,3.271v1.354C9,4.97,9.28,5.25,9.625,5.25s0.625-0.28,0.625-0.625V3.271
		l0.437,0.074c2.669,0.453,4.765,2.55,5.218,5.217L15.979,9h-1.354C14.28,9,14,9.28,14,9.625c0,0.345,0.28,0.625,0.625,0.625h1.354
		l-0.074,0.438c-0.453,2.667-2.549,4.764-5.218,5.217L10.25,15.979z"/>
</g>
</svg>
