<?xml version="1.0" encoding="utf-8"?>
<!-- Generator: Adobe Illustrator 16.0.4, SVG Export Plug-In . SVG Version: 6.00 Build 0)  -->
<!DOCTYPE svg PUBLIC "-//W3C//DTD SVG 1.1//EN" "http://www.w3.org/Graphics/SVG/1.1/DTD/svg11.dtd">
<svg version="1.1" id="Layer_1" xmlns="http://www.w3.org/2000/svg" xmlns:xlink="http://www.w3.org/1999/xlink" x="0px" y="0px"
	 width="17px" height="17px" viewBox="0 0 17 17" enable-background="new 0 0 17 17" xml:space="preserve">
<g>
	<defs>
		<rect id="SVGID_1_" width="17" height="17"/>
	</defs>
	<clipPath id="SVGID_2_">
		<use xlink:href="#SVGID_1_"  overflow="visible"/>
	</clipPath>
	<path clip-path="url(#SVGID_2_)" fill="#D6D6D6" d="M4.027,9C4.258,11.085,5.915,12.742,8,12.973V11.5C8,11.224,8.224,11,8.5,11
		S9,11.224,9,11.5v1.473c2.086-0.23,3.742-1.888,3.973-3.973H11.5C11.224,9,11,8.776,11,8.5S11.224,8,11.5,8h1.473
		C12.742,5.915,11.086,4.258,9,4.027V5.5C9,5.776,8.776,6,8.5,6S8,5.776,8,5.5V4.027C5.915,4.258,4.258,5.915,4.027,8H5.5
		C5.776,8,6,8.224,6,8.5S5.776,9,5.5,9H4.027z M3.022,9H2.5C2.224,9,2,8.776,2,8.5S2.224,8,2.5,8h0.522
		C3.26,5.362,5.362,3.26,8,3.022V2.5C8,2.224,8.224,2,8.5,2S9,2.224,9,2.5v0.522C11.639,3.26,13.739,5.362,13.978,8H14.5
		C14.776,8,15,8.224,15,8.5S14.776,9,14.5,9h-0.522c-0.238,2.638-2.339,4.739-4.978,4.978V14.5C9,14.776,8.776,15,8.5,15
		S8,14.776,8,14.5v-0.522C5.362,13.739,3.26,11.638,3.022,9 M4.5,17C2.015,17,0,14.985,0,12.5v-8C0,2.015,2.015,0,4.5,0h8
		C14.985,0,17,2.015,17,4.5v8c0,2.485-2.015,4.5-4.5,4.5H4.5z M4.5,16h8c1.933,0,3.5-1.567,3.5-3.5v-8C16,2.567,14.433,1,12.5,1h-8
		C2.567,1,1,2.567,1,4.5v8C1,14.433,2.567,16,4.5,16"/>
	<path clip-path="url(#SVGID_2_)" fill="#95D29D" d="M10,8.5C10,9.328,9.328,10,8.5,10S7,9.328,7,8.5S7.672,7,8.5,7S10,7.672,10,8.5
		"/>
	<path clip-path="url(#SVGID_2_)" fill="#FFFFFF" d="M9,8.5C9,8.224,8.776,8,8.5,8S8,8.224,8,8.5S8.224,9,8.5,9S9,8.776,9,8.5"/>
</g>
</svg>
