<?xml version="1.0" encoding="utf-8"?>
<!-- Generator: Adobe Illustrator 23.0.3, SVG Export Plug-In . SVG Version: 6.00 Build 0)  -->
<svg version="1.1" id="Layer_1" xmlns="http://www.w3.org/2000/svg" xmlns:xlink="http://www.w3.org/1999/xlink" x="0px" y="0px"
	 viewBox="0 0 84 98" style="enable-background:new 0 0 84 98;" xml:space="preserve">
<style type="text/css">
	.st0{fill:url(#SVGID_1_);}
</style>
<g transform="translate(0,-952.36218)">
	<linearGradient id="SVGID_1_" gradientUnits="userSpaceOnUse" x1="0" y1="1001.3622" x2="84" y2="1001.3622">
		<stop  offset="0" style="stop-color:#1D976C"/>
		<stop  offset="1" style="stop-color:#93F9B9"/>
	</linearGradient>
	<path class="st0" d="M42,952.4c-1.1,0-2,0.9-2,2v8c0,1.1,0.9,2,2,2c1.1,0,2-0.9,2-2v-8C44,953.3,43.1,952.4,42,952.4z M13.7,964.1
		c-0.5,0-1,0.2-1.4,0.6c-0.8,0.8-0.8,2,0,2.8l5.7,5.7c0.8,0.8,2,0.8,2.8,0c0.8-0.8,0.8-2,0-2.8l-5.7-5.7
		C14.7,964.3,14.2,964.1,13.7,964.1z M70.3,964.1c-0.5,0-1,0.2-1.4,0.6l-5.7,5.7c-0.8,0.8-0.8,2,0,2.8c0.8,0.8,2,0.8,2.8,0l5.7-5.7
		c0.8-0.8,0.8-2,0-2.8C71.3,964.3,70.8,964.1,70.3,964.1z M42,968.4c-13.2,0-26,10.3-26,24.8c0,9.2,3.6,15,6.9,19.7
		c3.3,4.7,6.1,8.1,6.1,13.5v12c0,3.4,2.8,6,6,6h1c0,3.3,2.7,6,6,6s6-2.7,6-6h1c3.2,0,6-2.6,6-6v-12c0-5.4,2.8-8.8,6.1-13.5
		s6.9-10.5,6.9-19.7C68,978.6,55.2,968.4,42,968.4z M42,972.4c11.2,0,22,8.6,22,20.8c0,8.2-2.9,12.8-6.1,17.4
		c-2.9,4.1-6.1,8.1-6.8,13.8H32.9c-0.6-5.7-3.9-9.7-6.8-13.8c-3.2-4.5-6.1-9.2-6.1-17.4C20,981,30.8,972.4,42,972.4z M36.1,976.5
		c-0.3,0-0.6,0-0.8,0.1c-6.2,2.3-10.8,7.8-12,14.4c-0.2,1,0.6,2.2,1.6,2.3c1,0.2,2.1-0.6,2.3-1.6c0.9-5.3,4.6-9.6,9.5-11.4
		c0.9-0.3,1.4-1.3,1.3-2.2C37.7,976.9,36.9,976.5,36.1,976.5z M2,992.4c-1.1,0-2,0.9-2,2s0.9,2,2,2h8c1.1,0,2-0.9,2-2s-0.9-2-2-2H2z
		 M74,992.4c-1.1,0-2,0.9-2,2s0.9,2,2,2h8c1.1,0,2-0.9,2-2s-0.9-2-2-2H74z M33,1028.4h18v4H33V1028.4z M33,1036.4h18v2
		c0,1.2-1,2-2,2H35c-1,0-2-0.8-2-2V1036.4z M40,1044.4h4c0,1.1-0.9,2-2,2S40,1045.5,40,1044.4z"/>
</g>
</svg>
