<?xml version="1.0" encoding="utf-8"?>
<!-- Generator: Adobe Illustrator 22.0.1, SVG Export Plug-In . SVG Version: 6.00 Build 0)  -->
<svg version="1.1" id="Capa_1" xmlns="http://www.w3.org/2000/svg" xmlns:xlink="http://www.w3.org/1999/xlink" x="0px" y="0px"
	 viewBox="0 0 424.2 424.2" style="enable-background:new 0 0 424.2 424.2;" xml:space="preserve">
<style type="text/css">
	.st0{fill:url(#SVGID_1_);}
	.st1{fill:url(#SVGID_2_);}
	.st2{fill:url(#SVGID_3_);}
	.st3{fill:url(#SVGID_4_);stroke:url(#SVGID_5_);stroke-miterlimit:10;}
	.st4{fill:url(#SVGID_6_);}
	.st5{fill:url(#SVGID_7_);}
	.st6{fill:url(#SVGID_8_);}
	.st7{fill:url(#SVGID_9_);}
	.st8{fill:url(#SVGID_10_);}
</style>
<g>
	<linearGradient id="SVGID_1_" gradientUnits="userSpaceOnUse" x1="-1402.6713" y1="-433.3678" x2="-1450.6648" y2="-433.3678">
		<stop  offset="0" style="stop-color:#8EF5B6"/>
		<stop  offset="0.1499" style="stop-color:#89F1B3"/>
		<stop  offset="0.326" style="stop-color:#7BE6A9"/>
		<stop  offset="0.5152" style="stop-color:#63D499"/>
		<stop  offset="0.7137" style="stop-color:#42BB83"/>
		<stop  offset="0.9175" style="stop-color:#189B67"/>
		<stop  offset="1" style="stop-color:#058C5A"/>
	</linearGradient>
	<path class="st0" d="M-1426.7-428.7c3.9,0,7.6,1.5,10.3,4.3c1.6,1.6,3.6,2.3,5.7,2.3c2,0,4.1-0.8,5.7-2.3c3.1-3.1,3.1-8.2,0-11.3
		c-5.8-5.8-13.5-9-21.7-9c-8.2,0-15.9,3.2-21.7,9c-3.1,3.1-3.1,8.2,0,11.3s8.2,3.1,11.3,0C-1434.2-427.2-1430.6-428.7-1426.7-428.7z
		"/>
	<linearGradient id="SVGID_2_" gradientUnits="userSpaceOnUse" x1="-1237.0072" y1="-433.3608" x2="-1285.0017" y2="-433.3608">
		<stop  offset="0" style="stop-color:#8EF5B6"/>
		<stop  offset="0.1499" style="stop-color:#89F1B3"/>
		<stop  offset="0.326" style="stop-color:#7BE6A9"/>
		<stop  offset="0.5152" style="stop-color:#63D499"/>
		<stop  offset="0.7137" style="stop-color:#42BB83"/>
		<stop  offset="0.9175" style="stop-color:#189B67"/>
		<stop  offset="1" style="stop-color:#058C5A"/>
	</linearGradient>
	<path class="st1" d="M-1282.7-435.7c-3.1,3.1-3.1,8.2,0,11.3c3.1,3.1,8.2,3.1,11.3,0c5.7-5.7,15-5.7,20.7,0
		c1.6,1.6,3.6,2.3,5.7,2.3c2,0,4.1-0.8,5.7-2.3c3.1-3.1,3.1-8.2,0-11.3C-1251.3-447.7-1270.7-447.7-1282.7-435.7z"/>
	<linearGradient id="SVGID_3_" gradientUnits="userSpaceOnUse" x1="-1247.3903" y1="-332.8485" x2="-1440.2827" y2="-332.8485">
		<stop  offset="0" style="stop-color:#8EF5B6"/>
		<stop  offset="0.1499" style="stop-color:#89F1B3"/>
		<stop  offset="0.326" style="stop-color:#7BE6A9"/>
		<stop  offset="0.5152" style="stop-color:#63D499"/>
		<stop  offset="0.7137" style="stop-color:#42BB83"/>
		<stop  offset="0.9175" style="stop-color:#189B67"/>
		<stop  offset="1" style="stop-color:#058C5A"/>
	</linearGradient>
	<path class="st2" d="M-1261-356.8c-45.7,45.6-119.9,45.6-165.6,0c-3.1-3.1-8.2-3.1-11.3,0c-3.1,3.1-3.1,8.2,0,11.3
		c25.9,25.9,60,38.9,94.1,38.9c34.1,0,68.2-13,94.1-38.9c3.1-3.1,3.1-8.2,0-11.3C-1252.9-359.9-1257.9-359.9-1261-356.8z"/>
	<linearGradient id="SVGID_4_" gradientUnits="userSpaceOnUse" x1="-1155.075" y1="-462.1191" x2="-1532.599" y2="-462.1191">
		<stop  offset="0" style="stop-color:#8EF5B6"/>
		<stop  offset="0.1499" style="stop-color:#89F1B3"/>
		<stop  offset="0.326" style="stop-color:#7BE6A9"/>
		<stop  offset="0.5152" style="stop-color:#63D499"/>
		<stop  offset="0.7137" style="stop-color:#42BB83"/>
		<stop  offset="0.9175" style="stop-color:#189B67"/>
		<stop  offset="1" style="stop-color:#058C5A"/>
	</linearGradient>
	<linearGradient id="SVGID_5_" gradientUnits="userSpaceOnUse" x1="-1154.575" y1="-462.1191" x2="-1533.099" y2="-462.1191">
		<stop  offset="0" style="stop-color:#8EF5B6"/>
		<stop  offset="0.1499" style="stop-color:#89F1B3"/>
		<stop  offset="0.326" style="stop-color:#7BE6A9"/>
		<stop  offset="0.5152" style="stop-color:#63D499"/>
		<stop  offset="0.7137" style="stop-color:#42BB83"/>
		<stop  offset="0.9175" style="stop-color:#189B67"/>
		<stop  offset="1" style="stop-color:#058C5A"/>
	</linearGradient>
	<path class="st3" d="M-1155.1-420.1c0-21.7-15.7-39.9-36.4-43.6v-133.8c0-17.4-8.6-33.5-23.1-43.1c-13.6-9-30.5-11.1-45.7-5.7
		l-50.2-17c-38.6-13.1-79.2-14.4-117.5-3.9c-50.1,13.8-78.8,43-83.2,84.6c-3.9,5.2-7,11-9.2,17.3l-3.9,11.5
		c-2.1,6.2,0.2,12.7,5.7,16.2c5.5,3.5,12.4,2.8,17.1-1.8c1.6-1.6,3.4-2.9,5.2-4v79.7c-20.7,3.8-36.4,21.9-36.4,43.6
		c0,22.6,17,41.3,38.9,44c5.5,30.3,19.9,58.3,42,80.7c28.8,29.2,67.1,45.3,107.9,45.3c0,0,0,0,0,0c40.7,0,79-15.9,107.7-44.6
		c22.5-22.5,37.1-50.7,42.4-81.4C-1171.9-378.9-1155.1-397.5-1155.1-420.1z M-1223.4-627.2c10.1,6.7,16,17.6,16,29.7v104.7
		c-24.8-3.9-43.9-25.4-43.9-51.3l-0.7-88C-1242.2-634.6-1232-633-1223.4-627.2z M-1506.8-555.6l1.6-4.6
		c4.1-12.1,13.1-21.8,24.8-26.8c11.7-5,25-4.8,36.6,0.6c24.2,11.3,53.5,5.2,71.2-14.8l2-2.2c2.9-3.3,2.6-8.4-0.7-11.3
		c-3.3-2.9-8.4-2.6-11.3,0.7l-2,2.2c-13,14.8-34.6,19.2-52.5,10.9c-15.7-7.3-33.7-7.6-49.6-0.8c-1.4,0.6-2.8,1.3-4.2,2
		c9.3-24.8,31.8-42.2,67.2-52c35.2-9.7,72.5-8.5,108.1,3.6l47.6,16.2l0.6,41.3c-21.2,28.8-52.1,48.3-87.4,55.1
		c-36.1,6.9-72.9-0.4-103.7-20.5C-1473.4-565.9-1492.4-565.5-1506.8-555.6z M-1516.6-420.1c0-12.9,8.6-23.7,20.4-27.2v43.4
		c0,3.7,0.1,7.5,0.4,11.2C-1507.8-396.1-1516.6-407.1-1516.6-420.1z M-1247.4-305.9c-25.8,25.8-60,39.9-96.4,39.9c0,0,0,0,0,0
		c-36.4,0-70.7-14.4-96.5-40.6c-25.7-26.1-39.9-60.7-39.9-97.3v-143.2c4.5,0.3,9,1.8,13.1,4.4c34.2,22.3,75.2,30.4,115.4,22.8
		c32.6-6.2,61.9-22.3,84.4-45.9v21.7c0,34.7,26.2,63.4,59.9,67.4v74.3C-1207.4-366-1221.6-331.7-1247.4-305.9z M-1191.8-392.8
		c0.2-3.2,0.3-6.4,0.3-9.6v-44.9c11.8,3.5,20.4,14.3,20.4,27.2C-1171.1-407.1-1179.8-396.1-1191.8-392.8z"/>
</g>
<path d="M136.9,81.9l2.9,3.7l1.3,1.6L136.9,81.9z"/>
<linearGradient id="SVGID_6_" gradientUnits="userSpaceOnUse" x1="197.0376" y1="65.7044" x2="146.9026" y2="65.7044">
	<stop  offset="0" style="stop-color:#8EF5B6"/>
	<stop  offset="0.1499" style="stop-color:#89F1B3"/>
	<stop  offset="0.326" style="stop-color:#7BE6A9"/>
	<stop  offset="0.5152" style="stop-color:#63D499"/>
	<stop  offset="0.7137" style="stop-color:#42BB83"/>
	<stop  offset="0.9175" style="stop-color:#189B67"/>
	<stop  offset="1" style="stop-color:#058C5A"/>
</linearGradient>
<path class="st4" d="M197,66.8V53.1c-17.5,0-34.9,4.6-50.1,13.3l6.8,11.9C166.9,70.8,181.9,66.8,197,66.8z"/>
<linearGradient id="SVGID_7_" gradientUnits="userSpaceOnUse" x1="380.9747" y1="211.6195" x2="26" y2="211.6195">
	<stop  offset="0" style="stop-color:#8EF5B6"/>
	<stop  offset="0.1499" style="stop-color:#89F1B3"/>
	<stop  offset="0.326" style="stop-color:#7BE6A9"/>
	<stop  offset="0.5152" style="stop-color:#63D499"/>
	<stop  offset="0.7137" style="stop-color:#42BB83"/>
	<stop  offset="0.9175" style="stop-color:#189B67"/>
	<stop  offset="1" style="stop-color:#058C5A"/>
</linearGradient>
<path class="st5" d="M342.6,293.9l-98.1-19.6V262c20.8-12.1,35.8-33.1,39.8-57.8c16.1-2.7,28.5-16.7,28.5-33.6V96.4
	c0-18.6-11.9-34.9-29.4-40.7l-0.3-0.6C266,21.1,231.9,0,193.9,0C139,0,94.3,44.7,94.3,99.6v71c0,16.9,12.3,30.8,28.5,33.6
	c4,24.7,19,45.7,39.8,57.8v12.3l-98.1,19.6C42.2,298.4,26,318.1,26,340.8v82.5h355v-82.5C381,318.1,364.8,298.4,342.6,293.9z
	 M250.4,289.4l-10.2,40.9l-26-17.3l25.7-25.7L250.4,289.4z M188.7,391.4l31.9,10.6l1.7,7.6h-37.6L188.7,391.4z M191.7,378l3.6-16.2
	h16.3l5.5,24.7L191.7,378z M211.8,348.1h-16.6l-4.4-17.5l12.7-8.5l12.7,8.5L211.8,348.1z M285.4,189.9v-38.4
	c7.9,2.8,13.7,10.3,13.7,19.2C299.1,179.6,293.3,187.1,285.4,189.9z M107.9,170.7c0-8.9,5.7-16.4,13.7-19.2l0,38.5
	C113.6,187.1,107.9,179.5,107.9,170.7z M121.6,99.4v1.4c0,0.5,0,1.1,0,1.6l0,34.8c-5.1,1-9.7,3.3-13.7,6.3V99.6
	c0-47.4,38.6-86,86-86c32.8,0,62.2,18.2,76.9,47.5l3.1,6.1l3,0.8c13,3.3,22.1,14.9,22.1,28.3v47.1c-4-3-8.6-5.3-13.7-6.3v-7.5
	c0-10.3-3.4-20.5-9.6-28.7c-9-12-23.3-19.1-38.2-19.1c-10,0-20,2.4-28.9,6.8l-51.4,25.7c-2.1,1-4.5,1.6-6.8,1.6
	c-8.4,0-15.3-6.8-15.3-15.3v-1.4c0-4.7,2.1-9,5.9-12.1l-1.3-1.7l-7.4-8.9C125.5,82.3,121.6,90.5,121.6,99.4z M135.2,191.1v-65.8
	c8,5,19.2,5.8,28.2,1.3l51.4-25.7c7-3.5,14.9-5.4,22.8-5.4c10.7,0,20.9,5.1,27.3,13.7c4.4,5.9,6.8,13.1,6.8,20.5v61.4
	c0,37.6-30.6,68.3-68.3,68.3S135.2,228.8,135.2,191.1z M203.5,273.1c9.6,0,18.8-1.7,27.3-4.8v8.8l-27.3,27.3l-27.3-27.3v-8.8
	C184.7,271.3,193.9,273.1,203.5,273.1z M167.1,287.3l25.7,25.7l-26,17.3l-10.2-40.9L167.1,287.3z M39.7,340.8
	c0-16.2,11.5-30.3,27.4-33.5l76.1-15.2l15.1,60.3l20.5-13.7l4.1,16.3l-12.1,54.5h-62.8v-68.3H94.3v68.3H39.7V340.8z M367.3,409.6
	h-54.6v-68.3h-13.7v68.3h-62.8l-12.1-54.5l4.1-16.3l20.5,13.7l15.1-60.3l76.1,15.2c15.9,3.2,27.4,17.3,27.4,33.5V409.6z"/>
<linearGradient id="SVGID_8_" gradientUnits="userSpaceOnUse" x1="251.2724" y1="150.1816" x2="237.6195" y2="150.1816">
	<stop  offset="0" style="stop-color:#8EF5B6"/>
	<stop  offset="0.1499" style="stop-color:#89F1B3"/>
	<stop  offset="0.326" style="stop-color:#7BE6A9"/>
	<stop  offset="0.5152" style="stop-color:#63D499"/>
	<stop  offset="0.7137" style="stop-color:#42BB83"/>
	<stop  offset="0.9175" style="stop-color:#189B67"/>
	<stop  offset="1" style="stop-color:#058C5A"/>
</linearGradient>
<path class="st6" d="M251.3,150.2c0,3.8-3.1,6.8-6.8,6.8c-3.8,0-6.8-3.1-6.8-6.8c0-3.8,3.1-6.8,6.8-6.8
	C248.2,143.4,251.3,146.4,251.3,150.2z"/>
<linearGradient id="SVGID_9_" gradientUnits="userSpaceOnUse" x1="169.3551" y1="150.1816" x2="155.7023" y2="150.1816">
	<stop  offset="0" style="stop-color:#8EF5B6"/>
	<stop  offset="0.1499" style="stop-color:#89F1B3"/>
	<stop  offset="0.326" style="stop-color:#7BE6A9"/>
	<stop  offset="0.5152" style="stop-color:#63D499"/>
	<stop  offset="0.7137" style="stop-color:#42BB83"/>
	<stop  offset="0.9175" style="stop-color:#189B67"/>
	<stop  offset="1" style="stop-color:#058C5A"/>
</linearGradient>
<path class="st7" d="M169.4,150.2c0,3.8-3.1,6.8-6.8,6.8c-3.8,0-6.8-3.1-6.8-6.8c0-3.8,3.1-6.8,6.8-6.8
	C166.3,143.4,169.4,146.4,169.4,150.2z"/>
<linearGradient id="SVGID_10_" gradientUnits="userSpaceOnUse" x1="237.6195" y1="215.0327" x2="169.3551" y2="215.0327">
	<stop  offset="0" style="stop-color:#8EF5B6"/>
	<stop  offset="0.1499" style="stop-color:#89F1B3"/>
	<stop  offset="0.326" style="stop-color:#7BE6A9"/>
	<stop  offset="0.5152" style="stop-color:#63D499"/>
	<stop  offset="0.7137" style="stop-color:#42BB83"/>
	<stop  offset="0.9175" style="stop-color:#189B67"/>
	<stop  offset="1" style="stop-color:#058C5A"/>
</linearGradient>
<path class="st8" d="M237.6,198H224c0,11.3-9.2,20.5-20.5,20.5c-11.3,0-20.5-9.2-20.5-20.5h-13.7c0,18.8,15.3,34.1,34.1,34.1
	S237.6,216.8,237.6,198z"/>
</svg>
