<?xml version="1.0" encoding="utf-8"?>
<!-- Generator: Adobe Illustrator 23.0.3, SVG Export Plug-In . SVG Version: 6.00 Build 0)  -->
<svg version="1.1" id="Layer_1" xmlns="http://www.w3.org/2000/svg" xmlns:xlink="http://www.w3.org/1999/xlink" x="0px" y="0px"
	 viewBox="0 0 20.5 24.6" style="enable-background:new 0 0 20.5 24.6;" xml:space="preserve">
<style type="text/css">
	.st0{fill:url(#SVGID_1_);}
	.st1{fill:url(#SVGID_2_);}
	.st2{fill:url(#SVGID_3_);}
	.st3{fill:url(#SVGID_4_);}
</style>
<g>
	<linearGradient id="SVGID_1_" gradientUnits="userSpaceOnUse" x1="6.5826" y1="12.8528" x2="13.9966" y2="12.8528">
		<stop  offset="0" style="stop-color:#1D976C"/>
		<stop  offset="1" style="stop-color:#93F9B9"/>
	</linearGradient>
	<polygon class="st0" points="7.3,12.3 6.6,13 9.9,16.4 10.6,16.4 14,13 13.3,12.3 10.8,14.8 10.8,9.3 9.8,9.3 9.8,14.8 	"/>
	<linearGradient id="SVGID_2_" gradientUnits="userSpaceOnUse" x1="6.2896" y1="18.8258" x2="14.2896" y2="18.8258">
		<stop  offset="0" style="stop-color:#1D976C"/>
		<stop  offset="1" style="stop-color:#93F9B9"/>
	</linearGradient>
	<rect x="6.3" y="18.3" class="st1" width="8" height="1"/>
	<linearGradient id="SVGID_3_" gradientUnits="userSpaceOnUse" x1="2.2896" y1="4.8258" x2="7.2896" y2="4.8258">
		<stop  offset="0" style="stop-color:#1D976C"/>
		<stop  offset="1" style="stop-color:#93F9B9"/>
	</linearGradient>
	<path class="st2" d="M7.3,5.8V2.3h-1v3.5c0,0.3-0.2,0.5-0.5,0.5H2.3v1h3.5C6.6,7.3,7.3,6.7,7.3,5.8z"/>
	<linearGradient id="SVGID_4_" gradientUnits="userSpaceOnUse" x1="0.2896" y1="12.3258" x2="20.2896" y2="12.3258">
		<stop  offset="0" style="stop-color:#1D976C"/>
		<stop  offset="1" style="stop-color:#93F9B9"/>
	</linearGradient>
	<path class="st3" d="M18.3,0.3H5.8L5.4,0.5l-5,5L0.3,5.8v16.5c0,1.1,0.9,2,2,2h16c1.1,0,2-0.9,2-2v-20C20.3,1.2,19.4,0.3,18.3,0.3z
		 M19.3,22.3c0,0.6-0.4,1-1,1h-16c-0.6,0-1-0.4-1-1V6L6,1.3h12.3c0.6,0,1,0.4,1,1V22.3z"/>
</g>
</svg>
