<?xml version="1.0" encoding="utf-8"?>
<!-- Generator: Adobe Illustrator 22.0.1, SVG Export Plug-In . SVG Version: 6.00 Build 0)  -->
<svg version="1.1" id="Capa_1" xmlns="http://www.w3.org/2000/svg" xmlns:xlink="http://www.w3.org/1999/xlink" x="0px" y="0px"
	 viewBox="0 0 424.2 424.2" style="enable-background:new 0 0 424.2 424.2;" xml:space="preserve">
<style type="text/css">
	.st0{fill:url(#SVGID_1_);}
	.st1{fill:url(#SVGID_2_);}
	.st2{fill:url(#SVGID_3_);}
	.st3{fill:url(#SVGID_4_);stroke:url(#SVGID_5_);stroke-miterlimit:10;}
	.st4{fill:url(#SVGID_6_);}
	.st5{fill:url(#SVGID_7_);}
	.st6{fill:url(#SVGID_8_);}
	.st7{fill:url(#SVGID_9_);}
	.st8{fill:url(#SVGID_10_);}
	.st9{fill:url(#SVGID_11_);}
	.st10{fill:url(#SVGID_12_);}
	.st11{fill:url(#SVGID_13_);}
	.st12{fill:url(#SVGID_14_);}
	.st13{fill:url(#SVGID_15_);}
	.st14{fill:url(#SVGID_16_);}
	.st15{fill:url(#SVGID_17_);}
	.st16{fill:url(#SVGID_18_);}
	.st17{fill:url(#SVGID_19_);}
	.st18{fill:url(#SVGID_20_);}
	.st19{fill:url(#SVGID_21_);}
	.st20{fill:url(#SVGID_22_);}
	.st21{fill:url(#SVGID_23_);}
	.st22{fill:url(#SVGID_24_);}
	.st23{fill:url(#SVGID_25_);}
	.st24{fill:url(#SVGID_26_);}
	.st25{fill:url(#SVGID_27_);}
	.st26{fill:url(#SVGID_28_);}
	.st27{fill:url(#SVGID_29_);}
	.st28{fill:url(#SVGID_30_);}
	.st29{fill:url(#SVGID_31_);}
	.st30{fill:url(#SVGID_32_);}
	.st31{fill:none;stroke:url(#SVGID_33_);stroke-width:19;stroke-miterlimit:10;}
	.st32{fill:none;stroke:url(#SVGID_34_);stroke-width:19;stroke-miterlimit:10;}
	.st33{fill:url(#SVGID_35_);}
	.st34{fill:#95D29D;}
	.st35{fill:#161616;}
	.st36{fill:#00A04A;}
	.st37{fill:none;stroke:#FFFFFF;stroke-width:10;stroke-miterlimit:10;}
	.st38{fill:#FFFFFF;}
</style>
<g>
	
		<linearGradient id="SVGID_1_" gradientUnits="userSpaceOnUse" x1="-1408.825" y1="-1134.6875" x2="-1456.8185" y2="-1134.6875" gradientTransform="matrix(1 0 0 1 0 64)">
		<stop  offset="0" style="stop-color:#8EF5B6"/>
		<stop  offset="0.1499" style="stop-color:#89F1B3"/>
		<stop  offset="0.326" style="stop-color:#7BE6A9"/>
		<stop  offset="0.5152" style="stop-color:#63D499"/>
		<stop  offset="0.7137" style="stop-color:#42BB83"/>
		<stop  offset="0.9175" style="stop-color:#189B67"/>
		<stop  offset="1" style="stop-color:#058C5A"/>
	</linearGradient>
	<path class="st0" d="M-1432.8-1066c3.9,0,7.6,1.5,10.3,4.3c1.6,1.6,3.6,2.3,5.7,2.3c2,0,4.1-0.8,5.7-2.3c3.1-3.1,3.1-8.2,0-11.3
		c-5.8-5.8-13.5-9-21.7-9s-15.9,3.2-21.7,9c-3.1,3.1-3.1,8.2,0,11.3s8.2,3.1,11.3,0C-1440.3-1064.5-1436.7-1066-1432.8-1066z"/>
	
		<linearGradient id="SVGID_2_" gradientUnits="userSpaceOnUse" x1="-1243.125" y1="-1134.6875" x2="-1291.1195" y2="-1134.6875" gradientTransform="matrix(1 0 0 1 0 64)">
		<stop  offset="0" style="stop-color:#8EF5B6"/>
		<stop  offset="0.1499" style="stop-color:#89F1B3"/>
		<stop  offset="0.326" style="stop-color:#7BE6A9"/>
		<stop  offset="0.5152" style="stop-color:#63D499"/>
		<stop  offset="0.7137" style="stop-color:#42BB83"/>
		<stop  offset="0.9175" style="stop-color:#189B67"/>
		<stop  offset="1" style="stop-color:#058C5A"/>
	</linearGradient>
	<path class="st1" d="M-1288.8-1073c-3.1,3.1-3.1,8.2,0,11.3s8.2,3.1,11.3,0c5.7-5.7,15-5.7,20.7,0c1.6,1.6,3.6,2.3,5.7,2.3
		c2,0,4.1-0.8,5.7-2.3c3.1-3.1,3.1-8.2,0-11.3C-1257.4-1085-1276.8-1085-1288.8-1073z"/>
	
		<linearGradient id="SVGID_3_" gradientUnits="userSpaceOnUse" x1="-1253.4751" y1="-1034.1625" x2="-1446.325" y2="-1034.1625" gradientTransform="matrix(1 0 0 1 0 64)">
		<stop  offset="0" style="stop-color:#8EF5B6"/>
		<stop  offset="0.1499" style="stop-color:#89F1B3"/>
		<stop  offset="0.326" style="stop-color:#7BE6A9"/>
		<stop  offset="0.5152" style="stop-color:#63D499"/>
		<stop  offset="0.7137" style="stop-color:#42BB83"/>
		<stop  offset="0.9175" style="stop-color:#189B67"/>
		<stop  offset="1" style="stop-color:#058C5A"/>
	</linearGradient>
	<path class="st2" d="M-1267.1-994.1c-45.7,45.6-119.9,45.6-165.6,0c-3.1-3.1-8.2-3.1-11.3,0c-3.1,3.1-3.1,8.2,0,11.3
		c25.9,25.9,60,38.9,94.1,38.9s68.2-13,94.1-38.9c3.1-3.1,3.1-8.2,0-11.3C-1259-997.2-1264-997.2-1267.1-994.1z"/>
	
		<linearGradient id="SVGID_4_" gradientUnits="userSpaceOnUse" x1="-1161.2" y1="-1163.4537" x2="-1538.7999" y2="-1163.4537" gradientTransform="matrix(1 0 0 1 0 64)">
		<stop  offset="0" style="stop-color:#8EF5B6"/>
		<stop  offset="0.1499" style="stop-color:#89F1B3"/>
		<stop  offset="0.326" style="stop-color:#7BE6A9"/>
		<stop  offset="0.5152" style="stop-color:#63D499"/>
		<stop  offset="0.7137" style="stop-color:#42BB83"/>
		<stop  offset="0.9175" style="stop-color:#189B67"/>
		<stop  offset="1" style="stop-color:#058C5A"/>
	</linearGradient>
	
		<linearGradient id="SVGID_5_" gradientUnits="userSpaceOnUse" x1="-1160.7" y1="-1163.4537" x2="-1539.2999" y2="-1163.4537" gradientTransform="matrix(1 0 0 1 0 64)">
		<stop  offset="0" style="stop-color:#8EF5B6"/>
		<stop  offset="0.1499" style="stop-color:#89F1B3"/>
		<stop  offset="0.326" style="stop-color:#7BE6A9"/>
		<stop  offset="0.5152" style="stop-color:#63D499"/>
		<stop  offset="0.7137" style="stop-color:#42BB83"/>
		<stop  offset="0.9175" style="stop-color:#189B67"/>
		<stop  offset="1" style="stop-color:#058C5A"/>
	</linearGradient>
	<path class="st3" d="M-1161.2-1057.4c0-21.7-15.7-39.9-36.4-43.6v-133.8c0-17.4-8.6-33.5-23.1-43.1c-13.6-9-30.5-11.1-45.7-5.7
		l-50.2-17c-38.6-13.1-79.2-14.4-117.5-3.9c-50.1,13.8-78.8,43-83.2,84.6c-3.9,5.2-7,11-9.2,17.3l-3.9,11.5
		c-2.1,6.2,0.2,12.7,5.7,16.2s12.4,2.8,17.1-1.8c1.6-1.6,3.4-2.9,5.2-4v79.7c-20.7,3.8-36.4,21.9-36.4,43.6c0,22.6,17,41.3,38.9,44
		c5.5,30.3,19.9,58.3,42,80.7c28.8,29.2,67.1,45.3,107.9,45.3l0,0c40.7,0,79-15.9,107.7-44.6c22.5-22.5,37.1-50.7,42.4-81.4
		C-1178-1016.2-1161.2-1034.8-1161.2-1057.4z M-1229.5-1264.5c10.1,6.7,16,17.6,16,29.7v104.7c-24.8-3.9-43.9-25.4-43.9-51.3
		l-0.7-88C-1248.3-1271.9-1238.1-1270.3-1229.5-1264.5z M-1512.9-1192.9l1.6-4.6c4.1-12.1,13.1-21.8,24.8-26.8
		c11.7-5,25-4.8,36.6,0.6c24.2,11.3,53.5,5.2,71.2-14.8l2-2.2c2.9-3.3,2.6-8.4-0.7-11.3c-3.3-2.9-8.4-2.6-11.3,0.7l-2,2.2
		c-13,14.8-34.6,19.2-52.5,10.9c-15.7-7.3-33.7-7.6-49.6-0.8c-1.4,0.6-2.8,1.3-4.2,2c9.3-24.8,31.8-42.2,67.2-52
		c35.2-9.7,72.5-8.5,108.1,3.6l47.6,16.2l0.6,41.3c-21.2,28.8-52.1,48.3-87.4,55.1c-36.1,6.9-72.9-0.4-103.7-20.5
		C-1479.5-1203.2-1498.5-1202.8-1512.9-1192.9z M-1522.7-1057.4c0-12.9,8.6-23.7,20.4-27.2v43.4c0,3.7,0.1,7.5,0.4,11.2
		C-1513.9-1033.4-1522.7-1044.4-1522.7-1057.4z M-1253.5-943.2c-25.8,25.8-60,39.9-96.4,39.9l0,0c-36.4,0-70.7-14.4-96.5-40.6
		c-25.7-26.1-39.9-60.7-39.9-97.3v-143.2c4.5,0.3,9,1.8,13.1,4.4c34.2,22.3,75.2,30.4,115.4,22.8c32.6-6.2,61.9-22.3,84.4-45.9v21.7
		c0,34.7,26.2,63.4,59.9,67.4v74.3C-1213.5-1003.3-1227.7-969-1253.5-943.2z M-1197.9-1030.1c0.2-3.2,0.3-6.4,0.3-9.6v-44.9
		c11.8,3.5,20.4,14.3,20.4,27.2C-1177.2-1044.4-1185.9-1033.4-1197.9-1030.1z"/>
</g>
<path d="M-961.9-1611.9l2.9,3.7l1.3,1.6L-961.9-1611.9z"/>
<linearGradient id="SVGID_6_" gradientUnits="userSpaceOnUse" x1="-901.8" y1="-1692.0999" x2="-951.9" y2="-1692.0999" gradientTransform="matrix(1 0 0 1 0 64)">
	<stop  offset="0" style="stop-color:#8EF5B6"/>
	<stop  offset="0.1499" style="stop-color:#89F1B3"/>
	<stop  offset="0.326" style="stop-color:#7BE6A9"/>
	<stop  offset="0.5152" style="stop-color:#63D499"/>
	<stop  offset="0.7137" style="stop-color:#42BB83"/>
	<stop  offset="0.9175" style="stop-color:#189B67"/>
	<stop  offset="1" style="stop-color:#058C5A"/>
</linearGradient>
<path class="st4" d="M-901.8-1627v-13.7c-17.5,0-34.9,4.6-50.1,13.3l6.8,11.9C-931.9-1623-916.9-1627-901.8-1627z"/>
<linearGradient id="SVGID_7_" gradientUnits="userSpaceOnUse" x1="-717.6" y1="-1546.3" x2="-1072.6" y2="-1546.3" gradientTransform="matrix(1 0 0 1 0 64)">
	<stop  offset="0" style="stop-color:#8EF5B6"/>
	<stop  offset="0.1499" style="stop-color:#89F1B3"/>
	<stop  offset="0.326" style="stop-color:#7BE6A9"/>
	<stop  offset="0.5152" style="stop-color:#63D499"/>
	<stop  offset="0.7137" style="stop-color:#42BB83"/>
	<stop  offset="0.9175" style="stop-color:#189B67"/>
	<stop  offset="1" style="stop-color:#058C5A"/>
</linearGradient>
<path class="st5" d="M-756.2-1399.9l-98.1-19.6v-12.3c20.8-12.1,35.8-33.1,39.8-57.8c16.1-2.7,28.5-16.7,28.5-33.6v-74.3
	c0-18.6-11.9-34.9-29.4-40.7l-0.3-0.6c-17-34-51.1-55.1-89.1-55.1c-54.9,0-99.6,44.7-99.6,99.6v71c0,16.9,12.3,30.8,28.5,33.6
	c4,24.7,19,45.7,39.8,57.8v12.3l-98.1,19.6c-22.3,4.4-38.4,24.2-38.4,46.8v82.5h355v-82.5C-717.8-1375.7-734-1395.4-756.2-1399.9z
	 M-848.4-1404.4l-10.2,40.9l-26-17.3l25.7-25.7L-848.4-1404.4z M-910.1-1302.4l31.9,10.6l1.7,7.6h-37.6L-910.1-1302.4z
	 M-907.1-1315.8l3.6-16.2h16.3l5.5,24.7L-907.1-1315.8z M-887-1345.6h-16.6l-4.4-17.5l12.7-8.5l12.7,8.5L-887-1345.6z
	 M-813.4-1503.9v-38.4c7.9,2.8,13.7,10.3,13.7,19.2C-799.7-1514.2-805.5-1506.7-813.4-1503.9z M-990.9-1523.1
	c0-8.9,5.7-16.4,13.7-19.2v38.5C-985.2-1506.7-990.9-1514.2-990.9-1523.1z M-977.2-1594.4v1.4c0,0.5,0,1.1,0,1.6v34.8
	c-5.1,1-9.7,3.3-13.7,6.3v-43.9c0-47.4,38.6-86,86-86c32.8,0,62.2,18.2,76.9,47.5l3.1,6.1l3,0.8c13,3.3,22.1,14.9,22.1,28.3v47.1
	c-4-3-8.6-5.3-13.7-6.3v-7.5c0-10.3-3.4-20.5-9.6-28.7c-9-12-23.3-19.1-38.2-19.1c-10,0-20,2.4-28.9,6.8l-51.4,25.7
	c-2.1,1-4.5,1.6-6.8,1.6c-8.4,0-15.3-6.8-15.3-15.3v-1.4c0-4.7,2.1-9,5.9-12.1l-1.3-1.7l-7.4-8.9
	C-973.3-1611.5-977.2-1603.3-977.2-1594.4z M-963.6-1502.7v-65.8c8,5,19.2,5.8,28.2,1.3l51.4-25.7c7-3.5,14.9-5.4,22.8-5.4
	c10.7,0,20.9,5.1,27.3,13.7c4.4,5.9,6.8,13.1,6.8,20.5v61.4c0,37.6-30.6,68.3-68.3,68.3C-933-1434.4-963.6-1465-963.6-1502.7z
	 M-895.3-1420.7c9.6,0,18.8-1.7,27.3-4.8v8.8l-27.3,27.3l-27.3-27.3v-8.8C-914.1-1422.5-904.9-1420.7-895.3-1420.7z M-931.7-1406.5
	l25.7,25.7l-26,17.3l-10.2-40.9L-931.7-1406.5z M-1059.1-1353c0-16.2,11.5-30.3,27.4-33.5l76.1-15.2l15.1,60.3l20.5-13.7l4.1,16.3
	l-12.1,54.5h-62.8v-68.3h-13.7v68.3h-54.6V-1353z M-731.5-1284.2h-54.6v-68.3h-13.7v68.3h-62.8l-12.1-54.5l4.1-16.3l20.5,13.7
	l15.1-60.3l76.1,15.2c15.9,3.2,27.4,17.3,27.4,33.5V-1284.2z"/>
<linearGradient id="SVGID_8_" gradientUnits="userSpaceOnUse" x1="-847.5776" y1="-1607.6" x2="-861.2306" y2="-1607.6" gradientTransform="matrix(1 0 0 1 0 64)">
	<stop  offset="0" style="stop-color:#8EF5B6"/>
	<stop  offset="0.1499" style="stop-color:#89F1B3"/>
	<stop  offset="0.326" style="stop-color:#7BE6A9"/>
	<stop  offset="0.5152" style="stop-color:#63D499"/>
	<stop  offset="0.7137" style="stop-color:#42BB83"/>
	<stop  offset="0.9175" style="stop-color:#189B67"/>
	<stop  offset="1" style="stop-color:#058C5A"/>
</linearGradient>
<path class="st6" d="M-847.5-1543.6c0,3.8-3.1,6.8-6.8,6.8s-6.8-3.1-6.8-6.8c0-3.8,3.1-6.8,6.8-6.8S-847.5-1547.4-847.5-1543.6z"/>
<linearGradient id="SVGID_9_" gradientUnits="userSpaceOnUse" x1="-929.4949" y1="-1607.6" x2="-943.1477" y2="-1607.6" gradientTransform="matrix(1 0 0 1 0 64)">
	<stop  offset="0" style="stop-color:#8EF5B6"/>
	<stop  offset="0.1499" style="stop-color:#89F1B3"/>
	<stop  offset="0.326" style="stop-color:#7BE6A9"/>
	<stop  offset="0.5152" style="stop-color:#63D499"/>
	<stop  offset="0.7137" style="stop-color:#42BB83"/>
	<stop  offset="0.9175" style="stop-color:#189B67"/>
	<stop  offset="1" style="stop-color:#058C5A"/>
</linearGradient>
<path class="st7" d="M-929.4-1543.6c0,3.8-3.1,6.8-6.8,6.8c-3.8,0-6.8-3.1-6.8-6.8c0-3.8,3.1-6.8,6.8-6.8
	S-929.4-1547.4-929.4-1543.6z"/>
<linearGradient id="SVGID_10_" gradientUnits="userSpaceOnUse" x1="-861.2" y1="-1542.75" x2="-929.4644" y2="-1542.75" gradientTransform="matrix(1 0 0 1 0 64)">
	<stop  offset="0" style="stop-color:#8EF5B6"/>
	<stop  offset="0.1499" style="stop-color:#89F1B3"/>
	<stop  offset="0.326" style="stop-color:#7BE6A9"/>
	<stop  offset="0.5152" style="stop-color:#63D499"/>
	<stop  offset="0.7137" style="stop-color:#42BB83"/>
	<stop  offset="0.9175" style="stop-color:#189B67"/>
	<stop  offset="1" style="stop-color:#058C5A"/>
</linearGradient>
<path class="st8" d="M-861.2-1495.8h-13.7c0,11.3-9.2,20.5-20.5,20.5s-20.5-9.2-20.5-20.5h-13.7c0,18.8,15.3,34.1,34.1,34.1
	C-876.5-1461.7-861.2-1477-861.2-1495.8z"/>
<linearGradient id="SVGID_11_" gradientUnits="userSpaceOnUse" x1="-566.2999" y1="-1060.35" x2="-984.0001" y2="-1060.35" gradientTransform="matrix(1 0 0 1 0 64)">
	<stop  offset="0" style="stop-color:#8EF5B6"/>
	<stop  offset="0.1499" style="stop-color:#89F1B3"/>
	<stop  offset="0.326" style="stop-color:#7BE6A9"/>
	<stop  offset="0.5152" style="stop-color:#63D499"/>
	<stop  offset="0.7137" style="stop-color:#42BB83"/>
	<stop  offset="0.9175" style="stop-color:#189B67"/>
	<stop  offset="1" style="stop-color:#058C5A"/>
</linearGradient>
<path class="st9" d="M-582.8-950.8l-45.6-18.2c-2.7-1.1-4.4-3.7-4.4-6.6v-22c12.2-10.9,19.9-26.7,19.9-44.3v-53.4
	c4.1-4.6,6.6-10.7,6.6-17.4v-19.9c0-3.4-2.8-6.2-6.2-6.2h-79.7c-11.2,0-20.8,7.1-24.5,17.1c-16.4-14.7-38.1-23.7-61.8-23.7
	c-24.2,0-46.2,9.3-62.7,24.6c-14.1-11.6-31.8-17.9-50.2-17.9c-43.7,0-79.3,35.6-79.3,79.3v79.7c0,3,2.1,5.6,5.1,6.1l40.7,7.4
	c-0.7,1.4-1.9,2.6-3.4,3.3l-40.5,18.7c-9.2,4.3-15.2,13.6-15.2,23.7v33.8c0,3.4,2.8,6.2,6.2,6.2s6.2-2.8,6.2-6.2v-33.8
	c0-5.3,3.1-10.2,8-12.4l32.9-15.2l26,24.2c3.7,3.5,8.5,5.2,13.3,5.2s9.6-1.7,13.3-5.2l16.4-15.3l29.5,8.4l-39.5,18
	c-11.7,5.3-19.2,17-19.2,29.9v29.4c0,3.4,2.8,6.2,6.2,6.2s6.2-2.8,6.2-6.2v-29.4c0-8,4.7-15.2,11.9-18.5l26.3-11.9l44.5,27.8
	c5.3,3.3,11.3,5,17.4,5s12.1-1.7,17.4-5l44.5-27.8l26.3,11.9c7.2,3.3,11.9,10.6,11.9,18.5v29.4c0,3.4,2.8,6.2,6.2,6.2
	s6.2-2.8,6.2-6.2v-29.4c0-12.8-7.5-24.5-19.2-29.9l-39.5-18l28.3-8.1c7.4,3.4,15.8,5.2,24.2,5.2c18.2,0,35.1-8.3,44.6-21.5
	l40.2,16.1c5.2,2.1,8.6,7.1,8.6,12.7v39.7c0,3.4,2.8,6.2,6.2,6.2s6.2-2.8,6.2-6.2v-39.7C-566.4-937.2-572.8-946.8-582.8-950.8z
	 M-692.2-1126.4h73.5v13.7c0,7.6-6.1,13.7-13.7,13.7h-39.9c-3.4,0-6.2,2.8-6.2,6.2s2.8,6.2,6.2,6.2h39.9c2.4,0,4.8-0.3,7.1-1v45.7
	c0,25.9-21.1,46.9-46.9,46.9c-4.7,0-9.3-0.7-13.7-2v-22.2c4.2,2.4,8.9,3.7,13.7,3.7c6.2,0,12.1-2.1,17.1-6c2.7-2.1,3.2-6,1.1-8.7
	c-2.1-2.7-6-3.2-8.7-1.1c-2.8,2.2-6.1,3.4-9.4,3.4c-3.4,0-6.6-1.2-9.5-3.4c-1.3-1-2.8-1.4-4.3-1.3v-20.4c0-21.6-7.5-41.5-19.9-57.3
	c0-1.4,0-2.4,0-2.5C-705.9-1120.3-699.7-1126.4-692.2-1126.4z M-778.5-1133c44.2,0,80.1,36,80.1,80.1v101.6l-39.3,11.2
	c-0.9-1.9-1.4-3.9-1.4-6.1v-12.5c20-13,33.2-35.5,33.2-61v-21c0-6.1-4.3-11.4-10.3-12.6c-8.5-1.7-24.9-5.9-39.3-14.4
	c-3-1.7-6.8-0.8-8.5,2.2s-0.8,6.8,2.2,8.5c15.9,9.4,33.8,14,43.1,15.9c0.2,0,0.4,0.2,0.4,0.4v21c0,33.2-27,60.2-60.2,60.2
	s-60.2-27-60.2-60.2v-21c0-0.2,0.2-0.4,0.4-0.4c13.8-2.8,47.8-11.9,64.8-34.6c2.1-2.8,1.5-6.6-1.2-8.7s-6.6-1.5-8.7,1.2
	c-4.8,6.4-20.1,22.2-57.4,29.9c-6,1.2-10.3,6.5-10.3,12.6v21c0,25.5,13.2,48.1,33.2,61v12.5c0,2.1-0.5,4.2-1.4,6.1l-39.3-11.2
	v-101.6C-858.7-1097.1-822.7-1133-778.5-1133z M-958.3-1059.5c0-36.9,30-66.9,66.9-66.9c15.2,0,29.8,5.1,41.6,14.5
	c-8.9,10.8-15.5,23.7-18.8,37.7c-12.2-4.6-27.3-11.9-38.3-23c-2.4-2.4-6.4-2.4-8.8,0c-2.4,2.4-2.4,6.4,0,8.8
	c11,11,26.1,20,45.1,26.7c-0.3,2.9-0.4,5.8-0.4,8.7v55.6c-6.3,3-13.3,4.6-20.4,4.6c-25.9,0-46.9-21.1-46.9-46.9v-14.4
	c0-1.9,0.7-3.7,2.1-5l9.4-9.4c2.4-2.4,2.4-6.4,0-8.8s-6.4-2.4-8.8,0l-9.4,9.4c-3.7,3.7-5.7,8.6-5.7,13.8v14.4
	c0,20.6,10.6,38.8,26.6,49.5v11.3l-34.1-6.2L-958.3-1059.5L-958.3-1059.5z M-886.6-933.1c-2.7,2.5-6.9,2.5-9.6,0l-22.7-21.2
	c4.5-3.7,7.2-9.2,7.2-15.1v-14.4c6.4,2.3,13.2,3.6,20.4,3.6c7,0,13.9-1.2,20.4-3.6v36.3L-886.6-933.1z M-767.7-896.2
	c-6.6,4.1-15,4.1-21.6,0l-37.5-23.4l5.9-2.7c9.3-4.2,15.3-13.6,15.3-23.8v-6.1c8.3,3.4,17.5,5.2,27,5.2s18.6-1.9,27-5.2v6.1
	c0,10.2,6,19.6,15.3,23.8l5.9,2.7L-767.7-896.2z M-672.2-946.2c-4.7,0-9.3-0.7-13.7-2V-984c4.5,1.1,9,1.6,13.7,1.6
	c9.7,0,18.9-2.4,27-6.5v13.4c0,5.7,2.4,10.8,6.4,14.5C-646.2-951.9-658.7-946.2-672.2-946.2z"/>
<linearGradient id="SVGID_12_" gradientUnits="userSpaceOnUse" x1="-639.4811" y1="-1120.2" x2="-651.9232" y2="-1120.2" gradientTransform="matrix(1 0 0 1 0 64)">
	<stop  offset="0" style="stop-color:#8EF5B6"/>
	<stop  offset="0.1499" style="stop-color:#89F1B3"/>
	<stop  offset="0.326" style="stop-color:#7BE6A9"/>
	<stop  offset="0.5152" style="stop-color:#63D499"/>
	<stop  offset="0.7137" style="stop-color:#42BB83"/>
	<stop  offset="0.9175" style="stop-color:#189B67"/>
	<stop  offset="1" style="stop-color:#058C5A"/>
</linearGradient>
<path class="st10" d="M-645.7-1046.7c3.4,0,6.2-2.8,6.2-6.2v-6.6c0-3.4-2.8-6.2-6.2-6.2s-6.2,2.8-6.2,6.2v6.6
	C-651.9-1049.5-649.1-1046.7-645.7-1046.7z"/>
<linearGradient id="SVGID_13_" gradientUnits="userSpaceOnUse" x1="-911.8645" y1="-1113.5" x2="-924.3066" y2="-1113.5" gradientTransform="matrix(1 0 0 1 0 64)">
	<stop  offset="0" style="stop-color:#8EF5B6"/>
	<stop  offset="0.1499" style="stop-color:#89F1B3"/>
	<stop  offset="0.326" style="stop-color:#7BE6A9"/>
	<stop  offset="0.5152" style="stop-color:#63D499"/>
	<stop  offset="0.7137" style="stop-color:#42BB83"/>
	<stop  offset="0.9175" style="stop-color:#189B67"/>
	<stop  offset="1" style="stop-color:#058C5A"/>
</linearGradient>
<path class="st11" d="M-918-1040c3.4,0,6.2-2.8,6.2-6.2v-6.6c0-3.4-2.8-6.2-6.2-6.2s-6.2,2.8-6.2,6.2v6.6
	C-924.3-1042.8-921.5-1040-918-1040z"/>
<linearGradient id="SVGID_14_" gradientUnits="userSpaceOnUse" x1="-872.0193" y1="-1081.7153" x2="-911.011" y2="-1081.7153" gradientTransform="matrix(1 0 0 1 0 64)">
	<stop  offset="0" style="stop-color:#8EF5B6"/>
	<stop  offset="0.1499" style="stop-color:#89F1B3"/>
	<stop  offset="0.326" style="stop-color:#7BE6A9"/>
	<stop  offset="0.5152" style="stop-color:#63D499"/>
	<stop  offset="0.7137" style="stop-color:#42BB83"/>
	<stop  offset="0.9175" style="stop-color:#189B67"/>
	<stop  offset="1" style="stop-color:#058C5A"/>
</linearGradient>
<path class="st12" d="M-908.2-1014.5c4.9,3.2,10.7,5,16.7,5s11.8-1.7,16.7-5c2.9-1.9,3.7-5.7,1.8-8.6c-1.9-2.9-5.7-3.7-8.6-1.8
	c-2.9,1.9-6.3,2.9-9.9,2.9c-3.5,0-7-1-9.9-2.9s-6.7-1.1-8.6,1.8C-911.8-1020.2-911-1016.4-908.2-1014.5z"/>
<linearGradient id="SVGID_15_" gradientUnits="userSpaceOnUse" x1="-745.7761" y1="-1053.7534" x2="-811.3081" y2="-1053.7534" gradientTransform="matrix(1 0 0 1 0 64)">
	<stop  offset="0" style="stop-color:#8EF5B6"/>
	<stop  offset="0.1499" style="stop-color:#89F1B3"/>
	<stop  offset="0.326" style="stop-color:#7BE6A9"/>
	<stop  offset="0.5152" style="stop-color:#63D499"/>
	<stop  offset="0.7137" style="stop-color:#42BB83"/>
	<stop  offset="0.9175" style="stop-color:#189B67"/>
	<stop  offset="1" style="stop-color:#058C5A"/>
</linearGradient>
<path class="st13" d="M-810.3-1003.2c-1.2,1.7-1.4,3.9-0.6,5.8c5.8,14.5,18.5,23.8,32.3,23.8s26.5-9.4,32.3-23.8
	c0.8-1.9,0.5-4.1-0.6-5.8c-1.2-1.7-3.1-2.7-5.2-2.7h-53C-807.2-1006-809.1-1005-810.3-1003.2z M-762.9-993.5
	c-4.2,4.8-9.7,7.5-15.6,7.5s-11.4-2.7-15.6-7.5H-762.9z"/>
<linearGradient id="SVGID_16_" gradientUnits="userSpaceOnUse" x1="-792.3016" y1="-1100.3501" x2="-824.6984" y2="-1100.3501" gradientTransform="matrix(1 0 0 1 0 64)">
	<stop  offset="0" style="stop-color:#8EF5B6"/>
	<stop  offset="0.1499" style="stop-color:#89F1B3"/>
	<stop  offset="0.326" style="stop-color:#7BE6A9"/>
	<stop  offset="0.5152" style="stop-color:#63D499"/>
	<stop  offset="0.7137" style="stop-color:#42BB83"/>
	<stop  offset="0.9175" style="stop-color:#189B67"/>
	<stop  offset="1" style="stop-color:#058C5A"/>
</linearGradient>
<path class="st14" d="M-804.3-1030.8c0.9,2.5,3.3,4,5.8,4c0.7,0,1.5-0.1,2.2-0.4c3.2-1.2,4.8-4.8,3.6-8c-2.4-6.4-8.8-10.7-15.8-10.7
	s-13.4,4.3-15.8,10.7c-1.2,3.2,0.4,6.8,3.6,8c3.2,1.2,6.8-0.4,8-3.6c0.5-1.3,2-2.6,4.1-2.6C-806.2-1033.4-804.8-1032.1-804.3-1030.8
	z"/>
<linearGradient id="SVGID_17_" gradientUnits="userSpaceOnUse" x1="-732.4882" y1="-1100.3499" x2="-764.8644" y2="-1100.3499" gradientTransform="matrix(1 0 0 1 0 64)">
	<stop  offset="0" style="stop-color:#8EF5B6"/>
	<stop  offset="0.1499" style="stop-color:#89F1B3"/>
	<stop  offset="0.326" style="stop-color:#7BE6A9"/>
	<stop  offset="0.5152" style="stop-color:#63D499"/>
	<stop  offset="0.7137" style="stop-color:#42BB83"/>
	<stop  offset="0.9175" style="stop-color:#189B67"/>
	<stop  offset="1" style="stop-color:#058C5A"/>
</linearGradient>
<path class="st15" d="M-760.8-1027.2c3.2,1.2,6.8-0.4,8-3.6c0.5-1.3,2-2.6,4.1-2.6s3.7,1.3,4.1,2.6c0.9,2.5,3.3,4,5.8,4
	c0.7,0,1.5-0.1,2.2-0.4c3.2-1.2,4.8-4.8,3.6-8c-2.4-6.4-8.8-10.7-15.8-10.7s-13.4,4.3-15.8,10.7
	C-765.6-1032-764-1028.4-760.8-1027.2z"/>
<g>
	<g>
		<g>
			
				<linearGradient id="SVGID_18_" gradientUnits="userSpaceOnUse" x1="-308.0499" y1="-1456.7001" x2="-324.5342" y2="-1456.7001" gradientTransform="matrix(1 0 0 1 0 64)">
				<stop  offset="0" style="stop-color:#8EF5B6"/>
				<stop  offset="0.1499" style="stop-color:#89F1B3"/>
				<stop  offset="0.326" style="stop-color:#7BE6A9"/>
				<stop  offset="0.5152" style="stop-color:#63D499"/>
				<stop  offset="0.7137" style="stop-color:#42BB83"/>
				<stop  offset="0.9175" style="stop-color:#189B67"/>
				<stop  offset="1" style="stop-color:#058C5A"/>
			</linearGradient>
			<path class="st16" d="M-316.2-1400.9c-4.5,0-8.2,3.7-8.2,8.2s3.7,8.2,8.2,8.2s8.2-3.7,8.2-8.2
				C-308-1397.2-311.7-1400.9-316.2-1400.9z"/>
		</g>
	</g>
	<g>
		<g>
			
				<linearGradient id="SVGID_19_" gradientUnits="userSpaceOnUse" x1="-217.598" y1="-1580.35" x2="-596.7" y2="-1580.35" gradientTransform="matrix(1 0 0 1 0 64)">
				<stop  offset="0" style="stop-color:#8EF5B6"/>
				<stop  offset="0.1499" style="stop-color:#89F1B3"/>
				<stop  offset="0.326" style="stop-color:#7BE6A9"/>
				<stop  offset="0.5152" style="stop-color:#63D499"/>
				<stop  offset="0.7137" style="stop-color:#42BB83"/>
				<stop  offset="0.9175" style="stop-color:#189B67"/>
				<stop  offset="1" style="stop-color:#058C5A"/>
			</linearGradient>
			<path class="st17" d="M-296-1427.6l-39.2-13.1l-14.1-28.1c12.7-12.9,21.5-30,24.4-47.8l1.8-10.5h15c13.6,0,24.7-11.1,24.7-24.7
				v-51.9c0-68.2-55.5-123.6-123.6-123.6c-68.3,0-123.6,55.3-123.6,123.6v51.9c0,10.7,6.9,19.9,16.5,23.3v9.7
				c0,13.6,11.1,24.7,24.7,24.7h7.2c3.6,7.8,8.2,15,13.8,21.4c1.2,1.3,2.4,2.6,3.6,3.9l-14.1,28.1l-39.2,13.1
				c-45.6,15.2-78.6,63.1-78.6,114c0,4.6,3.7,8.2,8.2,8.2h362.7c4.6,0,8.2-3.7,8.2-8.2C-217.3-1364.4-250.4-1412.4-296-1427.6z
				 M-299.8-1551.7c0,4.5-3.7,8.2-8.2,8.2h-12.6c2.1-16.2,3.5-33.5,4.1-50.5c0-0.5,0-0.9,0-1.4h16.7V-1551.7z M-505.8-1543.5
				c-4.5,0-8.2-3.7-8.2-8.2v-43.7h16.7c0,0.9,0.1,1.7,0.1,2.6v0.1l0,0c0.6,16.5,2,33.4,4,49.2H-505.8L-505.8-1543.5z M-489.3-1510.5
				c-4.5,0-8.2-3.7-8.2-8.2v-8.2h6.8l1.8,10.5c0.3,2,0.7,4,1.2,6L-489.3-1510.5L-489.3-1510.5z M-497.6-1611.9h-16.2
				c4.2-55.2,50.3-98.9,106.8-98.9c56.3,0,102.6,43.7,106.8,98.9h-16.2c-0.6-45.5-37.7-82.4-83.3-82.4h-14.8
				C-459.9-1694.3-497-1657.4-497.6-1611.9z M-414.3-1677.9h14.8c36.9,0,66.8,30.2,66.8,67.1c0,2.6,0,4.9-0.1,6.9v0.1l-10.3-1.5
				c-28-4-54.5-17.2-74.5-37.2c-1.5-1.5-3.6-2.4-5.8-2.4c-22.1,0-43.3,10.1-57.3,27.1C-477.3-1651.3-448.9-1677.9-414.3-1677.9z
				 M-470.8-1510.5c-4.1-13.7-8.8-54.1-9.9-80l11.1-14.8c10.2-13.6,26-22,42.9-23c22.2,21.1,50.9,35.1,81.2,39.4l12.1,1.7
				c-0.8,17.2-2.5,34.5-4.8,50.4l0,0c-0.8,5.1-1.4,8.4-2.9,17.6c-4.4,26.2-23.9,49.9-49.7,56.3c-10.6,2.6-21.8,2.6-32.4,0
				c-16.1-4-30.9-15.2-40.4-31.1h16.8c3.4,9.6,12.6,16.5,23.3,16.5h16.5c13.7,0,24.7-11.1,24.7-24.7s-11.1-24.7-24.7-24.7h-16.5
				c-11,0-20,7.1-23.3,16.5L-470.8-1510.5L-470.8-1510.5z M-424.1-1446.2c5.7,1.2,11.4,1.8,17.2,1.8c4.5,0,9-0.4,13.5-1.1
				l-14.6,15.4L-424.1-1446.2z M-419.3-1418.2l-26.1,27.6c-7.2-13.8-13.4-28.1-18.5-42.8l9.8-19.6L-419.3-1418.2z M-361.1-1455.7
				l11.2,22.4c-5.1,14.7-11.3,29-18.5,42.8l-28-28L-361.1-1455.7z M-431.6-1502.3c0-4.6,3.7-8.2,8.2-8.2h16.5c4.5,0,8.2,3.7,8.2,8.2
				c0,4.6-3.7,8.2-8.2,8.2h-16.5C-427.9-1494.1-431.6-1497.7-431.6-1502.3z M-579.7-1321.8c3.3-40.8,30.4-77.9,67-90.1l34.7-11.6
				c6.4,17.6,14.2,34.7,23.5,50.9v0.1l0,0c6.7,11.9,14.3,23.4,22.6,34.5l10.1,16.3h-157.9L-579.7-1321.8L-579.7-1321.8z
				 M-406.9-1329.1l-11.2-17.9c-0.1-0.2-0.3-0.4-0.4-0.6c-6.7-8.9-12.9-18.2-18.6-27.7l29.4-31.1l31,31c-5.7,9.6-12,18.9-18.6,27.9
				C-395.7-1347.1-395.2-1348-406.9-1329.1z M-392.1-1321.8l10.1-16.3c8.3-11,15.9-22.7,22.7-34.7c0-0.1,0.1-0.1,0.1-0.2l0,0
				c9.1-16.1,16.9-33,23.2-50.5l34.7,11.6c36.6,12.2,63.7,49.3,67,90.1H-392.1L-392.1-1321.8z"/>
		</g>
	</g>
	<g>
		<g>
			
				<linearGradient id="SVGID_20_" gradientUnits="userSpaceOnUse" x1="-258.0914" y1="-1428.1311" x2="-295.5705" y2="-1428.1311" gradientTransform="matrix(1 0 0 1 0 64)">
				<stop  offset="0" style="stop-color:#8EF5B6"/>
				<stop  offset="0.1499" style="stop-color:#89F1B3"/>
				<stop  offset="0.326" style="stop-color:#7BE6A9"/>
				<stop  offset="0.5152" style="stop-color:#63D499"/>
				<stop  offset="0.7137" style="stop-color:#42BB83"/>
				<stop  offset="0.9175" style="stop-color:#189B67"/>
				<stop  offset="1" style="stop-color:#058C5A"/>
			</linearGradient>
			<path class="st18" d="M-258.9-1355.1c-5.5-11-13.6-20.8-23.3-28.3c-3.6-2.8-8.8-2.1-11.6,1.5c-2.8,3.6-2.1,8.8,1.5,11.6
				c7.8,6,14.2,13.8,18.6,22.6c2,4.1,7,5.7,11.1,3.7C-258.5-1346.1-256.9-1351.1-258.9-1355.1z"/>
		</g>
	</g>
</g>
<linearGradient id="SVGID_21_" gradientUnits="userSpaceOnUse" x1="-639.8793" y1="-596.6104" x2="-1059.8" y2="-596.6104" gradientTransform="matrix(1 0 0 1 0 64)">
	<stop  offset="0" style="stop-color:#8EF5B6"/>
	<stop  offset="0.1499" style="stop-color:#89F1B3"/>
	<stop  offset="0.326" style="stop-color:#7BE6A9"/>
	<stop  offset="0.5152" style="stop-color:#63D499"/>
	<stop  offset="0.7137" style="stop-color:#42BB83"/>
	<stop  offset="0.9175" style="stop-color:#189B67"/>
	<stop  offset="1" style="stop-color:#058C5A"/>
</linearGradient>
<path class="st19" d="M-769.5-322.6c-55.3,0-116.3-34.5-186.4-104.5c-68.9-68.8-103.9-132.5-103.9-189.3c0-36.4,14.2-68.9,42.2-96.9
	c12.5-12.4,27.5-21.9,44-27.9c9.9-3.6,21.1-0.2,27.2,8.4l53.3,74.1c7.2,10.1,5.4,24.1-4.2,32l-42.4,33.1c-3.3,2.5-4.2,7.1-2.1,10.7
	c17.7,28.7,38.8,55.1,62.8,78.8c23.8,24,50.3,45,79,62.7c3.6,2.1,8.2,1.2,10.8-2.1l33.1-42.1c7.9-9.7,21.9-11.6,32.1-4.4l74.3,53.2
	c8.6,6.2,12,17.3,8.4,27.2c-3.1,8.3-7,16.2-11.7,23.7c-4.7,7.3-10.1,14.1-16.3,20.3c-3.3,3.3-6.8,6.4-10.5,9.3
	C-708.2-333.8-738-322.6-769.5-322.6z M-965.3-719.1c-13.5,4.7-25.7,12.3-35.8,22.4c-23.4,23.4-35.3,50.5-35.3,80.4
	c0,50.4,32.6,108.5,97,172.8c130,129.8,199.4,105.1,245.3,69c2.9-2.3,5.8-4.8,8.4-7.5c4.9-4.9,9.3-10.4,13.1-16.3
	c3.8-6.1,7-12.5,9.5-19.3l-74.4-53.4l-33.2,41.9c-9.8,12.6-27.5,15.9-41.2,7.6l0,0c-30.3-18.7-58.3-40.9-83.4-66.1
	c-25.3-25-47.5-52.9-66.2-83.2c-8.3-13.7-5-31.4,7.6-41.2l42.2-33L-965.3-719.1z"/>
<g>
	
		<linearGradient id="SVGID_22_" gradientUnits="userSpaceOnUse" x1="-81.6" y1="-1042.5" x2="-237" y2="-1042.5" gradientTransform="matrix(1 0 0 1 0 64)">
		<stop  offset="0" style="stop-color:#8EF5B6"/>
		<stop  offset="0.1499" style="stop-color:#89F1B3"/>
		<stop  offset="0.326" style="stop-color:#7BE6A9"/>
		<stop  offset="0.5152" style="stop-color:#63D499"/>
		<stop  offset="0.7137" style="stop-color:#42BB83"/>
		<stop  offset="0.9175" style="stop-color:#189B67"/>
		<stop  offset="1" style="stop-color:#058C5A"/>
	</linearGradient>
	<path class="st20" d="M-237-978.5c0-43,34.7-77.7,77.7-77.7s77.7,34.7,77.7,77.7s-34.7,77.7-77.7,77.7S-237-935.4-237-978.5z
		 M-213.1-978.5c0,29.9,23.9,53.8,53.8,53.8s53.8-23.9,53.8-53.8c0-29.9-23.9-53.8-53.8-53.8S-213.1-1008.4-213.1-978.5z"/>
</g>
<g>
	
		<linearGradient id="SVGID_23_" gradientUnits="userSpaceOnUse" x1="-130.6" y1="-1041.9" x2="-188" y2="-1041.9" gradientTransform="matrix(1 0 0 1 0 64)">
		<stop  offset="0" style="stop-color:#8EF5B6"/>
		<stop  offset="0.1499" style="stop-color:#89F1B3"/>
		<stop  offset="0.326" style="stop-color:#7BE6A9"/>
		<stop  offset="0.5152" style="stop-color:#63D499"/>
		<stop  offset="0.7137" style="stop-color:#42BB83"/>
		<stop  offset="0.9175" style="stop-color:#189B67"/>
		<stop  offset="1" style="stop-color:#058C5A"/>
	</linearGradient>
	<path class="st21" d="M-188-977.9c0-15.5,13.1-28.7,28.7-28.7s28.7,13.1,28.7,28.7c0,15.5-12.6,28.7-28.7,28.7
		S-188-962.3-188-977.9z M-164.1-978.5c0,2.4,2.4,4.8,4.8,4.8c2.4,0,4.8-2.4,4.8-4.8c0-2.4-2.4-4.8-4.8-4.8
		S-164.1-980.9-164.1-978.5z"/>
</g>
<g>
	
		<linearGradient id="SVGID_24_" gradientUnits="userSpaceOnUse" x1="-390.1" y1="-1023.4" x2="-486.9" y2="-1023.4" gradientTransform="matrix(1 0 0 1 0 64)">
		<stop  offset="0" style="stop-color:#8EF5B6"/>
		<stop  offset="0.1499" style="stop-color:#89F1B3"/>
		<stop  offset="0.326" style="stop-color:#7BE6A9"/>
		<stop  offset="0.5152" style="stop-color:#63D499"/>
		<stop  offset="0.7137" style="stop-color:#42BB83"/>
		<stop  offset="0.9175" style="stop-color:#189B67"/>
		<stop  offset="1" style="stop-color:#058C5A"/>
	</linearGradient>
	<path class="st22" d="M-486.9-959.4c0-26.9,21.5-48.4,48.4-48.4s48.4,21.5,48.4,48.4s-21.5,48.4-48.4,48.4
		S-486.9-933.1-486.9-959.4z M-463-959.9c0,13.1,11.4,24.5,24.5,24.5s24.5-11.4,24.5-24.5s-10.8-24.5-24.5-24.5
		S-463-973.1-463-959.9z"/>
</g>
<g>
	
		<linearGradient id="SVGID_25_" gradientUnits="userSpaceOnUse" x1="-228" y1="-1028.1499" x2="-395.4" y2="-1028.1499" gradientTransform="matrix(1 0 0 1 0 64)">
		<stop  offset="0" style="stop-color:#8EF5B6"/>
		<stop  offset="0.1499" style="stop-color:#89F1B3"/>
		<stop  offset="0.326" style="stop-color:#7BE6A9"/>
		<stop  offset="0.5152" style="stop-color:#63D499"/>
		<stop  offset="0.7137" style="stop-color:#42BB83"/>
		<stop  offset="0.9175" style="stop-color:#189B67"/>
		<stop  offset="1" style="stop-color:#058C5A"/>
	</linearGradient>
	<rect x="-395.4" y="-976.1" class="st23" width="167.4" height="23.9"/>
</g>
<g>
	
		<linearGradient id="SVGID_26_" gradientUnits="userSpaceOnUse" x1="-281.9" y1="-1078.8999" x2="-455.2" y2="-1078.8999" gradientTransform="matrix(1 0 0 1 0 64)">
		<stop  offset="0" style="stop-color:#8EF5B6"/>
		<stop  offset="0.1499" style="stop-color:#89F1B3"/>
		<stop  offset="0.326" style="stop-color:#7BE6A9"/>
		<stop  offset="0.5152" style="stop-color:#63D499"/>
		<stop  offset="0.7137" style="stop-color:#42BB83"/>
		<stop  offset="0.9175" style="stop-color:#189B67"/>
		<stop  offset="1" style="stop-color:#058C5A"/>
	</linearGradient>
	<polygon class="st24" points="-305.8,-964.1 -281.9,-964.1 -281.9,-1053.8 -293.8,-1065.7 -443.2,-1065.7 -455.2,-1053.8 
		-455.2,-994 -431.3,-994 -431.3,-1041.8 -305.8,-1041.8 	"/>
</g>
<g>
	
		<linearGradient id="SVGID_27_" gradientUnits="userSpaceOnUse" x1="-371.5749" y1="-1159.65" x2="-395.4749" y2="-1159.65" gradientTransform="matrix(1 0 0 1 0 64)">
		<stop  offset="0" style="stop-color:#8EF5B6"/>
		<stop  offset="0.1499" style="stop-color:#89F1B3"/>
		<stop  offset="0.326" style="stop-color:#7BE6A9"/>
		<stop  offset="0.5152" style="stop-color:#63D499"/>
		<stop  offset="0.7137" style="stop-color:#42BB83"/>
		<stop  offset="0.9175" style="stop-color:#189B67"/>
		<stop  offset="1" style="stop-color:#058C5A"/>
	</linearGradient>
	<rect x="-395.4" y="-1131.5" class="st25" width="23.9" height="71.7"/>
</g>
<g>
	
		<linearGradient id="SVGID_28_" gradientUnits="userSpaceOnUse" x1="-138.4" y1="-1180.55" x2="-305.8" y2="-1180.55" gradientTransform="matrix(1 0 0 1 0 64)">
		<stop  offset="0" style="stop-color:#8EF5B6"/>
		<stop  offset="0.1499" style="stop-color:#89F1B3"/>
		<stop  offset="0.326" style="stop-color:#7BE6A9"/>
		<stop  offset="0.5152" style="stop-color:#63D499"/>
		<stop  offset="0.7137" style="stop-color:#42BB83"/>
		<stop  offset="0.9175" style="stop-color:#189B67"/>
		<stop  offset="1" style="stop-color:#058C5A"/>
	</linearGradient>
	<polygon class="st26" points="-305.8,-1053.8 -281.9,-1053.8 -281.9,-1155.4 -162.3,-1155.4 -162.3,-1053.8 -138.4,-1053.8 
		-138.4,-1167.3 -150.4,-1179.3 -293.8,-1179.3 -305.8,-1167.3 	"/>
</g>
<g>
	
		<linearGradient id="SVGID_29_" gradientUnits="userSpaceOnUse" x1="-183.444" y1="-1150.7" x2="-260.8595" y2="-1150.7" gradientTransform="matrix(1 0 0 1 0 64)">
		<stop  offset="0" style="stop-color:#8EF5B6"/>
		<stop  offset="0.1499" style="stop-color:#89F1B3"/>
		<stop  offset="0.326" style="stop-color:#7BE6A9"/>
		<stop  offset="0.5152" style="stop-color:#63D499"/>
		<stop  offset="0.7137" style="stop-color:#42BB83"/>
		<stop  offset="0.9175" style="stop-color:#189B67"/>
		<stop  offset="1" style="stop-color:#058C5A"/>
	</linearGradient>
	<path class="st27" d="M-260.8-1045.5v-82.3l9.7-9.7h58.1l9.7,9.7v44.5l-8.7,9.7c-14.5,1.5-30.5,14.5-39.2,32.4l-8.7,5.3h-11.2
		L-260.8-1045.5z M-202.7-1118.1h-38.7v56.6c10.2-14.5,24.2-25.2,38.7-29.5V-1118.1z"/>
</g>
<g>
	
		<linearGradient id="SVGID_30_" gradientUnits="userSpaceOnUse" x1="-240.0499" y1="-998.25" x2="-287.8499" y2="-998.25" gradientTransform="matrix(1 0 0 1 0 64)">
		<stop  offset="0" style="stop-color:#8EF5B6"/>
		<stop  offset="0.1499" style="stop-color:#89F1B3"/>
		<stop  offset="0.326" style="stop-color:#7BE6A9"/>
		<stop  offset="0.5152" style="stop-color:#63D499"/>
		<stop  offset="0.7137" style="stop-color:#42BB83"/>
		<stop  offset="0.9175" style="stop-color:#189B67"/>
		<stop  offset="1" style="stop-color:#058C5A"/>
	</linearGradient>
	<rect x="-287.8" y="-946.2" class="st28" width="47.8" height="23.9"/>
</g>
<g>
	
		<linearGradient id="SVGID_31_" gradientUnits="userSpaceOnUse" x1="-66.7499" y1="-1046.05" x2="-90.6499" y2="-1046.05" gradientTransform="matrix(1 0 0 1 0 64)">
		<stop  offset="0" style="stop-color:#8EF5B6"/>
		<stop  offset="0.1499" style="stop-color:#89F1B3"/>
		<stop  offset="0.326" style="stop-color:#7BE6A9"/>
		<stop  offset="0.5152" style="stop-color:#63D499"/>
		<stop  offset="0.7137" style="stop-color:#42BB83"/>
		<stop  offset="0.9175" style="stop-color:#189B67"/>
		<stop  offset="1" style="stop-color:#058C5A"/>
	</linearGradient>
	<rect x="-90.6" y="-994" class="st29" width="23.9" height="23.9"/>
</g>
<g>
	
		<linearGradient id="SVGID_32_" gradientUnits="userSpaceOnUse" x1="-287.9" y1="-1231.3501" x2="-335.7" y2="-1231.3501" gradientTransform="matrix(1 0 0 1 0 64)">
		<stop  offset="0" style="stop-color:#8EF5B6"/>
		<stop  offset="0.1499" style="stop-color:#89F1B3"/>
		<stop  offset="0.326" style="stop-color:#7BE6A9"/>
		<stop  offset="0.5152" style="stop-color:#63D499"/>
		<stop  offset="0.7137" style="stop-color:#42BB83"/>
		<stop  offset="0.9175" style="stop-color:#189B67"/>
		<stop  offset="1" style="stop-color:#058C5A"/>
	</linearGradient>
	<rect x="-335.7" y="-1179.3" class="st30" width="47.8" height="23.9"/>
</g>
<linearGradient id="SVGID_33_" gradientUnits="userSpaceOnUse" x1="-874.4" y1="-21.0305" x2="-1198.6" y2="-21.0305" gradientTransform="matrix(1 0 0 1 0 64)">
	<stop  offset="0" style="stop-color:#8EF5B6"/>
	<stop  offset="0.1499" style="stop-color:#89F1B3"/>
	<stop  offset="0.326" style="stop-color:#7BE6A9"/>
	<stop  offset="0.5152" style="stop-color:#63D499"/>
	<stop  offset="0.7137" style="stop-color:#42BB83"/>
	<stop  offset="0.9175" style="stop-color:#189B67"/>
	<stop  offset="1" style="stop-color:#058C5A"/>
</linearGradient>
<path class="st31" d="M-883.9-1.3c0,114.4-152.6,238.4-152.6,238.4s-152.6-123.9-152.6-238.4c0-84.3,68.3-152.6,152.6-152.6
	C-952.2-153.8-883.9-85.5-883.9-1.3z"/>
<linearGradient id="SVGID_34_" gradientUnits="userSpaceOnUse" x1="-963" y1="-90.3" x2="-1110" y2="-90.3" gradientTransform="matrix(1 0 0 1 0 64)">
	<stop  offset="0" style="stop-color:#8EF5B6"/>
	<stop  offset="0.1499" style="stop-color:#89F1B3"/>
	<stop  offset="0.326" style="stop-color:#7BE6A9"/>
	<stop  offset="0.5152" style="stop-color:#63D499"/>
	<stop  offset="0.7137" style="stop-color:#42BB83"/>
	<stop  offset="0.9175" style="stop-color:#189B67"/>
	<stop  offset="1" style="stop-color:#058C5A"/>
</linearGradient>
<circle class="st32" cx="-1036.5" cy="-26.3" r="64"/>
<g>
	<g>
		
			<linearGradient id="SVGID_35_" gradientUnits="userSpaceOnUse" x1="-1343.9751" y1="-448.4423" x2="-1681.7002" y2="-448.4423" gradientTransform="matrix(1 0 0 1 0 64)">
			<stop  offset="0" style="stop-color:#8EF5B6"/>
			<stop  offset="0.1499" style="stop-color:#89F1B3"/>
			<stop  offset="0.326" style="stop-color:#7BE6A9"/>
			<stop  offset="0.5152" style="stop-color:#63D499"/>
			<stop  offset="0.7137" style="stop-color:#42BB83"/>
			<stop  offset="0.9175" style="stop-color:#189B67"/>
			<stop  offset="1" style="stop-color:#058C5A"/>
		</linearGradient>
		<path class="st33" d="M-1565.7-179.3c3.1,3.1,7.2,4.8,11.5,4.8s8.5-1.7,11.5-4.8l35.9-35.9c3.1-3.1,4.8-7.2,4.8-11.5
			c0-4.4-1.7-8.5-4.8-11.5l-0.5-0.5l25.1-25.1c1.9-1.9,4.5-2.9,7.1-2.9h20c8.7,0,16.8-3.4,22.9-9.5l29.5-29.5l4.5,4.5
			c5.6,5.6,12.9,8.3,20.2,8.3c7.3,0,14.6-2.8,20.2-8.3l5.5-5.5c11.1-11.1,11.1-29.2,0-40.3l-4.5-4.5c11.6-11.6,11.6-30.6,0-42.2
			l-80.9-80.9c-11.6-11.6-30.5-11.6-42.2,0l-45.1-45.1c4.7-20.4-1.4-41.9-16.3-56.8c-17.8-17.8-44.3-22.8-67.5-12.8l-9.5,4.1
			l33.4,33.4l-17.9,17.9l-33.3-33.4l-4.1,9.5c-10.1,23.2-5.1,49.7,12.8,67.5c15,15,36.4,21,56.8,16.3l9.7,9.7
			c-1.2,0.6-2.4,1.4-3.4,2.4l-19.8,19.8c-6.1,6.1-9.5,14.3-9.5,22.9v36.9c0,2.7-1,5.2-2.9,7.1l-23.7,23.7
			c-6.3-4.2-15.3-3.6-20.8,1.8l-35.9,35.9c-3.1,3.1-4.8,7.2-4.8,11.5c0,4.4,1.7,8.5,4.8,11.5L-1565.7-179.3z M-1362.2-316.8
			l-5.5,5.5c-5.6,5.6-14.8,5.6-20.4,0l-4.5-4.5l25.9-25.9l4.5,4.5C-1356.6-331.6-1356.6-322.4-1362.2-316.8z M-1566.6-489.8l-4,1.2
			c-16.7,5.1-34.6,0.6-46.9-11.7c-11.1-11.1-15.7-26.6-13-41.5l27.8,27.8l37.9-37.9l-27.8-27.8c14.9-2.7,30.4,1.9,41.5,13
			c12.3,12.3,16.8,30.3,11.7,46.9l-1.2,4l50.9,50.9l-25.9,25.9L-1566.6-489.8z M-1586.6-365.2c4.6-4.6,7.1-10.6,7.1-17.1v-36.9
			c0-4.9,1.9-9.5,5.4-13l19.8-19.8c0.2-0.2,0.7-0.2,0.9,0l29.7,29.7c3,3,8.3,3,11.3,0l42.6-42.6c6.2-6.2,16.2-6.2,22.3,0l10.6,10.6
			l-10.2,10.2c-2.7,2.7-2.7,7.2,0,10c1.4,1.4,3.2,2.1,5,2.1s3.6-0.7,5-2.1l10.2-10.2l17.2,17.2l-10.2,10.2c-2.7,2.7-2.7,7.2,0,10
			c1.4,1.4,3.2,2.1,5,2.1s3.6-0.7,5-2.1l10.2-10.2l17.2,17.2l-10.2,10.2c-2.7,2.7-2.7,7.2,0,10c1.4,1.4,3.2,2.1,5,2.1s3.6-0.7,5-2.1
			l10.2-10.2l5.9,5.9c3,3,4.6,6.9,4.6,11.2c0,4.2-1.6,8.2-4.6,11.2l-75.2,75.2c-3.5,3.5-8.1,5.4-13,5.4h-20
			c-6.4,0-12.5,2.5-17.1,7.1l-25.1,25.1l-92.9-92.9L-1586.6-365.2z M-1667.1-303.7l35.9-35.9c0.4-0.4,1-0.7,1.6-0.7s1.1,0.2,1.6,0.7
			l111.3,111.3c0.9,0.9,0.9,2.3,0,3.2l-35.9,35.9c-0.9,0.9-2.3,0.9-3.2,0l-111.3-111.3C-1667.9-301.4-1667.9-302.8-1667.1-303.7z"/>
	</g>
</g>
<path class="st34" d="M-1967.1,639.4V505.3h44.7v80.4l73.7-73.7c4.5-4.5,8.9-6.7,15.6-6.7h89.4V281.8h-312.8v223.5h44.7V550h-67
	c-13.4,0-22.3-8.9-22.3-22.3V259.5c0-13.4,8.9-22.3,22.3-22.3h357.5c13.4,0,22.3,8.9,22.3,22.3v268.1c0,13.4-8.9,22.3-22.3,22.3
	h-102.8l-105,105C-1942.6,668.4-1967.1,659.5-1967.1,639.4z M-1788.4,460.6h-223.5v-44.7h223.5V460.6z M-1788.4,371.2h-223.5v-44.7
	h223.5V371.2z"/>
<g>
	<circle class="st35" cx="-415.8" cy="24" r="92.7"/>
	<path class="st34" d="M-264,22.5c0-82.8-67.2-150-150-150s-150,67.2-150,150c0,30.3,9,58.4,24.4,82h-0.3l112.4,179.7l0,0
		c2.5,4.9,7.6,8.3,13.4,8.3c5.9,0,11-3.4,13.4-8.3l0,0l112.6-179.7h-0.3C-272.9,81-264,52.8-264,22.5L-264,22.5 M-414-45.9
		c37.8,0,68.4,30.6,68.4,68.4s-30.6,68.4-68.4,68.4s-68.4-30.6-68.4-68.4C-482.4-15.2-451.7-45.9-414-45.9L-414-45.9"/>
</g>
<g transform="translate(0,-952.36218)">
	<path class="st36" d="M-1387.6-815c-7.9,0.3-14.1,6.9-13.8,14.8c0.1,3.9,1.9,7.6,4.8,10.2l144.6,132.7h-349.8h-1.3
		c-7.5,0.4-14,7.5-13.7,15c0.4,7.5,7.5,14,15,13.7h349.8l-144.6,132.5c-5.9,5.3-6.4,14.4-1.1,20.3s14.4,6.4,20.3,1.1l0.1-0.1
		l171.9-157.6c5.9-5.3,6.3-14.4,1-20.2c-0.3-0.4-0.7-0.7-1-1l-171.9-157.6C-1380.1-813.8-1383.8-815.2-1387.6-815z"/>
</g>
<g>
	<line class="st37" x1="-1034.8" y1="774.8" x2="-809.5" y2="971.9"/>
	<line class="st37" x1="-618.8" y1="766.5" x2="-810.8" y2="965.5"/>
</g>
<rect x="-28.7" y="198.4" transform="matrix(0.7638 0.6455 -0.6455 0.7638 157.3714 -26.3003)" class="st38" width="286.6" height="7"/>
<rect x="175.7" y="188.8" transform="matrix(-0.6962 0.7178 -0.7178 -0.6962 679.1467 97.1691)" class="st38" width="286.6" height="7"/>
</svg>
