<?xml version="1.0" encoding="utf-8"?>
<!-- Generator: Adobe Illustrator 16.0.4, SVG Export Plug-In . SVG Version: 6.00 Build 0)  -->
<!DOCTYPE svg PUBLIC "-//W3C//DTD SVG 1.1//EN" "http://www.w3.org/Graphics/SVG/1.1/DTD/svg11.dtd">
<svg version="1.1" id="Layer_1" xmlns="http://www.w3.org/2000/svg" xmlns:xlink="http://www.w3.org/1999/xlink" x="0px" y="0px"
	 width="125px" height="125px" viewBox="0 0 125 125" enable-background="new 0 0 125 125" xml:space="preserve">
<g>
	<defs>
		<rect id="SVGID_1_" width="125" height="125"/>
	</defs>
	<clipPath id="SVGID_2_">
		<use xlink:href="#SVGID_1_"  overflow="visible"/>
	</clipPath>
	<path clip-path="url(#SVGID_2_)" fill="#D6D6D6" d="M62.5,0C28,0,0,28,0,62.5C0,97,28,125,62.5,125C97,125,125,97,125,62.5
		C125,28,97,0,62.5,0 M62.5,5C94.2,5,120,30.8,120,62.5C120,94.2,94.2,120,62.5,120C30.799,120,5,94.2,5,62.5
		C5,30.8,30.799,5,62.5,5 M62.5,10c-21.5,0-41.201,13.5-49,33.6c-0.4,1-0.101,2.101,0.699,2.801L15,47.1
		c0.5,0.4,0.999,0.6,1.599,0.6h91.701c1,0,1.799-0.499,2.199-1.399l0.6-1.201c0.3-0.6,0.3-1.4,0.1-2C103.199,23,84.1,10,62.5,10
		 M62.5,15c18.7,0,35.399,10.8,43.1,27.6H19.4C27.101,26,44,15,62.5,15 M12.6,59.6c-1.4,0-2.5,1.1-2.5,2.5v0.1v0.3
		c0,26,19.402,48.401,45.201,52H55.6c0.6,0,1.2-0.199,1.6-0.6c0.5-0.5,0.9-1.2,0.9-1.9v-0.5v-0.199C56.1,91.9,44,74.6,26.5,66.1
		L13.8,59.9C13.4,59.701,13,59.6,12.699,59.6H12.6z M112.199,59.7c-0.4,0-0.8,0.1-1.1,0.3l-12.6,6.1C81,74.6,68.9,91.9,67,111.301
		l-0.1,0.5c-0.1,0.8,0.199,1.5,0.699,2.1c0.5,0.5,1.102,0.699,1.701,0.699H69.6c25.8-3.6,45.201-25.9,45.201-52v-0.299V62.2
		c0-1.4-1.1-2.5-2.5-2.5H112.199z M15.1,66.1l9.201,4.5c15.1,7.3,25.799,21.9,28.399,38.4C32.1,104.6,16.699,87,15.1,66.1
		 M109.9,66.1c-1.6,20.9-17,38.5-37.6,42.9c2.6-16.5,13.299-31.101,28.398-38.4L109.9,66.1z"/>
	<path clip-path="url(#SVGID_2_)" fill="#95D29D" d="M62.5,55.5c-5.5,0-10,4.5-10,10s4.5,10,10,10s10-4.5,10-10S68,55.5,62.5,55.5"
		/>
	<path clip-path="url(#SVGID_2_)" fill="#FFFFFF" d="M62.5,60.5c2.8,0,5,2.2,5,5s-2.2,5-5,5s-5-2.2-5-5S59.7,60.5,62.5,60.5"/>
</g>
</svg>
