<?xml version="1.0" encoding="utf-8"?>
<!-- Generator: Adobe Illustrator 23.0.3, SVG Export Plug-In . SVG Version: 6.00 Build 0)  -->
<svg version="1.1" id="Layer_1" xmlns="http://www.w3.org/2000/svg" xmlns:xlink="http://www.w3.org/1999/xlink" x="0px" y="0px"
	 viewBox="0 0 768 731.4" style="enable-background:new 0 0 768 731.4;" xml:space="preserve">
<style type="text/css">
	.st0{fill:url(#SVGID_1_);}
</style>
<linearGradient id="SVGID_1_" gradientUnits="userSpaceOnUse" x1="0" y1="365.7143" x2="768" y2="365.7143">
	<stop  offset="0" style="stop-color:#1D976C"/>
	<stop  offset="1" style="stop-color:#93F9B9"/>
</linearGradient>
<path class="st0" d="M36.6,256v438.9h694.9V256L395,508.3c-6.5,4.9-15.4,4.9-21.9,0L36.6,256L36.6,256z M384,470.9l354.7-266.1
	c8.1-6.1,19.5-4.4,25.6,3.7c2.4,3.2,3.7,7,3.7,11v493.7c0,10.1-8.2,18.3-18.3,18.3H18.3C8.2,731.4,0,723.2,0,713.1V219.4
	c0-10.1,8.2-18.3,18.3-18.3c4,0,7.8,1.3,11,3.7L384,470.9L384,470.9z M237.7,146.3c-10.1,0-18.3-8.2-18.3-18.3
	c0-10.1,8.2-18.3,18.3-18.3h292.6c10.1,0,18.3,8.2,18.3,18.3c0,10.1-8.2,18.3-18.3,18.3c0,0,0,0,0,0H237.7L237.7,146.3z M109.7,36.6
	v128c0,10.1-8.2,18.3-18.3,18.3c-10.1,0-18.3-8.2-18.3-18.3V18.3C73.1,8.2,81.3,0,91.4,0h0h585.1c10.1,0,18.3,8.2,18.3,18.3v146.3
	c0,10.1-8.2,18.3-18.3,18.3c-10.1,0-18.3-8.2-18.3-18.3c0,0,0,0,0,0v-128L109.7,36.6L109.7,36.6z M237.7,256
	c-10.1,0-18.3-8.2-18.3-18.3c0-10.1,8.2-18.3,18.3-18.3H384c10.1,0,18.3,8.2,18.3,18.3c0,10.1-8.2,18.3-18.3,18.3H237.7z"/>
</svg>
