<?xml version="1.0" encoding="utf-8"?>
<!-- Generator: Adobe Illustrator 23.0.3, SVG Export Plug-In . SVG Version: 6.00 Build 0)  -->
<svg version="1.1" id="Layer_1" xmlns="http://www.w3.org/2000/svg" xmlns:xlink="http://www.w3.org/1999/xlink" x="0px" y="0px"
	 viewBox="0 0 50 84" style="enable-background:new 0 0 50 84;" xml:space="preserve">
<style type="text/css">
	.st0{fill:url(#SVGID_1_);}
</style>
<linearGradient id="SVGID_1_" gradientUnits="userSpaceOnUse" x1="0" y1="42" x2="50" y2="42">
	<stop  offset="0" style="stop-color:#1D976C"/>
	<stop  offset="1" style="stop-color:#93F9B9"/>
</linearGradient>
<path class="st0" d="M2,84h46c1.1,0,2-0.9,2-2V2c0-1.1-0.9-2-2-2H2C0.9,0,0,0.9,0,2v80C0,83.1,0.9,84,2,84z M4,4h42v76H4V4z M29,72
	c0,2.2-1.8,4-4,4s-4-1.8-4-4s1.8-4,4-4S29,69.8,29,72z"/>
</svg>
