<?xml version="1.0" encoding="utf-8"?>
<!-- Generator: Adobe Illustrator 16.0.4, SVG Export Plug-In . SVG Version: 6.00 Build 0)  -->
<!DOCTYPE svg PUBLIC "-//W3C//DTD SVG 1.1//EN" "http://www.w3.org/Graphics/SVG/1.1/DTD/svg11.dtd">
<svg version="1.1" id="Layer_1" xmlns="http://www.w3.org/2000/svg" xmlns:xlink="http://www.w3.org/1999/xlink" x="0px" y="0px"
	 width="302px" height="319px" viewBox="0 0 302 319" enable-background="new 0 0 302 319" xml:space="preserve">
<g>
	<defs>
		<rect id="SVGID_1_" width="302" height="319"/>
	</defs>
	<clipPath id="SVGID_2_">
		<use xlink:href="#SVGID_1_"  overflow="visible"/>
	</clipPath>
	<path clip-path="url(#SVGID_2_)" fill="#699A73" d="M55,104c18,0,33,8,43,21l95-64c-1-2-1-4-1-6c0-30,25-55,55-55c31,0,55,25,55,55
		s-24,55-55,55c-19,0-36-10-46-25l-92,64c1,3,1,7,1,10c0,4,0,7-1,11l92,63c10-15,27-25,46-25c31,0,55,25,55,56c0,30-24,55-55,55
		c-30,0-55-25-55-55c0-2,0-4,1-6l-95-65c-10,13-25,21-43,21c-30,0-55-24-55-55C0,129,25,104,55,104 M247,234c-16,0-29,13-29,30
		c0,16,13,29,29,29c17,0,30-13,30-29C277,247,264,234,247,234 M247,25c-16,0-29,14-29,30s13,30,29,30c17,0,30-14,30-30
		S264,25,247,25 M55,130c-16,0-30,13-30,29c0,17,14,30,30,30s30-13,30-30C85,143,71,130,55,130"/>
</g>
</svg>
