<?xml version="1.0" encoding="utf-8"?>
<!-- Generator: Adobe Illustrator 22.0.1, SVG Export Plug-In . SVG Version: 6.00 Build 0)  -->
<svg version="1.1" id="Capa_1" xmlns="http://www.w3.org/2000/svg" xmlns:xlink="http://www.w3.org/1999/xlink" x="0px" y="0px"
	 viewBox="0 0 424.2 424.2" style="enable-background:new 0 0 424.2 424.2;" xml:space="preserve">
<style type="text/css">
	.st0{fill:url(#SVGID_1_);}
	.st1{fill:url(#SVGID_2_);}
	.st2{fill:url(#SVGID_3_);}
	.st3{fill:url(#SVGID_4_);stroke:url(#SVGID_5_);stroke-miterlimit:10;}
	.st4{fill:url(#SVGID_6_);}
	.st5{fill:url(#SVGID_7_);}
	.st6{fill:url(#SVGID_8_);}
	.st7{fill:url(#SVGID_9_);}
	.st8{fill:url(#SVGID_10_);}
	.st9{fill:url(#SVGID_11_);}
	.st10{fill:url(#SVGID_12_);}
	.st11{fill:url(#SVGID_13_);}
	.st12{fill:url(#SVGID_14_);}
	.st13{fill:url(#SVGID_15_);}
	.st14{fill:url(#SVGID_16_);}
	.st15{fill:url(#SVGID_17_);}
	.st16{fill:url(#SVGID_18_);}
	.st17{fill:url(#SVGID_19_);}
	.st18{fill:url(#SVGID_20_);}
	.st19{fill:url(#SVGID_21_);}
	.st20{fill:url(#SVGID_22_);}
	.st21{fill:url(#SVGID_23_);}
	.st22{fill:url(#SVGID_24_);}
	.st23{fill:url(#SVGID_25_);}
	.st24{fill:url(#SVGID_26_);}
	.st25{fill:url(#SVGID_27_);}
	.st26{fill:url(#SVGID_28_);}
	.st27{fill:url(#SVGID_29_);}
	.st28{fill:url(#SVGID_30_);}
	.st29{fill:url(#SVGID_31_);}
	.st30{fill:#9DD5A4;}
</style>
<g>
	<linearGradient id="SVGID_1_" gradientUnits="userSpaceOnUse" x1="-1402.6713" y1="-433.3678" x2="-1450.6648" y2="-433.3678">
		<stop  offset="0" style="stop-color:#8EF5B6"/>
		<stop  offset="0.1499" style="stop-color:#89F1B3"/>
		<stop  offset="0.326" style="stop-color:#7BE6A9"/>
		<stop  offset="0.5152" style="stop-color:#63D499"/>
		<stop  offset="0.7137" style="stop-color:#42BB83"/>
		<stop  offset="0.9175" style="stop-color:#189B67"/>
		<stop  offset="1" style="stop-color:#058C5A"/>
	</linearGradient>
	<path class="st0" d="M-1426.7-428.7c3.9,0,7.6,1.5,10.3,4.3c1.6,1.6,3.6,2.3,5.7,2.3c2,0,4.1-0.8,5.7-2.3c3.1-3.1,3.1-8.2,0-11.3
		c-5.8-5.8-13.5-9-21.7-9c-8.2,0-15.9,3.2-21.7,9c-3.1,3.1-3.1,8.2,0,11.3s8.2,3.1,11.3,0C-1434.2-427.2-1430.6-428.7-1426.7-428.7z
		"/>
	<linearGradient id="SVGID_2_" gradientUnits="userSpaceOnUse" x1="-1237.0072" y1="-433.3608" x2="-1285.0017" y2="-433.3608">
		<stop  offset="0" style="stop-color:#8EF5B6"/>
		<stop  offset="0.1499" style="stop-color:#89F1B3"/>
		<stop  offset="0.326" style="stop-color:#7BE6A9"/>
		<stop  offset="0.5152" style="stop-color:#63D499"/>
		<stop  offset="0.7137" style="stop-color:#42BB83"/>
		<stop  offset="0.9175" style="stop-color:#189B67"/>
		<stop  offset="1" style="stop-color:#058C5A"/>
	</linearGradient>
	<path class="st1" d="M-1282.7-435.7c-3.1,3.1-3.1,8.2,0,11.3c3.1,3.1,8.2,3.1,11.3,0c5.7-5.7,15-5.7,20.7,0
		c1.6,1.6,3.6,2.3,5.7,2.3c2,0,4.1-0.8,5.7-2.3c3.1-3.1,3.1-8.2,0-11.3C-1251.3-447.7-1270.7-447.7-1282.7-435.7z"/>
	<linearGradient id="SVGID_3_" gradientUnits="userSpaceOnUse" x1="-1247.3903" y1="-332.8485" x2="-1440.2827" y2="-332.8485">
		<stop  offset="0" style="stop-color:#8EF5B6"/>
		<stop  offset="0.1499" style="stop-color:#89F1B3"/>
		<stop  offset="0.326" style="stop-color:#7BE6A9"/>
		<stop  offset="0.5152" style="stop-color:#63D499"/>
		<stop  offset="0.7137" style="stop-color:#42BB83"/>
		<stop  offset="0.9175" style="stop-color:#189B67"/>
		<stop  offset="1" style="stop-color:#058C5A"/>
	</linearGradient>
	<path class="st2" d="M-1261-356.8c-45.7,45.6-119.9,45.6-165.6,0c-3.1-3.1-8.2-3.1-11.3,0c-3.1,3.1-3.1,8.2,0,11.3
		c25.9,25.9,60,38.9,94.1,38.9c34.1,0,68.2-13,94.1-38.9c3.1-3.1,3.1-8.2,0-11.3C-1252.9-359.9-1257.9-359.9-1261-356.8z"/>
	<linearGradient id="SVGID_4_" gradientUnits="userSpaceOnUse" x1="-1155.075" y1="-462.1191" x2="-1532.599" y2="-462.1191">
		<stop  offset="0" style="stop-color:#8EF5B6"/>
		<stop  offset="0.1499" style="stop-color:#89F1B3"/>
		<stop  offset="0.326" style="stop-color:#7BE6A9"/>
		<stop  offset="0.5152" style="stop-color:#63D499"/>
		<stop  offset="0.7137" style="stop-color:#42BB83"/>
		<stop  offset="0.9175" style="stop-color:#189B67"/>
		<stop  offset="1" style="stop-color:#058C5A"/>
	</linearGradient>
	<linearGradient id="SVGID_5_" gradientUnits="userSpaceOnUse" x1="-1154.575" y1="-462.1191" x2="-1533.099" y2="-462.1191">
		<stop  offset="0" style="stop-color:#8EF5B6"/>
		<stop  offset="0.1499" style="stop-color:#89F1B3"/>
		<stop  offset="0.326" style="stop-color:#7BE6A9"/>
		<stop  offset="0.5152" style="stop-color:#63D499"/>
		<stop  offset="0.7137" style="stop-color:#42BB83"/>
		<stop  offset="0.9175" style="stop-color:#189B67"/>
		<stop  offset="1" style="stop-color:#058C5A"/>
	</linearGradient>
	<path class="st3" d="M-1155.1-420.1c0-21.7-15.7-39.9-36.4-43.6v-133.8c0-17.4-8.6-33.5-23.1-43.1c-13.6-9-30.5-11.1-45.7-5.7
		l-50.2-17c-38.6-13.1-79.2-14.4-117.5-3.9c-50.1,13.8-78.8,43-83.2,84.6c-3.9,5.2-7,11-9.2,17.3l-3.9,11.5
		c-2.1,6.2,0.2,12.7,5.7,16.2c5.5,3.5,12.4,2.8,17.1-1.8c1.6-1.6,3.4-2.9,5.2-4v79.7c-20.7,3.8-36.4,21.9-36.4,43.6
		c0,22.6,17,41.3,38.9,44c5.5,30.3,19.9,58.3,42,80.7c28.8,29.2,67.1,45.3,107.9,45.3c0,0,0,0,0,0c40.7,0,79-15.9,107.7-44.6
		c22.5-22.5,37.1-50.7,42.4-81.4C-1171.9-378.9-1155.1-397.5-1155.1-420.1z M-1223.4-627.2c10.1,6.7,16,17.6,16,29.7v104.7
		c-24.8-3.9-43.9-25.4-43.9-51.3l-0.7-88C-1242.2-634.6-1232-633-1223.4-627.2z M-1506.8-555.6l1.6-4.6
		c4.1-12.1,13.1-21.8,24.8-26.8c11.7-5,25-4.8,36.6,0.6c24.2,11.3,53.5,5.2,71.2-14.8l2-2.2c2.9-3.3,2.6-8.4-0.7-11.3
		c-3.3-2.9-8.4-2.6-11.3,0.7l-2,2.2c-13,14.8-34.6,19.2-52.5,10.9c-15.7-7.3-33.7-7.6-49.6-0.8c-1.4,0.6-2.8,1.3-4.2,2
		c9.3-24.8,31.8-42.2,67.2-52c35.2-9.7,72.5-8.5,108.1,3.6l47.6,16.2l0.6,41.3c-21.2,28.8-52.1,48.3-87.4,55.1
		c-36.1,6.9-72.9-0.4-103.7-20.5C-1473.4-565.9-1492.4-565.5-1506.8-555.6z M-1516.6-420.1c0-12.9,8.6-23.7,20.4-27.2v43.4
		c0,3.7,0.1,7.5,0.4,11.2C-1507.8-396.1-1516.6-407.1-1516.6-420.1z M-1247.4-305.9c-25.8,25.8-60,39.9-96.4,39.9c0,0,0,0,0,0
		c-36.4,0-70.7-14.4-96.5-40.6c-25.7-26.1-39.9-60.7-39.9-97.3v-143.2c4.5,0.3,9,1.8,13.1,4.4c34.2,22.3,75.2,30.4,115.4,22.8
		c32.6-6.2,61.9-22.3,84.4-45.9v21.7c0,34.7,26.2,63.4,59.9,67.4v74.3C-1207.4-366-1221.6-331.7-1247.4-305.9z M-1191.8-392.8
		c0.2-3.2,0.3-6.4,0.3-9.6v-44.9c11.8,3.5,20.4,14.3,20.4,27.2C-1171.1-407.1-1179.8-396.1-1191.8-392.8z"/>
</g>
<path d="M-955.8-974.6l2.9,3.7l1.3,1.6L-955.8-974.6z"/>
<linearGradient id="SVGID_6_" gradientUnits="userSpaceOnUse" x1="-895.6625" y1="-990.7872" x2="-945.7975" y2="-990.7872">
	<stop  offset="0" style="stop-color:#8EF5B6"/>
	<stop  offset="0.1499" style="stop-color:#89F1B3"/>
	<stop  offset="0.326" style="stop-color:#7BE6A9"/>
	<stop  offset="0.5152" style="stop-color:#63D499"/>
	<stop  offset="0.7137" style="stop-color:#42BB83"/>
	<stop  offset="0.9175" style="stop-color:#189B67"/>
	<stop  offset="1" style="stop-color:#058C5A"/>
</linearGradient>
<path class="st4" d="M-895.7-989.7v-13.7c-17.5,0-34.9,4.6-50.1,13.3l6.8,11.9C-925.8-985.7-910.8-989.7-895.7-989.7z"/>
<linearGradient id="SVGID_7_" gradientUnits="userSpaceOnUse" x1="-711.7255" y1="-844.8721" x2="-1066.7001" y2="-844.8721">
	<stop  offset="0" style="stop-color:#8EF5B6"/>
	<stop  offset="0.1499" style="stop-color:#89F1B3"/>
	<stop  offset="0.326" style="stop-color:#7BE6A9"/>
	<stop  offset="0.5152" style="stop-color:#63D499"/>
	<stop  offset="0.7137" style="stop-color:#42BB83"/>
	<stop  offset="0.9175" style="stop-color:#189B67"/>
	<stop  offset="1" style="stop-color:#058C5A"/>
</linearGradient>
<path class="st5" d="M-750.1-762.6l-98.1-19.6v-12.3c20.8-12.1,35.8-33.1,39.8-57.8c16.1-2.7,28.5-16.7,28.5-33.6v-74.3
	c0-18.6-11.9-34.9-29.4-40.7l-0.3-0.6c-17-34-51.1-55.1-89.1-55.1c-54.9,0-99.6,44.7-99.6,99.6v71c0,16.9,12.3,30.8,28.5,33.6
	c4,24.7,19,45.7,39.8,57.8v12.3l-98.1,19.6c-22.3,4.4-38.4,24.2-38.4,46.8v82.5h355v-82.5C-711.7-738.4-727.9-758.1-750.1-762.6z
	 M-842.3-767.1l-10.2,40.9l-26-17.3l25.7-25.7L-842.3-767.1z M-904-665.1l31.9,10.6l1.7,7.6H-908L-904-665.1z M-901-678.5l3.6-16.2
	h16.3l5.5,24.7L-901-678.5z M-880.9-708.3h-16.6l-4.4-17.5l12.7-8.5l12.7,8.5L-880.9-708.3z M-807.3-866.6V-905
	c7.9,2.8,13.7,10.3,13.7,19.2C-793.6-876.9-799.4-869.4-807.3-866.6z M-984.8-885.8c0-8.9,5.7-16.4,13.7-19.2l0,38.5
	C-979.1-869.4-984.8-876.9-984.8-885.8z M-971.1-957.1v1.4c0,0.5,0,1.1,0,1.6l0,34.8c-5.1,1-9.7,3.3-13.7,6.3v-43.9
	c0-47.4,38.6-86,86-86c32.8,0,62.2,18.2,76.9,47.5l3.1,6.1l3,0.8c13,3.3,22.1,14.9,22.1,28.3v47.1c-4-3-8.6-5.3-13.7-6.3v-7.5
	c0-10.3-3.4-20.5-9.6-28.7c-9-12-23.3-19.1-38.2-19.1c-10,0-20,2.4-28.9,6.8l-51.4,25.7c-2.1,1-4.5,1.6-6.8,1.6
	c-8.4,0-15.3-6.8-15.3-15.3v-1.4c0-4.7,2.1-9,5.9-12.1l-1.3-1.7l-7.4-8.9C-967.2-974.2-971.1-966-971.1-957.1z M-957.5-865.4v-65.8
	c8,5,19.2,5.8,28.2,1.3l51.4-25.7c7-3.5,14.9-5.4,22.8-5.4c10.7,0,20.9,5.1,27.3,13.7c4.4,5.9,6.8,13.1,6.8,20.5v61.4
	c0,37.6-30.6,68.3-68.3,68.3C-926.9-797.1-957.5-827.7-957.5-865.4z M-889.2-783.4c9.6,0,18.8-1.7,27.3-4.8v8.8l-27.3,27.3
	l-27.3-27.3v-8.8C-908-785.2-898.8-783.4-889.2-783.4z M-925.6-769.2l25.7,25.7l-26,17.3l-10.2-40.9L-925.6-769.2z M-1053-715.7
	c0-16.2,11.5-30.3,27.4-33.5l76.1-15.2l15.1,60.3l20.5-13.7l4.1,16.3l-12.1,54.5h-62.8v-68.3h-13.7v68.3h-54.6V-715.7z
	 M-725.4-646.9H-780v-68.3h-13.7v68.3h-62.8l-12.1-54.5l4.1-16.3l20.5,13.7l15.1-60.3l76.1,15.2c15.9,3.2,27.4,17.3,27.4,33.5
	V-646.9z"/>
<linearGradient id="SVGID_8_" gradientUnits="userSpaceOnUse" x1="-841.4277" y1="-906.3101" x2="-855.0806" y2="-906.3101">
	<stop  offset="0" style="stop-color:#8EF5B6"/>
	<stop  offset="0.1499" style="stop-color:#89F1B3"/>
	<stop  offset="0.326" style="stop-color:#7BE6A9"/>
	<stop  offset="0.5152" style="stop-color:#63D499"/>
	<stop  offset="0.7137" style="stop-color:#42BB83"/>
	<stop  offset="0.9175" style="stop-color:#189B67"/>
	<stop  offset="1" style="stop-color:#058C5A"/>
</linearGradient>
<path class="st6" d="M-841.4-906.3c0,3.8-3.1,6.8-6.8,6.8s-6.8-3.1-6.8-6.8c0-3.8,3.1-6.8,6.8-6.8S-841.4-910.1-841.4-906.3z"/>
<linearGradient id="SVGID_9_" gradientUnits="userSpaceOnUse" x1="-923.345" y1="-906.3101" x2="-936.9978" y2="-906.3101">
	<stop  offset="0" style="stop-color:#8EF5B6"/>
	<stop  offset="0.1499" style="stop-color:#89F1B3"/>
	<stop  offset="0.326" style="stop-color:#7BE6A9"/>
	<stop  offset="0.5152" style="stop-color:#63D499"/>
	<stop  offset="0.7137" style="stop-color:#42BB83"/>
	<stop  offset="0.9175" style="stop-color:#189B67"/>
	<stop  offset="1" style="stop-color:#058C5A"/>
</linearGradient>
<path class="st7" d="M-923.3-906.3c0,3.8-3.1,6.8-6.8,6.8c-3.8,0-6.8-3.1-6.8-6.8c0-3.8,3.1-6.8,6.8-6.8
	C-926.4-913.1-923.3-910.1-923.3-906.3z"/>
<linearGradient id="SVGID_10_" gradientUnits="userSpaceOnUse" x1="-855.0806" y1="-841.4589" x2="-923.345" y2="-841.4589">
	<stop  offset="0" style="stop-color:#8EF5B6"/>
	<stop  offset="0.1499" style="stop-color:#89F1B3"/>
	<stop  offset="0.326" style="stop-color:#7BE6A9"/>
	<stop  offset="0.5152" style="stop-color:#63D499"/>
	<stop  offset="0.7137" style="stop-color:#42BB83"/>
	<stop  offset="0.9175" style="stop-color:#189B67"/>
	<stop  offset="1" style="stop-color:#058C5A"/>
</linearGradient>
<path class="st8" d="M-855.1-858.5h-13.7c0,11.3-9.2,20.5-20.5,20.5s-20.5-9.2-20.5-20.5h-13.7c0,18.8,15.3,34.1,34.1,34.1
	C-870.4-824.4-855.1-839.7-855.1-858.5z"/>
<linearGradient id="SVGID_11_" gradientUnits="userSpaceOnUse" x1="-560.2537" y1="-359.135" x2="-977.9464" y2="-359.135">
	<stop  offset="0" style="stop-color:#8EF5B6"/>
	<stop  offset="0.1499" style="stop-color:#89F1B3"/>
	<stop  offset="0.326" style="stop-color:#7BE6A9"/>
	<stop  offset="0.5152" style="stop-color:#63D499"/>
	<stop  offset="0.7137" style="stop-color:#42BB83"/>
	<stop  offset="0.9175" style="stop-color:#189B67"/>
	<stop  offset="1" style="stop-color:#058C5A"/>
</linearGradient>
<path class="st9" d="M-576.7-313.5l-45.6-18.2c-2.7-1.1-4.4-3.7-4.4-6.6v-22c12.2-10.9,19.9-26.7,19.9-44.3V-458
	c4.1-4.6,6.6-10.7,6.6-17.4v-19.9c0-3.4-2.8-6.2-6.2-6.2h-79.7c-11.2,0-20.8,7.1-24.5,17.1c-16.4-14.7-38.1-23.7-61.8-23.7
	c-24.2,0-46.2,9.3-62.7,24.6c-14.1-11.6-31.8-17.9-50.2-17.9c-43.7,0-79.3,35.6-79.3,79.3v79.7c0,3,2.1,5.6,5.1,6.1l40.7,7.4
	c-0.7,1.4-1.9,2.6-3.4,3.3l-40.5,18.7c-9.2,4.3-15.2,13.6-15.2,23.7v33.8c0,3.4,2.8,6.2,6.2,6.2c3.4,0,6.2-2.8,6.2-6.2v-33.8
	c0-5.3,3.1-10.2,8-12.4l32.9-15.2l26,24.2c3.7,3.5,8.5,5.2,13.3,5.2c4.8,0,9.6-1.7,13.3-5.2l16.4-15.3l29.5,8.4l-39.5,18
	c-11.7,5.3-19.2,17-19.2,29.9v29.4c0,3.4,2.8,6.2,6.2,6.2c3.4,0,6.2-2.8,6.2-6.2v-29.4c0-8,4.7-15.2,11.9-18.5l26.3-11.9l44.5,27.8
	c5.3,3.3,11.3,5,17.4,5c6.1,0,12.1-1.7,17.4-5l44.5-27.8l26.3,11.9c7.2,3.3,11.9,10.6,11.9,18.5v29.4c0,3.4,2.8,6.2,6.2,6.2
	c3.4,0,6.2-2.8,6.2-6.2v-29.4c0-12.8-7.5-24.5-19.2-29.9l-39.5-18l28.3-8.1c7.4,3.4,15.8,5.2,24.2,5.2c18.2,0,35.1-8.3,44.6-21.5
	l40.2,16.1c5.2,2.1,8.6,7.1,8.6,12.7v39.7c0,3.4,2.8,6.2,6.2,6.2c3.4,0,6.2-2.8,6.2-6.2v-39.7C-560.3-299.9-566.7-309.5-576.7-313.5
	z M-686.1-489.1h73.5v13.7c0,7.6-6.1,13.7-13.7,13.7h-39.9c-3.4,0-6.2,2.8-6.2,6.2s2.8,6.2,6.2,6.2h39.9c2.4,0,4.8-0.3,7.1-1v45.7
	c0,25.9-21.1,46.9-46.9,46.9c-4.7,0-9.3-0.7-13.7-2v-22.2c4.2,2.4,8.9,3.7,13.7,3.7c6.2,0,12.1-2.1,17.1-6c2.7-2.1,3.2-6,1.1-8.7
	c-2.1-2.7-6-3.2-8.7-1.1c-2.8,2.2-6.1,3.4-9.4,3.4c-3.4,0-6.6-1.2-9.5-3.4c-1.3-1-2.8-1.4-4.3-1.3v-20.4c0-21.6-7.5-41.5-19.9-57.3
	c0-1.4,0-2.4,0-2.5C-699.8-483-693.6-489.1-686.1-489.1z M-772.4-495.7c44.2,0,80.1,36,80.1,80.1V-314l-39.3,11.2
	c-0.9-1.9-1.4-3.9-1.4-6.1v-12.5c20-13,33.2-35.5,33.2-61v-21c0-6.1-4.3-11.4-10.3-12.6c-8.5-1.7-24.9-5.9-39.3-14.4
	c-3-1.7-6.8-0.8-8.5,2.2c-1.7,3-0.8,6.8,2.2,8.5c15.9,9.4,33.8,14,43.1,15.9c0.2,0,0.4,0.2,0.4,0.4v21c0,33.2-27,60.2-60.2,60.2
	c-33.2,0-60.2-27-60.2-60.2v-21c0-0.2,0.2-0.4,0.4-0.4c13.8-2.8,47.8-11.9,64.8-34.6c2.1-2.8,1.5-6.6-1.2-8.7
	c-2.7-2.1-6.6-1.5-8.7,1.2c-4.8,6.4-20.1,22.2-57.4,29.9c-6,1.2-10.3,6.5-10.3,12.6v21c0,25.5,13.2,48.1,33.2,61v12.5
	c0,2.1-0.5,4.2-1.4,6.1l-39.3-11.2v-101.6C-852.6-459.8-816.6-495.7-772.4-495.7z M-952.2-422.2c0-36.9,30-66.9,66.9-66.9
	c15.2,0,29.8,5.1,41.6,14.5c-8.9,10.8-15.5,23.7-18.8,37.7c-12.2-4.6-27.3-11.9-38.3-23c-2.4-2.4-6.4-2.4-8.8,0
	c-2.4,2.4-2.4,6.4,0,8.8c11,11,26.1,20,45.1,26.7c-0.3,2.9-0.4,5.8-0.4,8.7v55.6c-6.3,3-13.3,4.6-20.4,4.6
	c-25.9,0-46.9-21.1-46.9-46.9v-14.4c0-1.9,0.7-3.7,2.1-5l9.4-9.4c2.4-2.4,2.4-6.4,0-8.8c-2.4-2.4-6.4-2.4-8.8,0l-9.4,9.4
	c-3.7,3.7-5.7,8.6-5.7,13.8v14.4c0,20.6,10.6,38.8,26.6,49.5v11.3l-34.1-6.2V-422.2z M-880.5-295.8c-2.7,2.5-6.9,2.5-9.6,0
	l-22.7-21.2c4.5-3.7,7.2-9.2,7.2-15.1v-14.4c6.4,2.3,13.2,3.6,20.4,3.6c7,0,13.9-1.2,20.4-3.6v36.3L-880.5-295.8z M-761.6-258.9
	c-6.6,4.1-15,4.1-21.6,0l-37.5-23.4l5.9-2.7c9.3-4.2,15.3-13.6,15.3-23.8v-6.1c8.3,3.4,17.5,5.2,27,5.2c9.5,0,18.6-1.9,27-5.2v6.1
	c0,10.2,6,19.6,15.3,23.8l5.9,2.7L-761.6-258.9z M-666.1-308.9c-4.7,0-9.3-0.7-13.7-2v-35.8c4.5,1.1,9,1.6,13.7,1.6
	c9.7,0,18.9-2.4,27-6.5v13.4c0,5.7,2.4,10.8,6.4,14.5C-640.1-314.6-652.6-308.9-666.1-308.9z"/>
<linearGradient id="SVGID_12_" gradientUnits="userSpaceOnUse" x1="-633.3312" y1="-418.928" x2="-645.7733" y2="-418.928">
	<stop  offset="0" style="stop-color:#8EF5B6"/>
	<stop  offset="0.1499" style="stop-color:#89F1B3"/>
	<stop  offset="0.326" style="stop-color:#7BE6A9"/>
	<stop  offset="0.5152" style="stop-color:#63D499"/>
	<stop  offset="0.7137" style="stop-color:#42BB83"/>
	<stop  offset="0.9175" style="stop-color:#189B67"/>
	<stop  offset="1" style="stop-color:#058C5A"/>
</linearGradient>
<path class="st10" d="M-639.6-409.4c3.4,0,6.2-2.8,6.2-6.2v-6.6c0-3.4-2.8-6.2-6.2-6.2c-3.4,0-6.2,2.8-6.2,6.2v6.6
	C-645.8-412.2-643-409.4-639.6-409.4z"/>
<linearGradient id="SVGID_13_" gradientUnits="userSpaceOnUse" x1="-905.7146" y1="-412.2842" x2="-918.1566" y2="-412.2842">
	<stop  offset="0" style="stop-color:#8EF5B6"/>
	<stop  offset="0.1499" style="stop-color:#89F1B3"/>
	<stop  offset="0.326" style="stop-color:#7BE6A9"/>
	<stop  offset="0.5152" style="stop-color:#63D499"/>
	<stop  offset="0.7137" style="stop-color:#42BB83"/>
	<stop  offset="0.9175" style="stop-color:#189B67"/>
	<stop  offset="1" style="stop-color:#058C5A"/>
</linearGradient>
<path class="st11" d="M-911.9-402.7c3.4,0,6.2-2.8,6.2-6.2v-6.6c0-3.4-2.8-6.2-6.2-6.2c-3.4,0-6.2,2.8-6.2,6.2v6.6
	C-918.2-405.5-915.4-402.7-911.9-402.7z"/>
<linearGradient id="SVGID_14_" gradientUnits="userSpaceOnUse" x1="-865.8516" y1="-380.416" x2="-904.8704" y2="-380.416">
	<stop  offset="0" style="stop-color:#8EF5B6"/>
	<stop  offset="0.1499" style="stop-color:#89F1B3"/>
	<stop  offset="0.326" style="stop-color:#7BE6A9"/>
	<stop  offset="0.5152" style="stop-color:#63D499"/>
	<stop  offset="0.7137" style="stop-color:#42BB83"/>
	<stop  offset="0.9175" style="stop-color:#189B67"/>
	<stop  offset="1" style="stop-color:#058C5A"/>
</linearGradient>
<path class="st12" d="M-902.1-377.2c4.9,3.2,10.7,5,16.7,5c6,0,11.8-1.7,16.7-5c2.9-1.9,3.7-5.7,1.8-8.6c-1.9-2.9-5.7-3.7-8.6-1.8
	c-2.9,1.9-6.3,2.9-9.9,2.9c-3.5,0-7-1-9.9-2.9c-2.9-1.9-6.7-1.1-8.6,1.8C-905.7-382.9-904.9-379.1-902.1-377.2z"/>
<linearGradient id="SVGID_15_" gradientUnits="userSpaceOnUse" x1="-739.6262" y1="-352.4944" x2="-805.2162" y2="-352.4944">
	<stop  offset="0" style="stop-color:#8EF5B6"/>
	<stop  offset="0.1499" style="stop-color:#89F1B3"/>
	<stop  offset="0.326" style="stop-color:#7BE6A9"/>
	<stop  offset="0.5152" style="stop-color:#63D499"/>
	<stop  offset="0.7137" style="stop-color:#42BB83"/>
	<stop  offset="0.9175" style="stop-color:#189B67"/>
	<stop  offset="1" style="stop-color:#058C5A"/>
</linearGradient>
<path class="st13" d="M-804.2-365.9c-1.2,1.7-1.4,3.9-0.6,5.8c5.8,14.5,18.5,23.8,32.3,23.8c13.8,0,26.5-9.4,32.3-23.8
	c0.8-1.9,0.5-4.1-0.6-5.8c-1.2-1.7-3.1-2.7-5.2-2.7H-799C-801.1-368.7-803-367.7-804.2-365.9z M-756.8-356.2
	c-4.2,4.8-9.7,7.5-15.6,7.5c-5.9,0-11.4-2.7-15.6-7.5H-756.8z"/>
<linearGradient id="SVGID_16_" gradientUnits="userSpaceOnUse" x1="-786.1294" y1="-398.9963" x2="-818.5057" y2="-398.9963">
	<stop  offset="0" style="stop-color:#8EF5B6"/>
	<stop  offset="0.1499" style="stop-color:#89F1B3"/>
	<stop  offset="0.326" style="stop-color:#7BE6A9"/>
	<stop  offset="0.5152" style="stop-color:#63D499"/>
	<stop  offset="0.7137" style="stop-color:#42BB83"/>
	<stop  offset="0.9175" style="stop-color:#189B67"/>
	<stop  offset="1" style="stop-color:#058C5A"/>
</linearGradient>
<path class="st14" d="M-798.2-393.5c0.9,2.5,3.3,4,5.8,4c0.7,0,1.5-0.1,2.2-0.4c3.2-1.2,4.8-4.8,3.6-8c-2.4-6.4-8.8-10.7-15.8-10.7
	c-7,0-13.4,4.3-15.8,10.7c-1.2,3.2,0.4,6.8,3.6,8c3.2,1.2,6.8-0.4,8-3.6c0.5-1.3,2-2.6,4.1-2.6
	C-800.1-396.1-798.7-394.8-798.2-393.5z"/>
<linearGradient id="SVGID_17_" gradientUnits="userSpaceOnUse" x1="-726.3383" y1="-398.9963" x2="-758.7144" y2="-398.9963">
	<stop  offset="0" style="stop-color:#8EF5B6"/>
	<stop  offset="0.1499" style="stop-color:#89F1B3"/>
	<stop  offset="0.326" style="stop-color:#7BE6A9"/>
	<stop  offset="0.5152" style="stop-color:#63D499"/>
	<stop  offset="0.7137" style="stop-color:#42BB83"/>
	<stop  offset="0.9175" style="stop-color:#189B67"/>
	<stop  offset="1" style="stop-color:#058C5A"/>
</linearGradient>
<path class="st15" d="M-754.7-389.9c3.2,1.2,6.8-0.4,8-3.6c0.5-1.3,2-2.6,4.1-2.6s3.7,1.3,4.1,2.6c0.9,2.5,3.3,4,5.8,4
	c0.7,0,1.5-0.1,2.2-0.4c3.2-1.2,4.8-4.8,3.6-8c-2.4-6.4-8.8-10.7-15.8-10.7c-7,0-13.4,4.3-15.8,10.7
	C-759.5-394.7-757.9-391.1-754.7-389.9z"/>
<g>
	<g>
		<g>
			<linearGradient id="SVGID_18_" gradientUnits="userSpaceOnUse" x1="-301.9042" y1="-755.3715" x2="-318.3885" y2="-755.3715">
				<stop  offset="0" style="stop-color:#8EF5B6"/>
				<stop  offset="0.1499" style="stop-color:#89F1B3"/>
				<stop  offset="0.326" style="stop-color:#7BE6A9"/>
				<stop  offset="0.5152" style="stop-color:#63D499"/>
				<stop  offset="0.7137" style="stop-color:#42BB83"/>
				<stop  offset="0.9175" style="stop-color:#189B67"/>
				<stop  offset="1" style="stop-color:#058C5A"/>
			</linearGradient>
			<path class="st16" d="M-310.1-763.6c-4.5,0-8.2,3.7-8.2,8.2c0,4.5,3.7,8.2,8.2,8.2s8.2-3.7,8.2-8.2
				C-301.9-759.9-305.6-763.6-310.1-763.6z"/>
		</g>
	</g>
	<g>
		<g>
			<linearGradient id="SVGID_19_" gradientUnits="userSpaceOnUse" x1="-211.2401" y1="-879.0043" x2="-590.3807" y2="-879.0043">
				<stop  offset="0" style="stop-color:#8EF5B6"/>
				<stop  offset="0.1499" style="stop-color:#89F1B3"/>
				<stop  offset="0.326" style="stop-color:#7BE6A9"/>
				<stop  offset="0.5152" style="stop-color:#63D499"/>
				<stop  offset="0.7137" style="stop-color:#42BB83"/>
				<stop  offset="0.9175" style="stop-color:#189B67"/>
				<stop  offset="1" style="stop-color:#058C5A"/>
			</linearGradient>
			<path class="st17" d="M-289.9-790.3l-39.2-13.1l-14.1-28.1c12.7-12.9,21.5-30,24.4-47.8l1.8-10.5h15c13.6,0,24.7-11.1,24.7-24.7
				v-51.9c0-68.2-55.5-123.6-123.6-123.6c-68.3,0-123.6,55.3-123.6,123.6v51.9c0,10.7,6.9,19.9,16.5,23.3v9.7
				c0,13.6,11.1,24.7,24.7,24.7h7.2c3.6,7.8,8.2,15,13.8,21.4c1.2,1.3,2.4,2.6,3.6,3.9l-14.1,28.1l-39.2,13.1
				c-45.6,15.2-78.6,63.1-78.6,114c0,4.6,3.7,8.2,8.2,8.2h362.7c4.6,0,8.2-3.7,8.2-8.2C-211.2-727.1-244.3-775.1-289.9-790.3z
				 M-293.7-914.4c0,4.5-3.7,8.2-8.2,8.2h-12.6c2.1-16.2,3.5-33.5,4.1-50.5c0-0.5,0-0.9,0-1.4h16.7V-914.4z M-499.7-906.2
				c-4.5,0-8.2-3.7-8.2-8.2v-43.7h16.7c0,0.9,0.1,1.7,0.1,2.6c0,0,0,0.1,0,0.1c0,0,0,0,0,0c0.6,16.5,2,33.4,4,49.2L-499.7-906.2
				L-499.7-906.2z M-483.2-873.2c-4.5,0-8.2-3.7-8.2-8.2v-8.2h6.8l1.8,10.5c0.3,2,0.7,4,1.2,6H-483.2z M-491.5-974.6h-16.2
				c4.2-55.2,50.3-98.9,106.8-98.9c56.3,0,102.6,43.7,106.8,98.9h-16.2c-0.6-45.5-37.7-82.4-83.3-82.4h-14.8
				C-453.8-1057-490.9-1020.1-491.5-974.6z M-408.2-1040.6h14.8c36.9,0,66.8,30.2,66.8,67.1c0,2.6,0,4.9-0.1,6.9c0,0,0,0.1,0,0.1
				l-10.3-1.5c-28-4-54.5-17.2-74.5-37.2c-1.5-1.5-3.6-2.4-5.8-2.4c-22.1,0-43.3,10.1-57.3,27.1
				C-471.2-1014-442.8-1040.6-408.2-1040.6z M-464.7-873.2c-4.1-13.7-8.8-54.1-9.9-80l11.1-14.8c10.2-13.6,26-22,42.9-23
				c22.2,21.1,50.9,35.1,81.2,39.4l12.1,1.7c-0.8,17.2-2.5,34.5-4.8,50.4c0,0,0,0,0,0c-0.8,5.1-1.4,8.4-2.9,17.6
				c-4.4,26.2-23.9,49.9-49.7,56.3c-10.6,2.6-21.8,2.6-32.4,0c-16.1-4-30.9-15.2-40.4-31.1h16.8c3.4,9.6,12.6,16.5,23.3,16.5h16.5
				c13.7,0,24.7-11.1,24.7-24.7c0-13.6-11.1-24.7-24.7-24.7h-16.5c-11,0-20,7.1-23.3,16.5H-464.7z M-418-808.9
				c5.7,1.2,11.4,1.8,17.2,1.8c4.5,0,9-0.4,13.5-1.1l-14.6,15.4L-418-808.9z M-413.2-780.9l-26.1,27.6
				c-7.2-13.8-13.4-28.1-18.5-42.8l9.8-19.6L-413.2-780.9z M-355-818.4l11.2,22.4c-5.1,14.7-11.3,29-18.5,42.8l-28-28L-355-818.4z
				 M-425.5-865c0-4.6,3.7-8.2,8.2-8.2h16.5c4.5,0,8.2,3.7,8.2,8.2c0,4.6-3.7,8.2-8.2,8.2h-16.5C-421.8-856.8-425.5-860.4-425.5-865
				z M-573.6-684.5c3.3-40.8,30.4-77.9,67-90.1l34.7-11.6c6.4,17.6,14.2,34.7,23.5,50.9c0,0,0,0.1,0,0.1c0,0,0,0,0,0
				c6.7,11.9,14.3,23.4,22.6,34.5l10.1,16.3H-573.6z M-400.8-691.8l-11.2-17.9c-0.1-0.2-0.3-0.4-0.4-0.6
				c-6.7-8.9-12.9-18.2-18.6-27.7l29.4-31.1l31,31c-5.7,9.6-12,18.9-18.6,27.9C-389.6-709.8-389.1-710.7-400.8-691.8z M-386-684.5
				l10.1-16.3c8.3-11,15.9-22.7,22.7-34.7c0-0.1,0.1-0.1,0.1-0.2c0,0,0,0,0,0c9.1-16.1,16.9-33,23.2-50.5l34.7,11.6
				c36.6,12.2,63.7,49.3,67,90.1H-386L-386-684.5z"/>
		</g>
	</g>
	<g>
		<g>
			<linearGradient id="SVGID_20_" gradientUnits="userSpaceOnUse" x1="-251.9553" y1="-726.8987" x2="-289.4262" y2="-726.8987">
				<stop  offset="0" style="stop-color:#8EF5B6"/>
				<stop  offset="0.1499" style="stop-color:#89F1B3"/>
				<stop  offset="0.326" style="stop-color:#7BE6A9"/>
				<stop  offset="0.5152" style="stop-color:#63D499"/>
				<stop  offset="0.7137" style="stop-color:#42BB83"/>
				<stop  offset="0.9175" style="stop-color:#189B67"/>
				<stop  offset="1" style="stop-color:#058C5A"/>
			</linearGradient>
			<path class="st18" d="M-252.8-717.8c-5.5-11-13.6-20.8-23.3-28.3c-3.6-2.8-8.8-2.1-11.6,1.5c-2.8,3.6-2.1,8.8,1.5,11.6
				c7.8,6,14.2,13.8,18.6,22.6c2,4.1,7,5.7,11.1,3.7C-252.4-708.8-250.8-713.8-252.8-717.8z"/>
		</g>
	</g>
</g>
<linearGradient id="SVGID_21_" gradientUnits="userSpaceOnUse" x1="-633.8017" y1="104.7373" x2="-1053.7061" y2="104.7373">
	<stop  offset="0" style="stop-color:#8EF5B6"/>
	<stop  offset="0.1499" style="stop-color:#89F1B3"/>
	<stop  offset="0.326" style="stop-color:#7BE6A9"/>
	<stop  offset="0.5152" style="stop-color:#63D499"/>
	<stop  offset="0.7137" style="stop-color:#42BB83"/>
	<stop  offset="0.9175" style="stop-color:#189B67"/>
	<stop  offset="1" style="stop-color:#058C5A"/>
</linearGradient>
<path class="st19" d="M-763.4,314.7c-55.3,0-116.3-34.5-186.4-104.5c-68.9-68.8-103.9-132.5-103.9-189.3c0-36.4,14.2-68.9,42.2-96.9
	c12.5-12.4,27.5-21.9,44-27.9c9.9-3.6,21.1-0.2,27.2,8.4l53.3,74.1c7.2,10.1,5.4,24.1-4.2,32l-42.4,33.1c-3.3,2.5-4.2,7.1-2.1,10.7
	c17.7,28.7,38.8,55.1,62.8,78.8c23.8,24,50.3,45,79,62.7c3.6,2.1,8.2,1.2,10.8-2.1l33.1-42.1c7.9-9.7,21.9-11.6,32.1-4.4l74.3,53.2
	c8.6,6.2,12,17.3,8.4,27.2c-3.1,8.3-7,16.2-11.7,23.7c-4.7,7.3-10.1,14.1-16.3,20.3c-3.3,3.3-6.8,6.4-10.5,9.3
	C-702.1,303.5-731.9,314.7-763.4,314.7z M-959.2-81.8c-13.5,4.7-25.7,12.3-35.8,22.4c-23.4,23.4-35.3,50.5-35.3,80.4
	c0,50.4,32.6,108.5,97,172.8c130,129.8,199.4,105.1,245.3,69c2.9-2.3,5.8-4.8,8.4-7.5c4.9-4.9,9.3-10.4,13.1-16.3
	c3.8-6.1,7-12.5,9.5-19.3l-74.4-53.4l-33.2,41.9c-9.8,12.6-27.5,15.9-41.2,7.6l0,0c-30.3-18.7-58.3-40.9-83.4-66.1
	c-25.3-25-47.5-52.9-66.2-83.2c-8.3-13.7-5-31.4,7.6-41.2l42.2-33L-959.2-81.8z"/>
<g>
	<linearGradient id="SVGID_22_" gradientUnits="userSpaceOnUse" x1="409.2967" y1="272.8624" x2="253.8966" y2="272.8624">
		<stop  offset="0" style="stop-color:#8EF5B6"/>
		<stop  offset="0.1499" style="stop-color:#89F1B3"/>
		<stop  offset="0.326" style="stop-color:#7BE6A9"/>
		<stop  offset="0.5152" style="stop-color:#63D499"/>
		<stop  offset="0.7137" style="stop-color:#42BB83"/>
		<stop  offset="0.9175" style="stop-color:#189B67"/>
		<stop  offset="1" style="stop-color:#058C5A"/>
	</linearGradient>
	<path class="st20" d="M253.9,272.9c0-43,34.7-77.7,77.7-77.7s77.7,34.7,77.7,77.7s-34.7,77.7-77.7,77.7S253.9,315.9,253.9,272.9z
		 M277.8,272.9c0,29.9,23.9,53.8,53.8,53.8s53.8-23.9,53.8-53.8s-23.9-53.8-53.8-53.8S277.8,243,277.8,272.9z"/>
</g>
<g>
	<linearGradient id="SVGID_23_" gradientUnits="userSpaceOnUse" x1="360.2859" y1="273.4601" x2="302.9074" y2="273.4601">
		<stop  offset="0" style="stop-color:#8EF5B6"/>
		<stop  offset="0.1499" style="stop-color:#89F1B3"/>
		<stop  offset="0.326" style="stop-color:#7BE6A9"/>
		<stop  offset="0.5152" style="stop-color:#63D499"/>
		<stop  offset="0.7137" style="stop-color:#42BB83"/>
		<stop  offset="0.9175" style="stop-color:#189B67"/>
		<stop  offset="1" style="stop-color:#058C5A"/>
	</linearGradient>
	<path class="st21" d="M302.9,273.5c0-15.5,13.1-28.7,28.7-28.7s28.7,13.1,28.7,28.7c0,15.5-12.6,28.7-28.7,28.7
		C315.5,302.1,302.9,289,302.9,273.5z M326.8,272.9c0,2.4,2.4,4.8,4.8,4.8s4.8-2.4,4.8-4.8s-2.4-4.8-4.8-4.8
		S326.8,270.5,326.8,272.9z"/>
</g>
<g>
	<linearGradient id="SVGID_24_" gradientUnits="userSpaceOnUse" x1="100.8872" y1="291.9886" x2="4.061" y2="291.9886">
		<stop  offset="0" style="stop-color:#8EF5B6"/>
		<stop  offset="0.1499" style="stop-color:#89F1B3"/>
		<stop  offset="0.326" style="stop-color:#7BE6A9"/>
		<stop  offset="0.5152" style="stop-color:#63D499"/>
		<stop  offset="0.7137" style="stop-color:#42BB83"/>
		<stop  offset="0.9175" style="stop-color:#189B67"/>
		<stop  offset="1" style="stop-color:#058C5A"/>
	</linearGradient>
	<path class="st22" d="M4.1,292c0-26.9,21.5-48.4,48.4-48.4s48.4,21.5,48.4,48.4s-21.5,48.4-48.4,48.4S4.1,318.3,4.1,292z M28,291.4
		c0,13.1,11.4,24.5,24.5,24.5S77,304.5,77,291.4c0-13.1-10.8-24.5-24.5-24.5S28,278.2,28,291.4z"/>
</g>
<g>
	<linearGradient id="SVGID_25_" gradientUnits="userSpaceOnUse" x1="262.8619" y1="287.207" x2="95.508" y2="287.207">
		<stop  offset="0" style="stop-color:#8EF5B6"/>
		<stop  offset="0.1499" style="stop-color:#89F1B3"/>
		<stop  offset="0.326" style="stop-color:#7BE6A9"/>
		<stop  offset="0.5152" style="stop-color:#63D499"/>
		<stop  offset="0.7137" style="stop-color:#42BB83"/>
		<stop  offset="0.9175" style="stop-color:#189B67"/>
		<stop  offset="1" style="stop-color:#058C5A"/>
	</linearGradient>
	<rect x="95.5" y="275.3" class="st23" width="167.4" height="23.9"/>
</g>
<g>
	<linearGradient id="SVGID_26_" gradientUnits="userSpaceOnUse" x1="209.0696" y1="236.4031" x2="35.7387" y2="236.4031">
		<stop  offset="0" style="stop-color:#8EF5B6"/>
		<stop  offset="0.1499" style="stop-color:#89F1B3"/>
		<stop  offset="0.326" style="stop-color:#7BE6A9"/>
		<stop  offset="0.5152" style="stop-color:#63D499"/>
		<stop  offset="0.7137" style="stop-color:#42BB83"/>
		<stop  offset="0.9175" style="stop-color:#189B67"/>
		<stop  offset="1" style="stop-color:#058C5A"/>
	</linearGradient>
	<polygon class="st24" points="185.2,287.2 209.1,287.2 209.1,197.6 197.1,185.6 47.7,185.6 35.7,197.6 35.7,257.3 59.6,257.3 
		59.6,209.5 185.2,209.5 	"/>
</g>
<g>
	<linearGradient id="SVGID_27_" gradientUnits="userSpaceOnUse" x1="119.4157" y1="155.7146" x2="95.508" y2="155.7146">
		<stop  offset="0" style="stop-color:#8EF5B6"/>
		<stop  offset="0.1499" style="stop-color:#89F1B3"/>
		<stop  offset="0.326" style="stop-color:#7BE6A9"/>
		<stop  offset="0.5152" style="stop-color:#63D499"/>
		<stop  offset="0.7137" style="stop-color:#42BB83"/>
		<stop  offset="0.9175" style="stop-color:#189B67"/>
		<stop  offset="1" style="stop-color:#058C5A"/>
	</linearGradient>
	<rect x="95.5" y="119.9" class="st25" width="23.9" height="71.7"/>
</g>
<g>
	<linearGradient id="SVGID_28_" gradientUnits="userSpaceOnUse" x1="352.5159" y1="134.7953" x2="185.1619" y2="134.7953">
		<stop  offset="0" style="stop-color:#8EF5B6"/>
		<stop  offset="0.1499" style="stop-color:#89F1B3"/>
		<stop  offset="0.326" style="stop-color:#7BE6A9"/>
		<stop  offset="0.5152" style="stop-color:#63D499"/>
		<stop  offset="0.7137" style="stop-color:#42BB83"/>
		<stop  offset="0.9175" style="stop-color:#189B67"/>
		<stop  offset="1" style="stop-color:#058C5A"/>
	</linearGradient>
	<polygon class="st26" points="185.2,197.6 209.1,197.6 209.1,95.9 328.6,95.9 328.6,197.6 352.5,197.6 352.5,84 340.6,72 197.1,72 
		185.2,84 	"/>
</g>
<g>
	<linearGradient id="SVGID_29_" gradientUnits="userSpaceOnUse" x1="307.5466" y1="164.68" x2="230.1311" y2="164.68">
		<stop  offset="0" style="stop-color:#8EF5B6"/>
		<stop  offset="0.1499" style="stop-color:#89F1B3"/>
		<stop  offset="0.326" style="stop-color:#7BE6A9"/>
		<stop  offset="0.5152" style="stop-color:#63D499"/>
		<stop  offset="0.7137" style="stop-color:#42BB83"/>
		<stop  offset="0.9175" style="stop-color:#189B67"/>
		<stop  offset="1" style="stop-color:#058C5A"/>
	</linearGradient>
	<path class="st27" d="M230.1,205.8v-82.3l9.7-9.7h58.1l9.7,9.7v44.5l-8.7,9.7c-14.5,1.5-30.5,14.5-39.2,32.4l-8.7,5.3h-11.1
		L230.1,205.8z M288.2,133.2h-38.7v56.6c10.2-14.5,24.2-25.2,38.7-29.5V133.2z"/>
</g>
<g>
	<linearGradient id="SVGID_30_" gradientUnits="userSpaceOnUse" x1="250.9081" y1="317.0916" x2="203.0927" y2="317.0916">
		<stop  offset="0" style="stop-color:#8EF5B6"/>
		<stop  offset="0.1499" style="stop-color:#89F1B3"/>
		<stop  offset="0.326" style="stop-color:#7BE6A9"/>
		<stop  offset="0.5152" style="stop-color:#63D499"/>
		<stop  offset="0.7137" style="stop-color:#42BB83"/>
		<stop  offset="0.9175" style="stop-color:#189B67"/>
		<stop  offset="1" style="stop-color:#058C5A"/>
	</linearGradient>
	<rect x="203.1" y="305.1" class="st28" width="47.8" height="23.9"/>
</g>
<g>
	<linearGradient id="SVGID_31_" gradientUnits="userSpaceOnUse" x1="424.239" y1="269.2762" x2="400.3313" y2="269.2762">
		<stop  offset="0" style="stop-color:#8EF5B6"/>
		<stop  offset="0.1499" style="stop-color:#89F1B3"/>
		<stop  offset="0.326" style="stop-color:#7BE6A9"/>
		<stop  offset="0.5152" style="stop-color:#63D499"/>
		<stop  offset="0.7137" style="stop-color:#42BB83"/>
		<stop  offset="0.9175" style="stop-color:#189B67"/>
		<stop  offset="1" style="stop-color:#058C5A"/>
	</linearGradient>
	<rect x="400.3" y="257.3" class="st29" width="23.9" height="23.9"/>
</g>
<g>
	<rect x="155.3" y="72" class="st30" width="47.8" height="23.9"/>
</g>
</svg>
