<?xml version="1.0" encoding="utf-8"?>
<!-- Generator: Adobe Illustrator 23.0.3, SVG Export Plug-In . SVG Version: 6.00 Build 0)  -->
<svg version="1.1" id="Layer_1" xmlns="http://www.w3.org/2000/svg" xmlns:xlink="http://www.w3.org/1999/xlink" x="0px" y="0px"
	 viewBox="0 0 60 56" style="enable-background:new 0 0 60 56;" xml:space="preserve">
<style type="text/css">
	.st0{fill:url(#SVGID_1_);}
	.st1{fill:url(#SVGID_2_);}
	.st2{fill:url(#SVGID_3_);}
	.st3{fill:url(#SVGID_4_);}
	.st4{fill:url(#SVGID_5_);}
	.st5{fill:url(#SVGID_6_);}
	.st6{fill:url(#SVGID_7_);}
	.st7{fill:url(#SVGID_8_);}
	.st8{fill:url(#SVGID_9_);}
	.st9{fill:url(#SVGID_10_);}
	.st10{fill:url(#SVGID_11_);}
</style>
<g>
	<linearGradient id="SVGID_1_" gradientUnits="userSpaceOnUse" x1="15.9986" y1="38" x2="39" y2="38">
		<stop  offset="0" style="stop-color:#1D976C"/>
		<stop  offset="1" style="stop-color:#93F9B9"/>
	</linearGradient>
	<path class="st0" d="M36,27c-0.3,0-0.7,0.1-1,0.2V27c0-1.7-1.3-3-3-3c-0.3,0-0.7,0.1-1,0.2V23c0-1.7-1.3-3-3-3s-3,1.3-3,3v0.2
		c-0.3-0.1-0.7-0.2-1-0.2c-1.7,0-3,1.3-3,3v7.1c-3.3,0.6-5.5,3.7-4.9,7c0.3,1.8,1.4,3.3,2.9,4.2l2.9,1.7c0.7,0.4,1.1,1.1,1.1,1.9V49
		h-1c-0.6,0-1,0.4-1,1v5c0,0.6,0.4,1,1,1h16c0.6,0,1-0.4,1-1v-5c0-0.6-0.4-1-1-1h-1v-2.8c1.3-2.7,2-5.7,2-8.7V30
		C39,28.3,37.7,27,36,27z M37,54H23v-3h14V54z M37,37.5c0,2.8-0.7,5.5-1.9,8C35,45.7,35,45.8,35,46v3H25v-1.2c0-1.5-0.8-2.9-2.1-3.6
		L20,42.6c-1.3-0.7-2-2.1-2-3.6c0-1.8,1.2-3.4,3-3.9V38h2V26c0-0.6,0.4-1,1-1s1,0.4,1,1v7h2V23c0-0.6,0.4-1,1-1s1,0.4,1,1v11h2v-7
		c0-0.6,0.4-1,1-1s1,0.4,1,1v8h2v-5c0-0.6,0.4-1,1-1s1,0.4,1,1V37.5z"/>
	<linearGradient id="SVGID_2_" gradientUnits="userSpaceOnUse" x1="34" y1="15.0001" x2="60" y2="15.0001">
		<stop  offset="0" style="stop-color:#1D976C"/>
		<stop  offset="1" style="stop-color:#93F9B9"/>
	</linearGradient>
	<path class="st1" d="M57,4H37c-1.7,0-3,1.3-3,3v12c0,1.7,1.3,3,3,3h2v3c0,0.6,0.4,1,1,1c0.2,0,0.4-0.1,0.6-0.2l5.7-3.8H57
		c1.7,0,3-1.3,3-3V7C60,5.3,58.7,4,57,4z M58,19c0,0.6-0.4,1-1,1H46c-0.2,0-0.4,0.1-0.6,0.2l-4.4,3V21c0-0.6-0.4-1-1-1h-3
		c-0.6,0-1-0.4-1-1V7c0-0.6,0.4-1,1-1h20c0.6,0,1,0.4,1,1V19z"/>
	<linearGradient id="SVGID_3_" gradientUnits="userSpaceOnUse" x1="0" y1="10.9991" x2="26" y2="10.9991">
		<stop  offset="0" style="stop-color:#1D976C"/>
		<stop  offset="1" style="stop-color:#93F9B9"/>
	</linearGradient>
	<path class="st2" d="M20.8,21.6c0.1-0.2,0.2-0.4,0.2-0.6v-3h2c1.7,0,3-1.3,3-3V3c0-1.7-1.3-3-3-3H3C1.3,0,0,1.3,0,3v12
		c0,1.7,1.3,3,3,3h10.7l5.7,3.8C19.9,22.1,20.5,22,20.8,21.6z M19,17v2.1l-4.4-3C14.4,16.1,14.2,16,14,16H3c-0.6,0-1-0.4-1-1V3
		c0-0.6,0.4-1,1-1h20c0.6,0,1,0.4,1,1v12c0,0.6-0.4,1-1,1h-3C19.4,16,19,16.4,19,17z"/>
	<linearGradient id="SVGID_4_" gradientUnits="userSpaceOnUse" x1="7" y1="5" x2="9" y2="5">
		<stop  offset="0" style="stop-color:#1D976C"/>
		<stop  offset="1" style="stop-color:#93F9B9"/>
	</linearGradient>
	<rect x="7" y="4" class="st3" width="2" height="2"/>
	<linearGradient id="SVGID_5_" gradientUnits="userSpaceOnUse" x1="11" y1="5" x2="21" y2="5">
		<stop  offset="0" style="stop-color:#1D976C"/>
		<stop  offset="1" style="stop-color:#93F9B9"/>
	</linearGradient>
	<rect x="11" y="4" class="st4" width="10" height="2"/>
	<linearGradient id="SVGID_6_" gradientUnits="userSpaceOnUse" x1="5" y1="9" x2="21" y2="9">
		<stop  offset="0" style="stop-color:#1D976C"/>
		<stop  offset="1" style="stop-color:#93F9B9"/>
	</linearGradient>
	<rect x="5" y="8" class="st5" width="16" height="2"/>
	<linearGradient id="SVGID_7_" gradientUnits="userSpaceOnUse" x1="5" y1="13" x2="17" y2="13">
		<stop  offset="0" style="stop-color:#1D976C"/>
		<stop  offset="1" style="stop-color:#93F9B9"/>
	</linearGradient>
	<rect x="5" y="12" class="st6" width="12" height="2"/>
	<linearGradient id="SVGID_8_" gradientUnits="userSpaceOnUse" x1="41" y1="9" x2="43" y2="9">
		<stop  offset="0" style="stop-color:#1D976C"/>
		<stop  offset="1" style="stop-color:#93F9B9"/>
	</linearGradient>
	<rect x="41" y="8" class="st7" width="2" height="2"/>
	<linearGradient id="SVGID_9_" gradientUnits="userSpaceOnUse" x1="45" y1="9" x2="55" y2="9">
		<stop  offset="0" style="stop-color:#1D976C"/>
		<stop  offset="1" style="stop-color:#93F9B9"/>
	</linearGradient>
	<rect x="45" y="8" class="st8" width="10" height="2"/>
	<linearGradient id="SVGID_10_" gradientUnits="userSpaceOnUse" x1="39" y1="13" x2="55" y2="13">
		<stop  offset="0" style="stop-color:#1D976C"/>
		<stop  offset="1" style="stop-color:#93F9B9"/>
	</linearGradient>
	<rect x="39" y="12" class="st9" width="16" height="2"/>
	<linearGradient id="SVGID_11_" gradientUnits="userSpaceOnUse" x1="39" y1="17" x2="51" y2="17">
		<stop  offset="0" style="stop-color:#1D976C"/>
		<stop  offset="1" style="stop-color:#93F9B9"/>
	</linearGradient>
	<rect x="39" y="16" class="st10" width="12" height="2"/>
</g>
</svg>
