<?xml version="1.0" encoding="utf-8"?>
<!-- Generator: Adobe Illustrator 16.0.4, SVG Export Plug-In . SVG Version: 6.00 Build 0)  -->
<!DOCTYPE svg PUBLIC "-//W3C//DTD SVG 1.1//EN" "http://www.w3.org/Graphics/SVG/1.1/DTD/svg11.dtd">
<svg version="1.1" id="Layer_1" xmlns="http://www.w3.org/2000/svg" xmlns:xlink="http://www.w3.org/1999/xlink" x="0px" y="0px"
	 width="90px" height="88px" viewBox="0 0 90 88" enable-background="new 0 0 90 88" xml:space="preserve">
<g>
	<defs>
		<rect id="SVGID_1_" width="90" height="88"/>
	</defs>
	<clipPath id="SVGID_2_">
		<use xlink:href="#SVGID_1_"  overflow="visible"/>
	</clipPath>
	<path clip-path="url(#SVGID_2_)" fill="#95D29D" d="M24.782,1.01C23.798,1.118,22.979,2.053,23,3.04v13.994
		c-0.015,1.056,0.944,2.027,2.001,2.027c1.056,0,2.015-0.971,2-2.027V3.04C27.024,1.906,25.91,0.886,24.782,1.01 M64.781,1.01
		c-0.982,0.108-1.803,1.043-1.782,2.03v13.994c-0.014,1.056,0.944,2.027,2.002,2.027c1.056,0,2.014-0.971,2-2.027V3.04
		C67.024,1.906,65.909,0.886,64.781,1.01 M12,8.038c-6.06,0-11,4.938-11,10.995v56.973C1,82.061,5.94,87,12,87h66
		c6.059,0,11-4.939,11-10.994V19.033c0-6.057-4.941-10.995-11-10.995h-5c-1.058-0.015-2.029,0.943-2.029,1.999
		c0,1.056,0.972,2.014,2.029,1.999h5c3.911,0,7,3.086,7,6.997v56.973c0,3.91-3.089,6.996-7,6.996H12c-3.913,0-7-3.086-7-6.996
		V30.027h74c1.056,0.015,2.027-0.942,2.027-1.999c0-1.056-0.972-2.013-2.027-1.999H5v-6.996c0-3.911,3.087-6.997,7-6.997H17
		c1.057,0.015,2.029-0.943,2.029-1.999c0-1.056-0.972-2.014-2.029-1.999H12z M32.812,8.038c-1.047,0.049-1.956,1.046-1.907,2.093
		c0.05,1.047,1.047,1.954,2.094,1.905h24c1.058,0.015,2.029-0.943,2.029-1.999c0-1.056-0.972-2.014-2.029-1.999H32.812z"/>
	<path clip-path="url(#SVGID_2_)" fill="none" stroke="#95D29D" stroke-width="2" stroke-miterlimit="10" d="M24.782,1.01
		C23.798,1.118,22.979,2.053,23,3.04v13.994c-0.015,1.056,0.944,2.027,2.001,2.027c1.056,0,2.015-0.971,2-2.027V3.04
		C27.024,1.906,25.91,0.886,24.782,1.01z M64.781,1.01c-0.982,0.108-1.803,1.043-1.782,2.03v13.994
		c-0.014,1.056,0.944,2.027,2.002,2.027c1.056,0,2.014-0.971,2-2.027V3.04C67.024,1.906,65.909,0.886,64.781,1.01z M12,8.038
		c-6.06,0-11,4.938-11,10.995v56.973C1,82.061,5.94,87,12,87h66c6.059,0,11-4.939,11-10.994V19.033c0-6.057-4.941-10.995-11-10.995
		h-5c-1.058-0.015-2.029,0.943-2.029,1.999c0,1.056,0.972,2.014,2.029,1.999h5c3.911,0,7,3.086,7,6.997v56.973
		c0,3.91-3.089,6.996-7,6.996H12c-3.913,0-7-3.086-7-6.996V30.027h74c1.056,0.015,2.027-0.942,2.027-1.999
		c0-1.056-0.972-2.013-2.027-1.999H5v-6.996c0-3.911,3.087-6.997,7-6.997H17c1.057,0.015,2.029-0.943,2.029-1.999
		c0-1.056-0.972-2.014-2.029-1.999H12z M32.812,8.038c-1.047,0.049-1.956,1.046-1.907,2.093c0.05,1.047,1.047,1.954,2.094,1.905h24
		c1.058,0.015,2.029-0.943,2.029-1.999c0-1.056-0.972-2.014-2.029-1.999H32.812z"/>
</g>
</svg>
