<?xml version="1.0" encoding="utf-8"?>
<!-- Generator: Adobe Illustrator 16.0.4, SVG Export Plug-In . SVG Version: 6.00 Build 0)  -->
<!DOCTYPE svg PUBLIC "-//W3C//DTD SVG 1.1//EN" "http://www.w3.org/Graphics/SVG/1.1/DTD/svg11.dtd">
<svg version="1.1" id="Layer_1" xmlns="http://www.w3.org/2000/svg" xmlns:xlink="http://www.w3.org/1999/xlink" x="0px" y="0px"
	 width="30px" height="24.004px" viewBox="0 0 30 24.004" enable-background="new 0 0 30 24.004" xml:space="preserve">
<g>
	<defs>
		<rect id="SVGID_1_" width="30" height="24.004"/>
	</defs>
	<clipPath id="SVGID_2_">
		<use xlink:href="#SVGID_1_"  overflow="visible"/>
	</clipPath>
	<path clip-path="url(#SVGID_2_)" fill="#FFFFFF" d="M3.395,0C1.496,0.032,0,1.597,0,3.504c0,0.276,0.223,0.5,0.5,0.5H6v16.5
		c0,1.928,1.572,3.5,3.5,3.5h11h6c1.927,0,3.5-1.572,3.5-3.5c0-0.276-0.224-0.5-0.5-0.5H24v-16.5c0-1.927-1.573-3.5-3.5-3.5H3.441
		L3.395,0z M3.5,1.004c1.19,0,2.037,0.89,2.293,2H1.208C1.462,1.894,2.31,1.004,3.5,1.004 M5.939,1.004H20.5
		c1.387,0,2.5,1.113,2.5,2.5v16.5H12.5c-0.277,0-0.5,0.224-0.5,0.5c0,1.387-1.114,2.5-2.5,2.5c-1.387,0-2.5-1.113-2.5-2.5v-17
		C7,2.525,6.591,1.641,5.939,1.004 M15.457,5.004c-0.667,0.034-0.616,1.034,0.051,1h4.984c0.676,0.01,0.676-1.009,0-1h-4.984
		C15.49,5.003,15.475,5.003,15.457,5.004 M15.457,8.004c-0.667,0.034-0.616,1.034,0.051,1h4.984c0.676,0.01,0.676-1.009,0-1h-4.984
		C15.49,8.003,15.475,8.003,15.457,8.004 M9.458,11.004c-0.667,0.034-0.616,1.034,0.05,1h10.985c0.676,0.01,0.676-1.009,0-1H9.507
		C9.49,11.003,9.475,11.003,9.458,11.004 M9.458,14.004c-0.667,0.034-0.616,1.034,0.05,1h10.985c0.676,0.01,0.676-1.009,0-1H9.507
		C9.49,14.003,9.475,14.003,9.458,14.004 M9.458,17.004c-0.667,0.034-0.616,1.034,0.05,1h10.985c0.676,0.01,0.676-1.009,0-1H9.507
		C9.49,17.003,9.475,17.003,9.458,17.004 M12.898,21.004h15.895c-0.256,1.11-1.103,2-2.293,2h-6h-8.568
		C12.468,22.482,12.782,21.776,12.898,21.004"/>
	<path clip-path="url(#SVGID_2_)" fill="#FFFFFF" d="M9.014,4.414v0.007H8.996v0.743H9.76c0.694,0,1.046,0.329,1.172,0.736H9.014
		v0.743h1.918C10.806,7.05,10.454,7.379,9.76,7.379H8.996v0.743h0.199l2.292,2.236l0.518-0.531l-1.792-1.75
		c0.814-0.165,1.337-0.768,1.481-1.434h1.015V5.9h-1.015c-0.057-0.267-0.181-0.52-0.355-0.743h1.37V4.414H9.014z"/>
</g>
</svg>
