<?xml version="1.0" encoding="utf-8"?>
<!-- Generator: Adobe Illustrator 16.0.4, SVG Export Plug-In . SVG Version: 6.00 Build 0)  -->
<!DOCTYPE svg PUBLIC "-//W3C//DTD SVG 1.1//EN" "http://www.w3.org/Graphics/SVG/1.1/DTD/svg11.dtd">
<svg version="1.1" id="Layer_1" xmlns="http://www.w3.org/2000/svg" xmlns:xlink="http://www.w3.org/1999/xlink" x="0px" y="0px"
	 width="28px" height="28px" viewBox="0 0 28 28" enable-background="new 0 0 28 28" xml:space="preserve">
<g>
	<defs>
		<rect id="SVGID_1_" width="28" height="28"/>
	</defs>
	<clipPath id="SVGID_2_">
		<use xlink:href="#SVGID_1_"  overflow="visible"/>
	</clipPath>
	<path clip-path="url(#SVGID_2_)" fill="#FFFFFF" d="M27,19c-0.553,0-1,0.447-1,1v5c0,0.553-0.447,1-1,1H3c-0.552,0-1-0.447-1-1v-5
		c0-0.553-0.448-1-1-1s-1,0.447-1,1v5c0,1.657,1.343,3,3,3h22c1.657,0,3-1.343,3-3v-5C28,19.447,27.553,19,27,19"/>
	<path clip-path="url(#SVGID_2_)" fill="#FFFFFF" d="M13.29,22.71c0.39,0.388,1.02,0.388,1.41,0l7-7
		c0.359-0.419,0.311-1.051-0.109-1.41c-0.374-0.32-0.927-0.32-1.301,0L15,19.59V1c0-0.552-0.448-1-1-1s-1,0.448-1,1v18.59l-5.29-5.3
		c-0.42-0.359-1.051-0.31-1.41,0.109c-0.321,0.374-0.321,0.927,0,1.301L13.29,22.71z"/>
</g>
</svg>
