<?xml version="1.0" encoding="utf-8"?>
<!-- Generator: Adobe Illustrator 16.0.4, SVG Export Plug-In . SVG Version: 6.00 Build 0)  -->
<!DOCTYPE svg PUBLIC "-//W3C//DTD SVG 1.1//EN" "http://www.w3.org/Graphics/SVG/1.1/DTD/svg11.dtd">
<svg version="1.1" id="Layer_1" xmlns="http://www.w3.org/2000/svg" xmlns:xlink="http://www.w3.org/1999/xlink" x="0px" y="0px"
	 width="512px" height="512px" viewBox="0 0 512 512" enable-background="new 0 0 512 512" xml:space="preserve">
<g>
	<defs>
		<rect id="SVGID_1_" width="512" height="512"/>
	</defs>
	<clipPath id="SVGID_2_">
		<use xlink:href="#SVGID_1_"  overflow="visible"/>
	</clipPath>
	<path clip-path="url(#SVGID_2_)" fill="#CECECE" d="M512,256c0,141.385-114.615,256-256,256S0,397.385,0,256S114.615,0,256,0
		S512,114.615,512,256"/>
	<polygon clip-path="url(#SVGID_2_)" fill="#F2F2F2" points="451.95,132.358 423.979,413.232 88.021,413.232 65.485,137.794 
		256,244.46 	"/>
	<polygon clip-path="url(#SVGID_2_)" fill="#F2F2F2" points="442.462,79.45 256,254.607 69.538,79.45 256,79.45 	"/>
	<path clip-path="url(#SVGID_2_)" fill="#F14336" d="M88.021,160.329v252.903H57.578c-11.405,0-20.658-9.252-20.658-20.657V123.08
		l33.376,0.91L88.021,160.329z"/>
	<path clip-path="url(#SVGID_2_)" fill="#D32E2A" d="M475.079,123.081v269.496c0,11.404-9.252,20.657-20.668,20.657h-30.432V160.33
		l16.852-39.815L475.079,123.081z"/>
	<path clip-path="url(#SVGID_2_)" fill="#F14336" d="M475.079,100.107v22.973l-51.1,37.249L256,282.764L88.021,160.33L36.92,123.081
		v-22.973c0-11.405,9.253-20.658,20.658-20.658h11.959L256,215.355L442.462,79.449h11.949
		C465.827,79.449,475.079,88.701,475.079,100.107"/>
	<polygon clip-path="url(#SVGID_2_)" fill="#D32E2A" points="88.021,160.329 36.92,152.406 36.92,123.08 	"/>
</g>
</svg>
