<?xml version="1.0" encoding="utf-8"?>
<!-- Generator: Adobe Illustrator 22.0.1, SVG Export Plug-In . SVG Version: 6.00 Build 0)  -->
<svg version="1.1" id="Capa_1" xmlns="http://www.w3.org/2000/svg" xmlns:xlink="http://www.w3.org/1999/xlink" x="0px" y="0px"
	 viewBox="0 0 424.2 424.2" style="enable-background:new 0 0 424.2 424.2;" xml:space="preserve">
<style type="text/css">
	.st0{fill:url(#SVGID_1_);}
	.st1{fill:url(#SVGID_2_);}
	.st2{fill:url(#SVGID_3_);}
	.st3{fill:url(#SVGID_4_);stroke:url(#SVGID_5_);stroke-miterlimit:10;}
</style>
<g>
	
		<linearGradient id="SVGID_1_" gradientUnits="userSpaceOnUse" x1="153.325" y1="183.0875" x2="105.3315" y2="183.0875" gradientTransform="matrix(1 0 0 -1 0 424)">
		<stop  offset="0" style="stop-color:#8EF5B6"/>
		<stop  offset="0.1499" style="stop-color:#89F1B3"/>
		<stop  offset="0.326" style="stop-color:#7BE6A9"/>
		<stop  offset="0.5152" style="stop-color:#63D499"/>
		<stop  offset="0.7137" style="stop-color:#42BB83"/>
		<stop  offset="0.9175" style="stop-color:#189B67"/>
		<stop  offset="1" style="stop-color:#058C5A"/>
	</linearGradient>
	<path class="st0" d="M129.3,245.6c3.9,0,7.6,1.5,10.3,4.3c1.6,1.6,3.6,2.3,5.7,2.3c2,0,4.1-0.8,5.7-2.3c3.1-3.1,3.1-8.2,0-11.3
		c-5.8-5.8-13.5-9-21.7-9s-15.9,3.2-21.7,9c-3.1,3.1-3.1,8.2,0,11.3s8.2,3.1,11.3,0C121.7,247.1,125.4,245.6,129.3,245.6z"/>
	
		<linearGradient id="SVGID_2_" gradientUnits="userSpaceOnUse" x1="318.9488" y1="183.15" x2="270.9543" y2="183.15" gradientTransform="matrix(1 0 0 -1 0 424)">
		<stop  offset="0" style="stop-color:#8EF5B6"/>
		<stop  offset="0.1499" style="stop-color:#89F1B3"/>
		<stop  offset="0.326" style="stop-color:#7BE6A9"/>
		<stop  offset="0.5152" style="stop-color:#63D499"/>
		<stop  offset="0.7137" style="stop-color:#42BB83"/>
		<stop  offset="0.9175" style="stop-color:#189B67"/>
		<stop  offset="1" style="stop-color:#058C5A"/>
	</linearGradient>
	<path class="st1" d="M273.3,238.5c-3.1,3.1-3.1,8.2,0,11.3s8.2,3.1,11.3,0c5.7-5.7,15-5.7,20.7,0c1.6,1.6,3.6,2.3,5.7,2.3
		s4.1-0.8,5.7-2.3c3.1-3.1,3.1-8.2,0-11.3C304.7,226.6,285.2,226.6,273.3,238.5z"/>
	
		<linearGradient id="SVGID_3_" gradientUnits="userSpaceOnUse" x1="279" y1="82.6625" x2="145.2" y2="82.6625" gradientTransform="matrix(1 0 0 -1 0 424)">
		<stop  offset="0" style="stop-color:#8EF5B6"/>
		<stop  offset="0.1499" style="stop-color:#89F1B3"/>
		<stop  offset="0.326" style="stop-color:#7BE6A9"/>
		<stop  offset="0.5152" style="stop-color:#63D499"/>
		<stop  offset="0.7137" style="stop-color:#42BB83"/>
		<stop  offset="0.9175" style="stop-color:#189B67"/>
		<stop  offset="1" style="stop-color:#058C5A"/>
	</linearGradient>
	<path class="st2" d="M269.5,324.7c-31.6,31.6-83.2,31.6-114.9,0c-2.2-2.2-5.7-2.2-7.8,0c-2.2,2.2-2.2,5.7,0,7.8
		c18,18,41.6,27,65.3,27s47.3-9,65.3-27c2.2-2.2,2.2-5.7,0-7.8S271.7,322.6,269.5,324.7z"/>
	
		<linearGradient id="SVGID_4_" gradientUnits="userSpaceOnUse" x1="400.9" y1="211.9537" x2="23.3" y2="211.9537" gradientTransform="matrix(1 0 0 -1 0 424)">
		<stop  offset="0" style="stop-color:#8EF5B6"/>
		<stop  offset="0.1499" style="stop-color:#89F1B3"/>
		<stop  offset="0.326" style="stop-color:#7BE6A9"/>
		<stop  offset="0.5152" style="stop-color:#63D499"/>
		<stop  offset="0.7137" style="stop-color:#42BB83"/>
		<stop  offset="0.9175" style="stop-color:#189B67"/>
		<stop  offset="1" style="stop-color:#058C5A"/>
	</linearGradient>
	
		<linearGradient id="SVGID_5_" gradientUnits="userSpaceOnUse" x1="401.4" y1="211.9537" x2="22.8" y2="211.9537" gradientTransform="matrix(1 0 0 -1 0 424)">
		<stop  offset="0" style="stop-color:#8EF5B6"/>
		<stop  offset="0.1499" style="stop-color:#89F1B3"/>
		<stop  offset="0.326" style="stop-color:#7BE6A9"/>
		<stop  offset="0.5152" style="stop-color:#63D499"/>
		<stop  offset="0.7137" style="stop-color:#42BB83"/>
		<stop  offset="0.9175" style="stop-color:#189B67"/>
		<stop  offset="1" style="stop-color:#058C5A"/>
	</linearGradient>
	<path class="st3" d="M400.9,254.2c0-21.7-15.7-39.9-36.4-43.6V76.7c0-17.4-8.6-33.5-23.1-43.1c-13.6-9-30.5-11.1-45.7-5.7l-50.2-17
		C206.9-2.2,166.3-3.5,128,7C77.9,20.8,49.2,50,44.8,91.6c-3.9,5.2-7,11-9.2,17.3l-3.9,11.5c-2.1,6.2,0.2,12.7,5.7,16.2
		s12.4,2.8,17.1-1.8c1.6-1.6,3.4-2.9,5.2-4v79.7c-20.7,3.8-36.4,21.9-36.4,43.6c0,22.6,17,41.3,38.9,44c5.5,30.3,19.9,58.3,42,80.7
		c28.8,29.2,67.1,45.3,107.9,45.3l0,0c40.7,0,79-15.9,107.7-44.6c22.5-22.5,37.1-50.7,42.4-81.4C384,295.3,400.9,276.7,400.9,254.2z
		 M332.6,47c10.1,6.7,16,17.6,16,29.7v104.7c-24.8-3.9-43.9-25.4-43.9-51.3l-0.7-88C313.7,39.6,323.9,41.2,332.6,47z M49.2,118.6
		l1.6-4.6c4.1-12.1,13.1-21.8,24.8-26.8s25-4.8,36.6,0.6c24.2,11.3,53.5,5.2,71.2-14.8l2-2.2c2.9-3.3,2.6-8.4-0.7-11.3
		c-3.3-2.9-8.4-2.6-11.3,0.7l-2,2.2c-13,14.8-34.6,19.2-52.5,10.9c-15.7-7.3-33.7-7.6-49.6-0.8c-1.4,0.6-2.8,1.3-4.2,2
		c9.3-24.8,31.8-42.2,67.2-52c35.2-9.7,72.5-8.5,108.1,3.6L288,42.2l0.6,41.3c-21.2,28.8-52.1,48.3-87.4,55.1
		c-36.1,6.9-72.9-0.4-103.7-20.5C82.5,108.4,63.6,108.8,49.2,118.6z M39.4,254.2c0-12.9,8.6-23.7,20.4-27.2v43.4
		c0,3.7,0.1,7.5,0.4,11.2C48.2,278.2,39.4,267.2,39.4,254.2z M308.6,368.3c-25.8,25.8-60,39.9-96.4,39.9l0,0
		c-36.4,0-70.7-14.4-96.5-40.6c-25.7-26.1-39.9-60.7-39.9-97.3V127.1c4.5,0.3,9,1.8,13.1,4.4C123,153.9,164,162,204.2,154.4
		c32.6-6.2,61.9-22.3,84.4-45.9v21.7c0,34.7,26.2,63.4,59.9,67.4v74.3C348.5,308.3,334.3,342.5,308.6,368.3z M364.2,281.5
		c0.2-3.2,0.3-6.4,0.3-9.6V227c11.8,3.5,20.4,14.3,20.4,27.2C384.9,267.2,376.1,278.1,364.2,281.5z"/>
</g>
<g id="xYYS05.tif">
</g>
</svg>
