<?xml version="1.0" encoding="utf-8"?>
<!-- Generator: Adobe Illustrator 23.0.3, SVG Export Plug-In . SVG Version: 6.00 Build 0)  -->
<svg version="1.1" id="Layer_1" xmlns="http://www.w3.org/2000/svg" xmlns:xlink="http://www.w3.org/1999/xlink" x="0px" y="0px"
	 viewBox="0 0 41.6 48" style="enable-background:new 0 0 41.6 48;" xml:space="preserve">
<style type="text/css">
	.st0{fill:url(#SVGID_1_);}
</style>
<g>
	<linearGradient id="SVGID_1_" gradientUnits="userSpaceOnUse" x1="0" y1="23.9994" x2="41.5516" y2="23.9994">
		<stop  offset="0" style="stop-color:#1D976C"/>
		<stop  offset="1" style="stop-color:#93F9B9"/>
	</linearGradient>
	<path class="st0" d="M36.2,9.4c0.2,0.1,0.4,0.1,0.5,0.1c0.4,0,0.8-0.2,1.1-0.5l3.3-3.3c0.4-0.4,0.5-0.9,0.4-1.4
		c-0.1-0.5-0.5-0.9-1-1.1L39,2.6L38.4,1c-0.2-0.5-0.6-0.9-1.1-1c-0.5-0.1-1,0-1.4,0.4l-3.3,3.3c-0.4,0.4-0.6,1.1-0.4,1.6v0l0.7,2
		l-0.8,0.8c-3.4-3.1-7.9-5-12.9-5C8.6,3.1,0,11.7,0,22.3C0,28.8,3.2,34.6,8.2,38l-3.3,7.4C4.7,46,4.7,46.7,5,47.2
		C5.4,47.7,5.9,48,6.5,48h4.1c0.7,0,1.4-0.4,1.6-1.1l2.6-5.9c1.4,0.3,2.8,0.5,4.3,0.5c1.5,0,2.9-0.2,4.3-0.5l2.6,5.9
		c0.3,0.6,0.9,1.1,1.6,1.1h4.1c0.6,0,1.2-0.3,1.5-0.8c0.3-0.5,0.4-1.1,0.1-1.7L30.2,38c4.9-3.5,8.2-9.2,8.2-15.7c0-5-1.9-9.5-5-12.9
		l0.8-0.8L36.2,9.4z M36.8,2l0.6,1.6c0.1,0.2,0.3,0.4,0.5,0.5l1.6,0.6l-2.9,2.9l-2-0.7l-0.7-2L36.8,2z M10.6,46.2l-4.1,0L9.7,39
		c1.1,0.6,2.2,1.1,3.4,1.5L10.6,46.2z M31.9,46.2l-4.1,0l-2.5-5.7c1.2-0.4,2.3-0.9,3.4-1.5L31.9,46.2z M36.6,22.3
		c0,9.6-7.8,17.4-17.4,17.4S1.8,31.9,1.8,22.3S9.6,4.9,19.2,4.9c4.5,0,8.6,1.7,11.6,4.5l-2.2,2.2c-2.5-2.2-5.8-3.6-9.4-3.6
		c-7.9,0-14.3,6.4-14.3,14.3c0,7.9,6.4,14.3,14.3,14.3s14.3-6.4,14.3-14.3c0-3.6-1.4-6.9-3.6-9.4l2.2-2.2
		C34.9,13.8,36.6,17.9,36.6,22.3z M22.2,22.3c0,1.7-1.3,3-3,3s-3-1.3-3-3s1.3-3,3-3c0.5,0,1,0.1,1.4,0.3l-2.7,2.7
		c-0.4,0.4-0.4,0.9,0,1.3c0.2,0.2,0.4,0.3,0.6,0.3s0.5-0.1,0.6-0.3l2.7-2.7C22.1,21.4,22.2,21.8,22.2,22.3z M21.9,18.4
		c-0.8-0.5-1.7-0.8-2.7-0.8c-2.6,0-4.8,2.1-4.8,4.8c0,2.6,2.1,4.8,4.8,4.8c2.6,0,4.8-2.1,4.8-4.8c0-1-0.3-1.9-0.8-2.7l2.2-2.2
		c1.1,1.4,1.7,3.1,1.7,4.9c0,4.4-3.6,7.9-7.9,7.9s-7.9-3.6-7.9-7.9s3.6-7.9,7.9-7.9c1.9,0,3.6,0.7,4.9,1.7L21.9,18.4z M25.4,14.8
		c-1.7-1.4-3.9-2.2-6.2-2.2c-5.4,0-9.7,4.4-9.7,9.7s4.4,9.7,9.7,9.7s9.7-4.4,9.7-9.7c0-2.4-0.8-4.5-2.3-6.2l1.9-1.9
		c1.9,2.2,3.1,5,3.1,8.2c0,6.9-5.6,12.5-12.5,12.5c-6.9,0-12.5-5.6-12.5-12.5c0-6.9,5.6-12.5,12.5-12.5c3.1,0,6,1.2,8.2,3.1
		L25.4,14.8z"/>
</g>
</svg>
