<?xml version="1.0" encoding="utf-8"?>
<!-- Generator: Adobe Illustrator 22.0.1, SVG Export Plug-In . SVG Version: 6.00 Build 0)  -->
<svg version="1.1" id="Layer_1" xmlns="http://www.w3.org/2000/svg" xmlns:xlink="http://www.w3.org/1999/xlink" x="0px" y="0px"
	 viewBox="0 0 360 360" style="enable-background:new 0 0 360 360;" xml:space="preserve">
<style type="text/css">
	.st0{fill:#FFFFFF;}
</style>
<path class="st0" d="M229.9,126.1c-12.9-21.3-35.5-34-60.4-34c-12.9,0-25.5,3.6-36.6,10.3c-16.1,9.8-27.5,25.3-31.9,43.6
	s-1.5,37.3,8.3,53.4c12.9,21.3,35.5,34,60.4,34c12.9,0,25.5-3.6,36.6-10.3h0c0,0,0,0,0,0C239.5,202.9,250.1,159.4,229.9,126.1z
	 M247.2,12.9C226.4,4.6,203.7,0,180,0C88.2,0,12.4,68.8,1.4,157.6C0.5,165,0,172.4,0,180c0,99.4,80.6,180,180,180
	c99.4,0,180-80.6,180-180C360,104.3,313.3,39.6,247.2,12.9z M250.8,295.5c-1.1,0.7-2.4,1-3.7,1c-2.3,0-4.6-1.2-6-3.3l-33.8-54.8
	c-11.7,5.9-24.7,9-37.8,9c-29.9,0-56.9-15.2-72.4-40.7c-11.7-19.3-15.3-42-9.9-64c5.4-22,18.9-40.5,38.3-52.3
	c13.3-8.1,28.4-12.3,43.9-12.3c29.9,0,56.9,15.2,72.4,40.7c23,37.9,12.7,86.7-22.5,112.3l33.8,54.8
	C255.2,289.2,254.1,293.5,250.8,295.5z"/>
</svg>
