<?xml version="1.0" encoding="utf-8"?>
<!-- Generator: Adobe Illustrator 16.0.4, SVG Export Plug-In . SVG Version: 6.00 Build 0)  -->
<!DOCTYPE svg PUBLIC "-//W3C//DTD SVG 1.1//EN" "http://www.w3.org/Graphics/SVG/1.1/DTD/svg11.dtd">
<svg version="1.1" id="Layer_1" xmlns="http://www.w3.org/2000/svg" xmlns:xlink="http://www.w3.org/1999/xlink" x="0px" y="0px"
	 width="112.196px" height="112.196px" viewBox="0 0 112.196 112.196" enable-background="new 0 0 112.196 112.196"
	 xml:space="preserve">
<g>
	<defs>
		<rect id="SVGID_1_" width="112.196" height="112.196"/>
	</defs>
	<clipPath id="SVGID_2_">
		<use xlink:href="#SVGID_1_"  overflow="visible"/>
	</clipPath>
	<path clip-path="url(#SVGID_2_)" fill="#55ACEE" d="M56.098,0c30.982,0,56.099,25.116,56.099,56.098s-25.116,56.098-56.099,56.098
		C25.116,112.196,0,87.08,0,56.098S25.116,0,56.098,0"/>
	<path clip-path="url(#SVGID_2_)" fill="#F1F2F2" d="M90.46,40.316c-2.404,1.066-4.99,1.787-7.702,2.109
		c2.77-1.659,4.895-4.284,5.897-7.417c-2.592,1.537-5.462,2.652-8.516,3.253c-2.445-2.605-5.931-4.233-9.79-4.233
		c-7.403,0-13.409,6.005-13.409,13.409c0,1.051,0.119,2.074,0.35,3.056c-11.144-0.559-21.025-5.897-27.639-14.012
		c-1.154,1.98-1.816,4.285-1.816,6.742c0,4.651,2.369,8.757,5.965,11.161c-2.197-0.069-4.266-0.672-6.073-1.679
		c-0.001,0.057-0.001,0.114-0.001,0.17c0,6.497,4.624,11.916,10.757,13.148c-1.124,0.307-2.311,0.47-3.532,0.47
		c-0.866,0-1.705-0.083-2.523-0.239c1.706,5.326,6.657,9.203,12.526,9.312c-4.59,3.597-10.371,5.74-16.655,5.74
		c-1.08,0-2.15-0.063-3.197-0.188c5.931,3.806,12.981,6.025,20.553,6.025c24.665,0,38.152-20.433,38.152-38.153
		c0-0.581-0.013-1.16-0.039-1.734C86.39,45.366,88.663,43.005,90.46,40.316"/>
</g>
</svg>
