<?xml version="1.0" encoding="utf-8"?>
<!-- Generator: Adobe Illustrator 23.0.3, SVG Export Plug-In . SVG Version: 6.00 Build 0)  -->
<svg version="1.1" id="Layer_1" xmlns="http://www.w3.org/2000/svg" xmlns:xlink="http://www.w3.org/1999/xlink" x="0px" y="0px"
	 viewBox="0 0 88 88" style="enable-background:new 0 0 88 88;" xml:space="preserve">
<style type="text/css">
	.st0{fill:url(#SVGID_1_);}
	.st1{fill:url(#SVGID_2_);}
</style>
<g transform="translate(0,-952.36218)">
	<linearGradient id="SVGID_1_" gradientUnits="userSpaceOnUse" x1="17.0066" y1="996.3693" x2="70.9837" y2="996.3693">
		<stop  offset="0" style="stop-color:#1D976C"/>
		<stop  offset="1" style="stop-color:#93F9B9"/>
	</linearGradient>
	<path class="st0" d="M28.3,969.4c-0.1,0-0.3,0-0.4,0.1c-4.5,1.4-7.6,3.8-9.3,6.9s-1.9,6.8-1.2,10.6c1.5,7.5,6.7,15.6,13.2,22.3
		c6.6,6.7,14.5,12.1,22,13.7c3.8,0.8,7.5,0.6,10.8-1.1c3.2-1.7,5.8-4.9,7.4-9.4c0.3-0.9,0-1.8-0.8-2.3l-14.2-8.9l0,0
		c-0.1,0-0.1-0.1-0.2-0.1c-0.2-0.1-0.4-0.2-0.7-0.3c0,0,0,0-0.1,0c-0.1,0-0.1,0-0.2,0c0,0,0,0,0,0c-0.3,0-0.7,0-1,0.2
		c-0.1,0.1-0.2,0.1-0.3,0.2c-0.1,0-0.1,0.1-0.2,0.1c0,0,0,0.1-0.1,0.1c-0.1,0.1-0.2,0.1-0.2,0.2l-3.1,3.2c-5.7-2.9-10-7.6-13.9-14.1
		l2.9-2.8c0.1,0,0.1-0.1,0.2-0.2c0,0,0.1-0.1,0.1-0.1c0,0,0,0,0,0c0,0,0.1-0.1,0.1-0.1c0,0,0,0,0,0c0,0,0-0.1,0.1-0.1
		c0,0,0,0,0.1-0.1c0-0.1,0-0.1,0.1-0.2c0,0,0,0,0,0c0,0,0,0,0-0.1c0,0,0-0.1,0.1-0.1c0-0.1,0-0.1,0-0.2c0,0,0,0,0,0
		c0-0.1,0-0.1,0-0.2c0,0,0,0,0,0c0-0.1,0-0.1,0-0.2c0,0,0,0,0,0c0-0.1,0-0.1,0-0.2c0,0,0,0,0-0.1c0-0.1,0-0.1,0-0.2c0,0,0,0,0,0
		c0-0.1-0.1-0.2-0.1-0.3c0,0,0,0,0,0c0-0.1-0.1-0.2-0.1-0.2l0-0.1c0,0,0,0,0,0l-8.9-14.6c-0.4-0.6-1-0.9-1.7-1
		C28.5,969.4,28.4,969.4,28.3,969.4L28.3,969.4z M27.6,973.8l7.3,12l-3,3c-0.6,0.6-0.8,1.6-0.3,2.4c4.6,8,10.1,14.2,17.8,17.6
		c0.8,0.3,1.6,0.2,2.2-0.4l3.2-3.2l11.7,7.3c-1.3,2.9-3,4.7-4.9,5.7c-2.2,1.2-5,1.4-8.1,0.8c-6.3-1.3-13.8-6.2-20-12.5
		s-10.9-14-12.2-20.2c-0.6-3.1-0.3-5.8,0.8-7.9C23.1,976.5,24.8,974.9,27.6,973.8L27.6,973.8z"/>
	<linearGradient id="SVGID_2_" gradientUnits="userSpaceOnUse" x1="0" y1="996.3619" x2="87.9994" y2="996.3619">
		<stop  offset="0" style="stop-color:#1D976C"/>
		<stop  offset="1" style="stop-color:#93F9B9"/>
	</linearGradient>
	<path class="st1" d="M44,952.4c-24.3,0-44,19.7-44,44c0,8.8,2.6,17.1,7.2,24.1l-4.9,16.4c-0.3,1.1,0.3,2.2,1.3,2.5
		c0.4,0.1,0.8,0.1,1.2,0l16.1-5.5c6.7,4.1,14.6,6.5,23.1,6.5c24.3,0,44-19.7,44-44C88,972.1,68.3,952.4,44,952.4L44,952.4z
		 M44,956.4c22.1,0,40,17.9,40,40c0,22.1-17.9,40-40,40c-8,0-15.5-2.4-21.7-6.4c-0.5-0.3-1.2-0.4-1.7-0.2l-13.3,4.6l4.1-13.6
		c0.2-0.6,0.1-1.2-0.3-1.7c-4.5-6.6-7.1-14.4-7.1-22.7C4,974.2,21.9,956.4,44,956.4L44,956.4z"/>
</g>
</svg>
