<?xml version="1.0" encoding="utf-8"?>
<!-- Generator: Adobe Illustrator 16.0.4, SVG Export Plug-In . SVG Version: 6.00 Build 0)  -->
<!DOCTYPE svg PUBLIC "-//W3C//DTD SVG 1.1//EN" "http://www.w3.org/Graphics/SVG/1.1/DTD/svg11.dtd">
<svg version="1.1" id="Layer_1" xmlns="http://www.w3.org/2000/svg" xmlns:xlink="http://www.w3.org/1999/xlink" x="0px" y="0px"
	 width="512px" height="512px" viewBox="0 0 512 512" enable-background="new 0 0 512 512" xml:space="preserve">
<g>
	<defs>
		<rect id="SVGID_1_" width="512" height="512"/>
	</defs>
	<clipPath id="SVGID_2_">
		<use xlink:href="#SVGID_1_"  overflow="visible"/>
	</clipPath>
	<path clip-path="url(#SVGID_2_)" fill="#4CAF50" d="M256.064,0h-0.128C114.784,0,0,114.816,0,256
		c0,56,18.048,107.904,48.736,150.048l-31.904,95.104l98.4-31.456C155.712,496.512,204,512,256.064,512
		C397.216,512,512,397.152,512,256C512,114.848,397.216,0,256.064,0"/>
	<path clip-path="url(#SVGID_2_)" fill="#FAFAFA" d="M405.024,361.504c-6.177,17.44-30.688,31.904-50.24,36.128
		c-13.376,2.849-30.849,5.12-89.664-19.264C189.888,347.2,141.44,270.752,137.665,265.792c-3.617-4.96-30.4-40.48-30.4-77.216
		c0-36.736,18.656-54.624,26.176-62.304c6.176-6.304,16.384-9.184,26.176-9.184c3.168,0,6.015,0.16,8.575,0.288
		c7.521,0.32,11.296,0.768,16.257,12.64c6.176,14.88,21.216,51.616,23.008,55.392c1.823,3.776,3.648,8.896,1.088,13.856
		c-2.4,5.12-4.512,7.392-8.289,11.744c-3.775,4.352-7.359,7.68-11.135,12.352c-3.456,4.064-7.361,8.416-3.009,15.936
		c4.352,7.36,19.392,31.904,41.537,51.616c28.576,25.439,51.743,33.568,60.031,37.023c6.177,2.561,13.536,1.952,18.048-2.848
		c5.729-6.176,12.801-16.416,20-26.496c5.12-7.231,11.585-8.128,18.368-5.566c6.912,2.398,43.488,20.479,51.008,24.223
		c7.521,3.777,12.48,5.568,14.305,8.736C411.2,329.152,411.2,344.032,405.024,361.504"/>
</g>
</svg>
