<?xml version="1.0" encoding="utf-8"?>
<!-- Generator: Adobe Illustrator 23.0.3, SVG Export Plug-In . SVG Version: 6.00 Build 0)  -->
<svg version="1.1" id="Layer_1" xmlns="http://www.w3.org/2000/svg" xmlns:xlink="http://www.w3.org/1999/xlink" x="0px" y="0px"
	 viewBox="0 0 32 32" style="enable-background:new 0 0 32 32;" xml:space="preserve">
<style type="text/css">
	.st0{fill:none;stroke:#6AC287;}
	.st1{fill:#6AC287;}
</style>
<g>
	<path class="st0" d="M10.3,29.7c-1.8-0.7-3.4-1.8-4.8-3.2s-2.5-3-3.2-4.8C1.6,19.9,1.2,18,1.2,16s0.4-3.9,1.1-5.7s1.8-3.4,3.2-4.8
		s3-2.5,4.8-3.2S14,1.2,16,1.2s3.9,0.4,5.7,1.1s3.4,1.8,4.8,3.2s2.5,3,3.2,4.8s1.1,3.7,1.1,5.7s-0.4,3.9-1.1,5.7
		c-0.7,1.8-1.8,3.4-3.2,4.8s-3,2.5-4.8,3.2S18,30.8,16,30.8S12.1,30.4,10.3,29.7z"/>
	<path class="st1" d="M23.4,14.7c0-0.4,0-0.8-0.1-1.2s-0.1-0.8-0.2-1.1c-0.1-0.3-0.2-0.6-0.5-0.8c-0.2-0.2-0.5-0.4-0.8-0.5
		c-0.3-0.1-0.8-0.1-1.4-0.2c-0.6,0-1.3-0.1-2-0.1c-0.7,0-1.5,0-2.5-0.1c-1,0-1.8,0-2.5,0.1c-0.7,0-1.3,0-2,0.1
		c-0.6,0-1.1,0.1-1.4,0.2c-0.3,0.1-0.6,0.3-0.8,0.5s-0.4,0.5-0.5,0.8c-0.1,0.3-0.1,0.7-0.2,1.1c0,0.4-0.1,0.8-0.1,1.2
		c0,0.4,0,0.8,0,1.4c0,0.5,0,1,0,1.4c0,0.4,0,0.8,0.1,1.2c0,0.4,0.1,0.7,0.2,1c0.1,0.3,0.2,0.6,0.5,0.8c0.2,0.2,0.5,0.4,0.8,0.5
		c0.3,0.1,0.8,0.1,1.4,0.2c0.6,0,1.3,0.1,2,0.1c0.7,0,1.5,0,2.5,0c1,0,1.8,0,2.5,0c0.7,0,1.3,0,2-0.1c0.6,0,1.1-0.1,1.4-0.2
		c0.3-0.1,0.6-0.3,0.8-0.5c0.2-0.2,0.4-0.5,0.5-0.8c0.1-0.3,0.1-0.6,0.2-1.1c0-0.4,0.1-0.8,0.1-1.2c0-0.4,0-0.8,0-1.4
		C23.5,15.5,23.5,15,23.4,14.7z M14.5,18.2v-4.5l3.9,2.3L14.5,18.2z"/>
</g>
</svg>
